<svg xmlns="http://www.w3.org/2000/svg" xmlns:xlink="http://www.w3.org/1999/xlink" width="1920" zoomAndPan="magnify" viewBox="0 0 1440 809.999993" height="1080" preserveAspectRatio="xMidYMid meet" version="1.0"><defs><clipPath id="dc6aa2c0fa"><path d="M 525 274 L 929.511719 274 L 929.511719 520 L 525 520 Z M 525 274 " clip-rule="nonzero"/></clipPath><clipPath id="0b60337bda"><path d="M 636 568 L 820 568 L 820 598.671875 L 636 598.671875 Z M 636 568 " clip-rule="nonzero"/></clipPath><clipPath id="821f54b94d"><path d="M 636 568 L 802 568 L 802 598.671875 L 636 598.671875 Z M 636 568 " clip-rule="nonzero"/></clipPath></defs><path fill="#5d689e" d="M 683.109375 509.949219 L 772.128906 509.949219 L 772.128906 578.066406 L 683.109375 578.066406 Z M 683.109375 509.949219 " fill-opacity="1" fill-rule="nonzero"/><path fill="#495586" d="M 755.527344 509.949219 L 772.128906 509.949219 L 772.128906 578.066406 L 755.527344 578.066406 Z M 755.527344 509.949219 " fill-opacity="1" fill-rule="nonzero"/><g clip-path="url(#dc6aa2c0fa)"><path fill="#b6dbff" d="M 540.734375 274.625 L 914.503906 274.625 C 922.792969 274.625 929.515625 281.355469 929.515625 289.652344 L 929.515625 504.851562 C 929.515625 513.152344 922.792969 519.878906 914.503906 519.878906 L 540.734375 519.878906 C 532.441406 519.878906 525.722656 513.152344 525.722656 504.851562 L 525.722656 289.652344 C 525.722656 281.355469 532.441406 274.625 540.734375 274.625 Z M 540.734375 274.625 " fill-opacity="1" fill-rule="nonzero"/></g><path fill="#cfe8ff" d="M 540.734375 274.625 L 897.652344 274.625 C 905.9375 274.625 912.660156 281.359375 912.660156 289.652344 L 912.660156 504.851562 C 912.660156 513.148438 905.9375 519.878906 897.648438 519.878906 L 540.734375 519.878906 C 532.449219 519.878906 525.722656 513.148438 525.722656 504.855469 L 525.722656 289.652344 C 525.722656 281.359375 532.449219 274.625 540.734375 274.625 Z M 540.734375 274.625 " fill-opacity="1" fill-rule="nonzero"/><g clip-path="url(#0b60337bda)"><path fill="#7986bf" d="M 660.714844 568.136719 L 794.519531 568.136719 C 808.054688 568.136719 819.09375 579.1875 819.09375 592.738281 L 819.09375 598.707031 L 636.140625 598.707031 L 636.140625 592.738281 C 636.140625 579.1875 647.179688 568.136719 660.714844 568.136719 Z M 660.714844 568.136719 " fill-opacity="1" fill-rule="evenodd"/></g><g clip-path="url(#821f54b94d)"><path fill="#909cd1" d="M 660.714844 568.136719 L 776.542969 568.136719 C 790.078125 568.136719 801.117188 579.1875 801.117188 592.738281 L 801.117188 598.707031 L 636.140625 598.707031 L 636.140625 592.738281 C 636.140625 579.1875 647.179688 568.136719 660.714844 568.136719 Z M 660.714844 568.136719 " fill-opacity="1" fill-rule="evenodd"/></g><path fill="#1176e8" d="M 644.941406 447.84375 L 810.296875 447.84375 C 821.136719 447.84375 830.003906 456.722656 830.003906 467.570312 C 830.003906 478.421875 821.136719 487.300781 810.296875 487.300781 L 644.941406 487.300781 C 634.101562 487.300781 625.234375 478.421875 625.234375 467.570312 C 625.234375 456.722656 634.101562 447.84375 644.941406 447.84375 Z M 644.941406 447.84375 " fill-opacity="1" fill-rule="evenodd"/><path fill="#ff8748" d="M 773.699219 284.511719 C 783.113281 284.511719 790.75 292.15625 790.75 301.582031 C 790.75 308.675781 786.425781 314.761719 780.269531 317.335938 L 780.269531 394.953125 C 780.269531 398.589844 777.328125 401.535156 773.699219 401.535156 C 770.066406 401.535156 767.125 398.589844 767.125 394.953125 L 767.125 317.335938 C 760.96875 314.761719 756.644531 308.675781 756.644531 301.582031 C 756.644531 292.15625 764.28125 284.511719 773.699219 284.511719 Z M 773.699219 297.671875 C 771.539062 297.671875 769.792969 299.421875 769.792969 301.582031 C 769.792969 303.742188 771.539062 305.492188 773.699219 305.492188 C 775.855469 305.492188 777.605469 303.742188 777.605469 301.582031 C 777.605469 299.421875 775.855469 297.671875 773.699219 297.671875 Z M 773.699219 297.671875 " fill-opacity="1" fill-rule="evenodd"/><path fill="#ff8748" d="M 728.730469 221.496094 C 725.101562 221.496094 722.160156 218.550781 722.160156 214.917969 C 722.160156 211.28125 725.101562 208.335938 728.730469 208.335938 L 740.785156 208.335938 C 744.414062 208.335938 747.359375 211.28125 747.359375 214.917969 C 747.359375 218.550781 744.414062 221.496094 740.785156 221.496094 Z M 695.820312 221.496094 C 692.1875 221.496094 689.246094 218.550781 689.246094 214.917969 C 689.246094 211.28125 692.1875 208.335938 695.820312 208.335938 L 707.871094 208.335938 C 711.503906 208.335938 714.445312 211.28125 714.445312 214.917969 C 714.445312 218.550781 711.503906 221.496094 707.871094 221.496094 Z M 780.269531 226.980469 C 780.269531 230.617188 777.328125 233.5625 773.695312 233.5625 C 770.066406 233.5625 767.125 230.617188 767.125 226.980469 L 767.125 221.496094 L 761.644531 221.496094 C 758.015625 221.496094 755.070312 218.550781 755.070312 214.917969 C 755.070312 211.28125 758.015625 208.335938 761.644531 208.335938 L 773.695312 208.335938 C 777.328125 208.335938 780.269531 211.28125 780.269531 214.917969 Z M 780.269531 257.015625 C 780.269531 260.648438 777.328125 263.59375 773.695312 263.59375 C 770.066406 263.59375 767.125 260.648438 767.125 257.015625 L 767.125 247.863281 C 767.125 244.230469 770.066406 241.28125 773.695312 241.28125 C 777.328125 241.28125 780.269531 244.230469 780.269531 247.863281 Z M 780.269531 257.015625 " fill-opacity="1" fill-rule="evenodd"/><path fill="#1176e8" d="M 644.941406 386.011719 L 810.296875 386.011719 C 821.136719 386.011719 830.003906 394.886719 830.003906 405.738281 C 830.003906 416.589844 821.136719 425.46875 810.296875 425.46875 L 644.941406 425.46875 C 634.101562 425.46875 625.234375 416.589844 625.234375 405.738281 C 625.234375 394.886719 634.101562 386.011719 644.941406 386.011719 Z M 644.941406 386.011719 " fill-opacity="1" fill-rule="evenodd"/><path fill="#2a92fa" d="M 644.941406 386.011719 L 810.296875 386.011719 C 816.722656 386.011719 822.457031 389.132812 826.0625 393.9375 C 826.335938 395.242188 826.480469 396.597656 826.480469 397.984375 C 826.480469 408.835938 817.613281 417.710938 806.773438 417.710938 L 641.421875 417.710938 C 634.992188 417.710938 629.257812 414.589844 625.65625 409.785156 C 625.378906 408.480469 625.234375 407.125 625.234375 405.738281 C 625.234375 394.890625 634.101562 386.011719 644.941406 386.011719 Z M 644.941406 386.011719 " fill-opacity="1" fill-rule="evenodd"/><path fill="#1176e8" d="M 748.027344 402.035156 C 746.210938 398.898438 747.28125 394.878906 750.414062 393.0625 C 753.546875 391.246094 757.558594 392.316406 759.375 395.453125 L 766.71875 408.183594 C 768.53125 411.320312 767.460938 415.335938 764.328125 417.15625 C 761.195312 418.972656 757.183594 417.902344 755.367188 414.765625 L 748.023438 402.035156 Z M 748.027344 402.035156 " fill-opacity="1" fill-rule="evenodd"/><path fill="#ff8748" d="M 753.726562 399.660156 C 756.730469 397.644531 760.800781 398.449219 762.8125 401.460938 C 764.828125 404.46875 764.023438 408.542969 761.015625 410.558594 C 758.59375 412.191406 755.894531 413.488281 753 414.378906 C 750.175781 415.242188 747.238281 415.710938 744.253906 415.710938 C 735.953125 415.710938 728.402344 412.304688 722.929688 406.824219 C 717.457031 401.347656 714.054688 393.785156 714.054688 385.476562 L 714.054688 375.132812 C 711.933594 375.929688 709.460938 375.601562 707.585938 374.058594 C 704.792969 371.757812 704.390625 367.628906 706.6875 364.832031 L 715.207031 354.441406 C 716.390625 352.714844 718.375 351.578125 720.628906 351.578125 C 724.257812 351.578125 727.199219 354.527344 727.199219 358.160156 L 727.199219 385.476562 C 727.199219 390.152344 729.125 394.417969 732.222656 397.519531 C 735.320312 400.621094 739.582031 402.546875 744.253906 402.546875 C 746.023438 402.546875 747.683594 402.296875 749.199219 401.832031 C 750.796875 401.34375 752.320312 400.605469 753.722656 399.660156 Z M 753.726562 399.660156 " fill-opacity="1" fill-rule="evenodd"/><path fill="#2a92fa" d="M 644.941406 447.84375 L 810.296875 447.84375 C 816.722656 447.84375 822.457031 450.964844 826.0625 455.769531 C 826.335938 457.078125 826.480469 458.429688 826.480469 459.816406 C 826.480469 470.667969 817.613281 479.546875 806.773438 479.546875 L 641.421875 479.546875 C 634.992188 479.546875 629.257812 476.421875 625.65625 471.621094 C 625.378906 470.3125 625.234375 468.957031 625.234375 467.574219 C 625.234375 456.722656 634.101562 447.84375 644.941406 447.84375 Z M 644.941406 447.84375 " fill-opacity="1" fill-rule="evenodd"/><path fill="#cfe8ff" d="M 679.34375 474.152344 C 675.714844 474.152344 672.769531 471.207031 672.769531 467.570312 C 672.769531 463.9375 675.714844 460.992188 679.34375 460.992188 L 679.71875 460.992188 C 683.347656 460.992188 686.289062 463.9375 686.289062 467.570312 C 686.289062 471.207031 683.347656 474.152344 679.71875 474.152344 Z M 775.519531 474.152344 C 771.890625 474.152344 768.945312 471.207031 768.945312 467.570312 C 768.945312 463.9375 771.890625 460.992188 775.519531 460.992188 L 775.894531 460.992188 C 779.523438 460.992188 782.46875 463.9375 782.46875 467.570312 C 782.46875 471.207031 779.523438 474.152344 775.894531 474.152344 Z M 751.476562 474.152344 C 747.847656 474.152344 744.902344 471.207031 744.902344 467.570312 C 744.902344 463.9375 747.847656 460.992188 751.476562 460.992188 L 751.851562 460.992188 C 755.480469 460.992188 758.421875 463.9375 758.421875 467.570312 C 758.421875 471.207031 755.480469 474.152344 751.851562 474.152344 Z M 727.433594 474.152344 C 723.800781 474.152344 720.859375 471.207031 720.859375 467.570312 C 720.859375 463.9375 723.800781 460.992188 727.433594 460.992188 L 727.804688 460.992188 C 731.4375 460.992188 734.378906 463.9375 734.378906 467.570312 C 734.378906 471.207031 731.4375 474.152344 727.804688 474.152344 Z M 703.386719 474.152344 C 699.757812 474.152344 696.816406 471.207031 696.816406 467.570312 C 696.816406 463.9375 699.757812 460.992188 703.386719 460.992188 L 703.761719 460.992188 C 707.394531 460.992188 710.335938 463.9375 710.335938 467.570312 C 710.335938 471.207031 707.394531 474.152344 703.761719 474.152344 Z M 703.386719 474.152344 " fill-opacity="1" fill-rule="evenodd"/><path fill="#5d689e" d="M 506.027344 299.332031 C 526.03125 248.210938 553.757812 220.011719 601.835938 219.449219 C 649.914062 220.007812 677.640625 248.210938 697.644531 299.332031 C 706.855469 322.875 704.335938 334.582031 684.804688 338.792969 C 665.28125 343.003906 633.558594 344.753906 601.835938 344.753906 C 570.113281 344.753906 538.390625 343.003906 518.867188 338.792969 C 499.335938 334.582031 496.816406 322.875 506.027344 299.332031 Z M 506.027344 299.332031 " fill-opacity="1" fill-rule="evenodd"/><path fill="#7986bf" d="M 506.027344 299.332031 C 524.84375 251.242188 550.5 223.4375 593.496094 219.84375 C 636.59375 223.507812 662.292969 252.3125 681.132812 302.195312 C 688.863281 322.65625 688.332031 334.484375 676.421875 340.339844 C 656.867188 343.4375 629.351562 344.757812 601.835938 344.757812 C 570.113281 344.757812 538.390625 343.003906 518.867188 338.792969 C 499.335938 334.582031 496.816406 322.878906 506.027344 299.332031 Z M 506.027344 299.332031 " fill-opacity="1" fill-rule="evenodd"/><path fill="#323e66" d="M 604.457031 336.25 C 591.742188 305.824219 567.074219 233.34375 538.828125 216.242188 C 579.710938 143.980469 642.867188 173.269531 664.84375 216.242188 C 636.597656 233.34375 617.167969 305.824219 604.457031 336.25 Z M 604.457031 336.25 " fill-opacity="1" fill-rule="evenodd"/><path fill="#fdb0a0" d="M 601.835938 249.980469 C 559.878906 247.253906 548.796875 163.925781 601.835938 163.925781 C 654.878906 163.925781 643.796875 247.253906 601.835938 249.980469 Z M 601.835938 249.980469 " fill-opacity="1" fill-rule="evenodd"/><path fill="#ffcec0" d="M 597.578125 249.398438 C 560.292969 241.777344 551.164062 168.34375 597.578125 164.125 C 643.988281 168.34375 634.859375 241.777344 597.578125 249.398438 Z M 597.578125 249.398438 " fill-opacity="1" fill-rule="evenodd"/><path fill="#ff6161" d="M 567.648438 189.746094 C 571.425781 175.28125 582.257812 163.925781 601.835938 163.925781 C 621.414062 163.925781 632.246094 175.28125 636.023438 189.746094 C 626.433594 194.320312 614.617188 197.023438 601.835938 197.023438 C 589.054688 197.023438 577.238281 194.320312 567.648438 189.746094 Z M 567.648438 189.746094 " fill-opacity="1" fill-rule="evenodd"/><path fill="#909cd1" d="M 538.828125 216.242188 C 577.261719 172.042969 626.410156 172.042969 664.84375 216.242188 C 647.566406 111.945312 556.105469 111.945312 538.828125 216.242188 Z M 538.828125 216.242188 " fill-opacity="1" fill-rule="evenodd"/><path fill="#7986bf" d="M 601.835938 183.09375 C 623.734375 183.09375 645.628906 194.144531 664.84375 216.242188 C 656.207031 164.09375 629.023438 138.019531 601.835938 138.019531 Z M 601.835938 183.09375 " fill-opacity="1" fill-rule="evenodd"/><path fill="#2dcffc" d="M 544.070312 272.007812 L 659.601562 272.007812 C 661.332031 272.007812 662.734375 273.410156 662.734375 275.140625 L 662.734375 353.339844 C 662.734375 355.070312 661.332031 356.472656 659.601562 356.472656 L 544.070312 356.472656 C 542.339844 356.472656 540.9375 355.070312 540.9375 353.339844 L 540.9375 275.140625 C 540.9375 273.414062 542.339844 272.007812 544.070312 272.007812 Z M 544.070312 272.007812 " fill-opacity="1" fill-rule="nonzero"/><path fill="#66deff" d="M 544.070312 272.007812 L 650.332031 272.007812 C 652.0625 272.007812 653.464844 273.410156 653.464844 275.140625 L 653.464844 353.335938 C 653.464844 355.070312 652.0625 356.472656 650.332031 356.472656 L 544.070312 356.472656 C 542.339844 356.472656 540.9375 355.070312 540.9375 353.335938 L 540.9375 275.140625 C 540.9375 273.410156 542.339844 272.007812 544.070312 272.007812 Z M 544.070312 272.007812 " fill-opacity="1" fill-rule="nonzero"/><path fill="#e8333c" d="M 612.964844 314.238281 C 612.964844 314.800781 612.894531 315.359375 612.75 315.910156 C 612.609375 316.460938 612.398438 316.996094 612.117188 317.515625 C 611.839844 318.035156 611.496094 318.527344 611.089844 318.992188 C 610.683594 319.460938 610.222656 319.894531 609.707031 320.289062 C 609.1875 320.6875 608.625 321.042969 608.019531 321.355469 C 607.410156 321.667969 606.769531 321.929688 606.09375 322.144531 C 605.421875 322.359375 604.726562 322.523438 604.007812 322.632812 C 603.292969 322.742188 602.566406 322.796875 601.835938 322.796875 C 601.105469 322.796875 600.382812 322.742188 599.667969 322.632812 C 598.949219 322.523438 598.253906 322.359375 597.578125 322.144531 C 596.902344 321.929688 596.261719 321.667969 595.65625 321.355469 C 595.046875 321.042969 594.484375 320.6875 593.96875 320.289062 C 593.453125 319.894531 592.992188 319.460938 592.585938 318.992188 C 592.179688 318.527344 591.835938 318.035156 591.554688 317.515625 C 591.277344 316.996094 591.066406 316.460938 590.921875 315.910156 C 590.78125 315.359375 590.710938 314.800781 590.710938 314.238281 C 590.710938 313.679688 590.78125 313.121094 590.921875 312.570312 C 591.066406 312.019531 591.277344 311.484375 591.554688 310.964844 C 591.835938 310.445312 592.179688 309.953125 592.585938 309.484375 C 592.992188 309.019531 593.453125 308.585938 593.96875 308.1875 C 594.484375 307.792969 595.046875 307.4375 595.65625 307.125 C 596.261719 306.8125 596.902344 306.550781 597.578125 306.335938 C 598.253906 306.121094 598.949219 305.957031 599.667969 305.847656 C 600.382812 305.738281 601.105469 305.683594 601.835938 305.683594 C 602.566406 305.683594 603.292969 305.738281 604.007812 305.847656 C 604.726562 305.957031 605.421875 306.121094 606.09375 306.335938 C 606.769531 306.550781 607.410156 306.8125 608.019531 307.125 C 608.625 307.4375 609.1875 307.792969 609.707031 308.1875 C 610.222656 308.585938 610.683594 309.019531 611.089844 309.484375 C 611.496094 309.953125 611.839844 310.445312 612.117188 310.964844 C 612.398438 311.484375 612.609375 312.019531 612.75 312.570312 C 612.894531 313.121094 612.964844 313.679688 612.964844 314.238281 Z M 612.964844 314.238281 " fill-opacity="1" fill-rule="nonzero"/><path fill="#ff6161" d="M 598.902344 322.496094 C 594.179688 321.503906 590.707031 318.183594 590.707031 314.238281 C 590.707031 310.292969 594.179688 306.972656 598.902344 305.984375 C 603.621094 306.972656 607.09375 310.292969 607.09375 314.238281 C 607.09375 318.183594 603.621094 321.503906 598.902344 322.496094 Z M 598.902344 322.496094 " fill-opacity="1" fill-rule="evenodd"/></svg>