<svg xmlns="http://www.w3.org/2000/svg" xmlns:xlink="http://www.w3.org/1999/xlink" width="1920" zoomAndPan="magnify" viewBox="0 0 1440 809.999993" height="1080" preserveAspectRatio="xMidYMid meet" version="1.0"><defs><clipPath id="b2933b5689"><path d="M 640 521 L 1031 521 L 1031 745.25 L 640 745.25 Z M 640 521 " clip-rule="nonzero"/></clipPath><clipPath id="448a854dcd"><path d="M 363.007812 36 L 992 36 L 992 731 L 363.007812 731 Z M 363.007812 36 " clip-rule="nonzero"/></clipPath><clipPath id="f4a890ffc4"><path d="M 363.007812 271 L 588 271 L 588 639 L 363.007812 639 Z M 363.007812 271 " clip-rule="nonzero"/></clipPath><clipPath id="5bb861e444"><path d="M 760 584 L 1031 584 L 1031 745.25 L 760 745.25 Z M 760 584 " clip-rule="nonzero"/></clipPath><clipPath id="b8af7b71e8"><path d="M 640 678 L 761 678 L 761 745.25 L 640 745.25 Z M 640 678 " clip-rule="nonzero"/></clipPath></defs><g clip-path="url(#b2933b5689)"><path fill="#bac1ce" d="M 922.617188 522.648438 L 1030.761719 584.59375 L 1030.761719 587.988281 L 760.042969 745.269531 L 676.554688 697.519531 L 659.96875 707.148438 C 657.910156 708.316406 655.070312 708.207031 651.84375 706.3125 C 645.5 702.695312 640.378906 693.847656 640.378906 686.554688 C 640.433594 682.828125 641.769531 680.265625 643.9375 679.097656 L 914.492188 521.871094 C 916.554688 520.648438 919.390625 520.8125 922.617188 522.648438 Z M 922.617188 522.648438 " fill-opacity="1" fill-rule="nonzero"/></g><path fill="#bac1ce" d="M 1075.789062 405.214844 C 1075.789062 406.273438 1075.066406 407.386719 1073.617188 408.222656 L 943.492188 483.355469 C 940.597656 485.027344 935.976562 485.027344 933.136719 483.355469 L 852.378906 437.773438 C 851.375 437.273438 850.765625 436.214844 850.765625 435.105469 L 850.707031 431.875 L 991.246094 350.730469 L 1073.617188 398.59375 C 1075.011719 399.429688 1075.734375 400.484375 1075.734375 401.597656 Z M 1075.789062 405.214844 " fill-opacity="1" fill-rule="nonzero"/><g clip-path="url(#448a854dcd)"><path fill="#bac1ce" d="M 648.835938 617.097656 L 599.355469 645.648438 C 597.464844 646.707031 595.738281 646.707031 594.570312 645.871094 L 582.378906 638.804688 C 581.15625 638.078125 580.433594 636.742188 580.433594 634.796875 L 580.042969 482.023438 C 580.042969 478.015625 582.9375 473.0625 586.332031 471.058594 L 632.585938 444.34375 C 632.472656 443.957031 632.363281 443.566406 632.363281 443.121094 L 632.363281 313.554688 L 587.558594 339.433594 L 587.722656 402.710938 C 587.722656 404.046875 587 405.273438 585.886719 405.941406 L 370.769531 530.105469 L 370.9375 588.820312 L 419.136719 617.039062 L 451.976562 598.117188 C 455.035156 596.335938 460.046875 596.335938 463.105469 598.117188 L 589.78125 671.691406 C 591.34375 672.640625 592.066406 673.808594 592.066406 675.035156 L 592.121094 684.328125 C 592.121094 685.550781 591.285156 686.722656 589.726562 687.613281 L 517.039062 729.574219 C 513.976562 731.414062 508.96875 731.414062 505.90625 729.574219 L 379.226562 656 C 377.667969 655.109375 376.945312 653.941406 376.945312 652.769531 L 376.945312 643.367188 C 376.945312 643.699219 377.113281 643.976562 377.222656 644.257812 C 376.722656 642.808594 377.277344 641.25 379.226562 640.082031 L 411.785156 621.324219 L 365.371094 594.167969 C 364.257812 593.5 363.53125 592.277344 363.53125 590.9375 L 363.367188 527.992188 C 363.367188 526.65625 364.089844 525.433594 365.203125 524.820312 L 580.320312 400.597656 L 580.15625 343.664062 L 489.488281 396.035156 C 470.953125 406.71875 454.3125 406.664062 443.179688 397.980469 C 444.238281 398.816406 445.351562 399.597656 446.519531 400.265625 L 422.921875 386.574219 C 412.070312 380.285156 405.332031 366.816406 405.277344 347.671875 C 405.167969 309.492188 432.105469 262.683594 465.496094 243.429688 C 466.832031 242.648438 468.058594 241.925781 469.394531 241.3125 C 468.28125 237.027344 467.667969 232.296875 467.667969 227.011719 C 467.558594 192.003906 492.269531 149.148438 522.492188 131.730469 C 528.449219 128.277344 534.234375 126.109375 539.46875 124.882812 L 539.523438 124.882812 C 547.539062 93.050781 569.859375 60.378906 596.292969 45.183594 C 613.105469 35.445312 628.410156 34.554688 639.375 40.953125 L 661.136719 53.585938 C 665.476562 49.859375 669.929688 46.574219 674.550781 43.902344 C 689.910156 35.054688 703.769531 34.273438 713.734375 40.0625 L 737.332031 53.808594 C 730.429688 49.746094 721.691406 48.914062 711.839844 51.75 C 732.878906 45.796875 748.964844 56.535156 752.582031 79.300781 C 761.265625 80.414062 769.167969 82.972656 774.121094 85.867188 L 797.277344 99.390625 C 808.351562 105.570312 815.253906 119.039062 815.308594 138.238281 C 815.476562 176.808594 788.425781 223.335938 755.144531 242.648438 L 694.308594 277.765625 L 694.085938 349.339844 L 900.410156 229.734375 C 901.523438 229.066406 902.917969 229.066406 904.085938 229.734375 C 905.253906 230.40625 905.921875 231.628906 905.921875 232.90625 L 906.03125 292.515625 L 980.613281 249.492188 C 982.0625 248.65625 983.394531 248.546875 984.34375 249.105469 L 989.410156 252.054688 C 989.410156 252.054688 989.410156 252.054688 989.464844 252.109375 C 990.355469 252.609375 990.964844 253.777344 990.964844 255.394531 L 991.242188 350.675781 L 850.707031 431.820312 L 847.089844 429.761719 C 846.144531 429.203125 845.585938 428.144531 845.585938 427.089844 L 845.308594 333.589844 C 845.308594 330.25 847.589844 326.242188 850.484375 324.570312 L 898.628906 296.800781 L 898.574219 239.363281 L 692.25 358.96875 C 691.691406 359.300781 691.027344 359.46875 690.414062 359.46875 C 689.742188 359.46875 689.132812 359.300781 688.519531 358.96875 C 687.40625 358.355469 686.683594 357.074219 686.683594 355.792969 L 686.90625 282.050781 L 639.765625 309.265625 L 639.765625 440.222656 L 791.933594 352.453125 C 793.546875 351.398438 795.214844 351.398438 796.328125 352.066406 L 808.40625 359.078125 C 809.742188 359.636719 810.632812 361.082031 810.632812 363.308594 L 811.078125 516.023438 C 811.078125 520.089844 808.292969 524.984375 804.785156 527.046875 L 754.363281 556.152344 L 775.789062 568.5625 L 775.957031 577.523438 L 678.054688 634.070312 Z M 648.835938 617.097656 " fill-opacity="1" fill-rule="nonzero"/></g><path fill="#416e84" d="M 636.050781 446.839844 C 634.007812 446.839844 632.355469 445.1875 632.355469 443.144531 L 632.355469 293 C 632.355469 290.957031 634.007812 289.304688 636.050781 289.304688 C 638.09375 289.304688 639.746094 290.957031 639.746094 293 L 639.746094 443.144531 C 639.746094 445.183594 638.09375 446.839844 636.050781 446.839844 Z M 636.050781 446.839844 " fill-opacity="1" fill-rule="nonzero"/><path fill="#416e84" d="M 690.394531 359.480469 C 689.757812 359.480469 689.117188 359.316406 688.542969 358.984375 C 687.398438 358.324219 686.691406 357.101562 686.699219 355.78125 L 687.058594 228.40625 C 687.066406 226.363281 688.71875 224.71875 690.753906 224.71875 L 690.761719 224.71875 C 692.804688 224.726562 694.457031 226.386719 694.449219 228.421875 L 694.109375 349.367188 L 900.390625 229.734375 C 901.539062 229.078125 902.9375 229.070312 904.085938 229.726562 C 905.234375 230.382812 905.941406 231.601562 905.941406 232.921875 L 906.035156 297.300781 C 906.035156 299.339844 904.390625 301 902.347656 301 L 902.339844 301 C 900.304688 301 898.644531 299.347656 898.644531 297.3125 L 898.558594 239.339844 L 692.246094 358.984375 C 691.671875 359.316406 691.035156 359.480469 690.394531 359.480469 Z M 690.394531 359.480469 " fill-opacity="1" fill-rule="nonzero"/><path fill="#474b59" d="M 678.039062 634.050781 L 631.808594 607.1875 L 631.640625 598.242188 L 677.871094 625.105469 Z M 678.039062 634.050781 " fill-opacity="1" fill-rule="nonzero"/><path fill="#525566" d="M 677.871094 625.105469 L 631.640625 598.242188 L 729.570312 541.707031 L 775.800781 568.570312 Z M 677.871094 625.105469 " fill-opacity="1" fill-rule="nonzero"/><path fill="#3f434f" d="M 775.800781 568.570312 L 775.96875 577.515625 L 678.039062 634.050781 L 677.871094 625.105469 Z M 775.800781 568.570312 " fill-opacity="1" fill-rule="nonzero"/><path fill="#bac1ce" d="M 808.789062 359.324219 C 807.691406 358.640625 806.046875 358.640625 804.265625 359.734375 L 598.816406 478.285156 C 595.390625 480.339844 592.511719 485.273438 592.511719 489.25 L 592.921875 641.925781 C 592.921875 643.980469 593.605469 645.351562 594.839844 646.035156 L 582.367188 638.78125 C 581.136719 638.097656 580.449219 636.726562 580.449219 634.808594 L 580.035156 481.996094 C 580.035156 478.019531 582.914062 473.085938 586.34375 471.03125 L 791.929688 352.480469 C 793.574219 351.386719 795.21875 351.386719 796.316406 352.070312 Z M 808.789062 359.324219 " fill-opacity="1" fill-rule="nonzero"/><path fill="#5b5e71" d="M 804.332031 359.710938 C 807.832031 357.6875 810.640625 359.289062 810.652344 363.3125 L 811.085938 516.042969 C 811.097656 520.066406 808.304688 525 804.804688 527.019531 L 599.339844 645.640625 C 595.839844 647.660156 592.941406 646.011719 592.929688 641.988281 L 592.496094 489.257812 C 592.484375 485.238281 595.363281 480.351562 598.863281 478.332031 Z M 804.332031 359.710938 " fill-opacity="1" fill-rule="nonzero"/><path fill="#748bfd" d="M 602.222656 487.539062 L 602.632812 632.53125 L 801.359375 517.800781 L 800.949219 372.8125 Z M 602.222656 487.539062 " fill-opacity="1" fill-rule="nonzero"/><path fill="#e4e8f4" d="M 629.730469 515.3125 L 629.738281 518.089844 L 613.070312 527.710938 L 613.0625 524.9375 Z M 629.730469 515.3125 " fill-opacity="1" fill-rule="nonzero"/><path fill="#e4e8f4" d="M 642.878906 585.085938 L 642.886719 587.8125 L 613.289062 604.902344 L 613.28125 602.171875 Z M 642.878906 585.085938 " fill-opacity="1" fill-rule="nonzero"/><path fill="#e4e8f4" d="M 732.175781 544.605469 L 732.179688 547.335938 L 714.34375 557.632812 L 714.335938 554.902344 Z M 732.175781 544.605469 " fill-opacity="1" fill-rule="nonzero"/><path fill="#e4e8f4" d="M 709.855469 557.488281 L 709.867188 560.21875 L 677.8125 578.722656 L 677.804688 575.992188 Z M 709.855469 557.488281 " fill-opacity="1" fill-rule="nonzero"/><path fill="#e4e8f4" d="M 732.140625 533.550781 L 732.148438 536.28125 L 695.269531 557.574219 L 695.261719 554.84375 Z M 732.140625 533.550781 " fill-opacity="1" fill-rule="nonzero"/><path fill="#e4e8f4" d="M 696.210938 532.199219 L 696.21875 534.929688 L 650.730469 561.1875 L 650.722656 558.457031 Z M 696.210938 532.199219 " fill-opacity="1" fill-rule="nonzero"/><path fill="#e4e8f4" d="M 718.144531 453.246094 L 718.152344 455.976562 L 696.730469 468.339844 L 696.722656 465.609375 Z M 718.144531 453.246094 " fill-opacity="1" fill-rule="nonzero"/><path fill="#e4e8f4" d="M 732.078125 511.492188 L 732.085938 514.21875 L 703.464844 530.746094 L 703.453125 528.015625 Z M 732.078125 511.492188 " fill-opacity="1" fill-rule="nonzero"/><path fill="#e4e8f4" d="M 711.390625 534.503906 L 711.398438 537.234375 L 680.828125 554.886719 L 680.820312 552.15625 Z M 711.390625 534.503906 " fill-opacity="1" fill-rule="nonzero"/><path fill="#e4e8f4" d="M 732.109375 522.542969 L 732.117188 525.273438 L 714.164062 535.640625 L 714.15625 532.910156 Z M 732.109375 522.542969 " fill-opacity="1" fill-rule="nonzero"/><path fill="#e4e8f4" d="M 719.117188 507.949219 L 719.125 510.675781 L 676.324219 535.386719 L 676.316406 532.660156 Z M 719.117188 507.949219 " fill-opacity="1" fill-rule="nonzero"/><path fill="#e4e8f4" d="M 732.046875 500.480469 L 732.054688 503.210938 L 722.667969 508.628906 L 722.664062 505.902344 Z M 732.046875 500.480469 " fill-opacity="1" fill-rule="nonzero"/><path fill="#e4e8f4" d="M 731.984375 478.375 L 731.992188 481.152344 L 714.429688 491.289062 L 714.421875 488.515625 Z M 731.984375 478.375 " fill-opacity="1" fill-rule="nonzero"/><path fill="#e4e8f4" d="M 732.015625 489.429688 L 732.027344 492.160156 L 702.542969 509.179688 L 702.535156 506.449219 Z M 732.015625 489.429688 " fill-opacity="1" fill-rule="nonzero"/><path fill="#e4e8f4" d="M 731.953125 467.367188 L 731.960938 470.097656 L 695.625 491.074219 L 695.617188 488.34375 Z M 731.953125 467.367188 " fill-opacity="1" fill-rule="nonzero"/><path fill="#e4e8f4" d="M 731.921875 456.316406 L 731.929688 459.089844 L 678.808594 489.757812 L 678.800781 486.984375 Z M 731.921875 456.316406 " fill-opacity="1" fill-rule="nonzero"/><path fill="#e4e8f4" d="M 709.203125 491.53125 L 709.210938 494.304688 L 674.585938 514.292969 L 674.578125 511.519531 Z M 709.203125 491.53125 " fill-opacity="1" fill-rule="nonzero"/><path fill="#e4e8f4" d="M 698.019531 509.058594 L 698.027344 511.785156 L 659.9375 533.777344 L 659.929688 531.046875 Z M 698.019531 509.058594 " fill-opacity="1" fill-rule="nonzero"/><path fill="#e4e8f4" d="M 671.113281 513.519531 L 671.121094 516.292969 L 641.484375 533.402344 L 641.476562 530.628906 Z M 671.113281 513.519531 " fill-opacity="1" fill-rule="nonzero"/><path fill="#e4e8f4" d="M 671.285156 491.324219 L 671.292969 494.097656 L 635.382812 514.828125 L 635.378906 512.054688 Z M 671.285156 491.324219 " fill-opacity="1" fill-rule="nonzero"/><path fill="#e4e8f4" d="M 628.515625 582.351562 L 628.523438 585.082031 L 613.257812 593.894531 L 613.25 591.164062 Z M 628.515625 582.351562 " fill-opacity="1" fill-rule="nonzero"/><path fill="#e4e8f4" d="M 674.300781 578.015625 L 674.308594 580.746094 L 635.089844 603.386719 L 635.082031 600.65625 Z M 674.300781 578.015625 " fill-opacity="1" fill-rule="nonzero"/><path fill="#e4e8f4" d="M 689.613281 558.105469 L 689.621094 560.832031 L 648.84375 584.375 L 648.835938 581.644531 Z M 689.613281 558.105469 " fill-opacity="1" fill-rule="nonzero"/><path fill="#e4e8f4" d="M 677.550781 554.042969 L 677.558594 556.773438 L 632.652344 582.699219 L 632.644531 579.96875 Z M 677.550781 554.042969 " fill-opacity="1" fill-rule="nonzero"/><path fill="#e4e8f4" d="M 642.15625 563.40625 L 642.164062 566.136719 L 613.226562 582.839844 L 613.21875 580.109375 Z M 642.15625 563.40625 " fill-opacity="1" fill-rule="nonzero"/><path fill="#e4e8f4" d="M 628.53125 560.242188 L 628.539062 562.972656 L 613.195312 571.832031 L 613.1875 569.101562 Z M 628.53125 560.242188 " fill-opacity="1" fill-rule="nonzero"/><path fill="#e4e8f4" d="M 651.671875 535.8125 L 651.679688 538.542969 L 613.164062 560.78125 L 613.15625 558.050781 Z M 651.671875 535.8125 " fill-opacity="1" fill-rule="nonzero"/><path fill="#e4e8f4" d="M 668.257812 537.3125 L 668.261719 540.039062 L 636.058594 558.636719 L 636.046875 555.90625 Z M 668.257812 537.3125 " fill-opacity="1" fill-rule="nonzero"/><path fill="#e4e8f4" d="M 637.308594 533.035156 L 637.320312 535.808594 L 613.132812 549.773438 L 613.125 547 Z M 637.308594 533.035156 " fill-opacity="1" fill-rule="nonzero"/><path fill="#e4e8f4" d="M 659.046875 509.457031 L 659.058594 512.1875 L 613.101562 538.71875 L 613.09375 535.988281 Z M 659.046875 509.457031 " fill-opacity="1" fill-rule="nonzero"/><path fill="#e4e8f4" d="M 653.53125 490.546875 L 653.542969 493.273438 L 613.039062 516.660156 L 613.03125 513.929688 Z M 653.53125 490.546875 " fill-opacity="1" fill-rule="nonzero"/><path fill="#e4e8f4" d="M 641.234375 486.574219 L 641.242188 489.347656 L 613.007812 505.648438 L 613 502.875 Z M 641.234375 486.574219 " fill-opacity="1" fill-rule="nonzero"/><path fill="#e4e8f4" d="M 681.503906 463.328125 L 681.511719 466.101562 L 646.8125 486.132812 L 646.804688 483.359375 Z M 681.503906 463.328125 " fill-opacity="1" fill-rule="nonzero"/><path fill="#e4e8f4" d="M 655.109375 467.539062 L 655.113281 470.269531 L 612.976562 494.597656 L 612.96875 491.867188 Z M 655.109375 467.539062 " fill-opacity="1" fill-rule="nonzero"/><path fill="#e4e8f4" d="M 731.890625 445.304688 L 731.902344 448.035156 L 723.839844 452.691406 L 723.832031 449.960938 Z M 731.890625 445.304688 " fill-opacity="1" fill-rule="nonzero"/><path fill="#e4e8f4" d="M 731.859375 434.253906 L 731.867188 437.027344 L 685.910156 463.5625 L 685.90625 460.785156 Z M 731.859375 434.253906 " fill-opacity="1" fill-rule="nonzero"/><path fill="#e4e8f4" d="M 731.828125 423.246094 L 731.835938 425.976562 L 712.523438 437.128906 L 712.511719 434.398438 Z M 731.828125 423.246094 " fill-opacity="1" fill-rule="nonzero"/><path fill="#e4e8f4" d="M 693.023438 467.746094 L 693.03125 470.476562 L 660.59375 489.203125 L 660.582031 486.472656 Z M 693.023438 467.746094 " fill-opacity="1" fill-rule="nonzero"/><path fill="#e4e8f4" d="M 706.511719 437.859375 L 706.523438 440.589844 L 659.359375 467.820312 L 659.351562 465.089844 Z M 706.511719 437.859375 " fill-opacity="1" fill-rule="nonzero"/><path fill="#e4e8f4" d="M 690.632812 491.222656 L 690.640625 493.953125 L 661.472656 510.792969 L 661.464844 508.066406 Z M 690.632812 491.222656 " fill-opacity="1" fill-rule="nonzero"/><path fill="#e4e8f4" d="M 629.433594 603.917969 L 629.441406 606.644531 L 613.320312 615.953125 L 613.3125 613.226562 Z M 629.433594 603.917969 " fill-opacity="1" fill-rule="nonzero"/><path fill="#e4e8f4" d="M 790.480469 389.386719 L 790.488281 392.113281 L 748.429688 416.398438 L 748.417969 413.667969 Z M 790.480469 389.386719 " fill-opacity="1" fill-rule="nonzero"/><path fill="#e4e8f4" d="M 777.699219 407.792969 L 777.707031 410.566406 L 748.460938 427.449219 L 748.449219 424.675781 Z M 777.699219 407.792969 " fill-opacity="1" fill-rule="nonzero"/><path fill="#e4e8f4" d="M 773.617188 454.339844 L 773.625 457.117188 L 748.585938 471.570312 L 748.578125 468.796875 Z M 773.617188 454.339844 " fill-opacity="1" fill-rule="nonzero"/><path fill="#e4e8f4" d="M 788.527344 456.808594 L 788.53125 459.535156 L 748.613281 482.582031 L 748.609375 479.851562 Z M 788.527344 456.808594 " fill-opacity="1" fill-rule="nonzero"/><path fill="#e4e8f4" d="M 790.605469 433.507812 L 790.613281 436.238281 L 748.554688 460.519531 L 748.542969 457.789062 Z M 790.605469 433.507812 " fill-opacity="1" fill-rule="nonzero"/><path fill="#e4e8f4" d="M 765.765625 436.777344 L 765.773438 439.550781 L 748.523438 449.511719 L 748.511719 446.738281 Z M 765.765625 436.777344 " fill-opacity="1" fill-rule="nonzero"/><path fill="#e4e8f4" d="M 790.425781 411.515625 L 790.433594 414.242188 L 748.488281 438.457031 L 748.480469 435.730469 Z M 790.425781 411.515625 " fill-opacity="1" fill-rule="nonzero"/><path fill="#e4e8f4" d="M 778.65625 484.601562 L 778.667969 487.328125 L 748.675781 504.640625 L 748.671875 501.910156 Z M 778.65625 484.601562 " fill-opacity="1" fill-rule="nonzero"/><path fill="#e4e8f4" d="M 764.566406 481.707031 L 764.574219 484.4375 L 748.644531 493.632812 L 748.636719 490.902344 Z M 764.566406 481.707031 " fill-opacity="1" fill-rule="nonzero"/><path fill="#e4e8f4" d="M 764.511719 503.835938 L 764.519531 506.566406 L 748.707031 515.695312 L 748.699219 512.964844 Z M 764.511719 503.835938 " fill-opacity="1" fill-rule="nonzero"/><path fill="#e4e8f4" d="M 765.472656 525.382812 L 765.480469 528.109375 L 748.773438 537.757812 L 748.765625 535.027344 Z M 765.472656 525.382812 " fill-opacity="1" fill-rule="nonzero"/><path fill="#e4e8f4" d="M 779.421875 506.257812 L 779.429688 508.984375 L 748.738281 526.703125 L 748.734375 523.972656 Z M 779.421875 506.257812 " fill-opacity="1" fill-rule="nonzero"/><path fill="#bac1ce" d="M 989.445312 252.09375 C 988.503906 251.535156 987.183594 251.601562 985.734375 252.453125 L 855.613281 327.570312 C 852.734375 329.234375 850.429688 333.242188 850.429688 336.550781 L 850.703125 431.828125 L 847.105469 429.734375 C 846.160156 429.183594 845.574219 428.171875 845.570312 427.074219 L 845.300781 333.570312 C 845.300781 330.261719 847.605469 326.253906 850.484375 324.585938 L 980.605469 249.472656 C 982.058594 248.640625 983.378906 248.554688 984.316406 249.109375 Z M 989.445312 252.09375 " fill-opacity="1" fill-rule="nonzero"/><path fill="#5b5e71" d="M 985.738281 252.445312 C 988.613281 250.785156 990.949219 252.117188 990.960938 255.417969 L 991.230469 350.6875 L 850.699219 431.824219 L 850.425781 336.554688 C 850.417969 333.25 852.738281 329.226562 855.613281 327.570312 Z M 985.738281 252.445312 " fill-opacity="1" fill-rule="nonzero"/><path fill="#fed57a" d="M 856.828125 336.535156 C 856.824219 335.515625 857.921875 333.628906 858.8125 333.113281 L 984.574219 260.507812 L 984.820312 347.003906 L 857.066406 420.753906 Z M 856.828125 336.535156 " fill-opacity="1" fill-rule="nonzero"/><path fill="#e4e8f4" d="M 850.710938 431.859375 L 850.738281 435.09375 C 850.75 436.21875 851.363281 437.246094 852.351562 437.785156 L 933.128906 483.355469 C 935.984375 485.019531 940.617188 485.019531 943.496094 483.355469 L 1073.617188 408.238281 C 1075.066406 407.40625 1075.792969 406.296875 1075.792969 405.207031 L 1075.75 401.609375 C 1075.75 402.695312 1075.023438 403.78125 1073.574219 404.617188 L 943.476562 479.523438 C 940.59375 481.164062 935.945312 481.164062 933.105469 479.523438 Z M 850.710938 431.859375 " fill-opacity="1" fill-rule="nonzero"/><path fill="#cad0dd" d="M 850.710938 431.855469 L 933.085938 479.722656 C 935.941406 481.378906 940.585938 481.378906 943.457031 479.722656 L 1073.570312 404.605469 C 1076.457031 402.9375 1076.472656 400.25 1073.617188 398.589844 L 991.242188 350.71875 Z M 850.710938 431.855469 " fill-opacity="1" fill-rule="nonzero"/><path fill="#bac1ce" d="M 1011.917969 432.992188 L 1011.210938 433.441406 L 988.71875 446.457031 C 987.496094 447.167969 985.949219 447.167969 984.726562 446.457031 L 970.679688 438.339844 L 969.90625 437.890625 C 968.554688 437.179688 968.554688 435.183594 969.90625 434.476562 L 993.039062 421.007812 C 994.328125 420.234375 995.875 420.234375 997.164062 420.945312 L 1011.851562 429.515625 C 1013.273438 430.285156 1013.273438 432.21875 1011.917969 432.992188 Z M 1011.917969 432.992188 " fill-opacity="1" fill-rule="nonzero"/><path fill="#5b5e71" d="M 961.417969 388.527344 C 961.140625 388.6875 961.136719 388.953125 961.414062 389.109375 L 966.539062 392.089844 C 966.8125 392.25 967.253906 392.238281 967.527344 392.082031 L 972.6875 389.101562 C 972.964844 388.941406 972.964844 388.695312 972.691406 388.539062 L 967.566406 385.558594 C 967.289062 385.398438 966.851562 385.390625 966.574219 385.546875 Z M 961.417969 388.527344 " fill-opacity="1" fill-rule="nonzero"/><path fill="#5b5e71" d="M 956.992188 401.984375 C 956.714844 402.144531 956.730469 402.398438 957.003906 402.558594 L 962.132812 405.539062 C 962.390625 405.6875 962.828125 405.695312 963.105469 405.539062 L 968.265625 402.558594 C 968.542969 402.398438 968.542969 402.136719 968.285156 401.984375 L 963.160156 399.007812 C 962.882812 398.847656 962.429688 398.847656 962.152344 399.007812 Z M 956.992188 401.984375 " fill-opacity="1" fill-rule="nonzero"/><path fill="#5b5e71" d="M 966.515625 396.488281 C 966.238281 396.648438 966.238281 396.910156 966.511719 397.070312 L 971.636719 400.050781 C 971.898438 400.199219 972.351562 400.199219 972.628906 400.039062 L 982.101562 394.570312 C 982.375 394.410156 982.363281 394.15625 982.101562 394.003906 L 976.976562 391.027344 C 976.703125 390.867188 976.261719 390.855469 975.988281 391.015625 Z M 966.515625 396.488281 " fill-opacity="1" fill-rule="nonzero"/><path fill="#5b5e71" d="M 915.132812 437.054688 C 914.855469 437.214844 914.871094 437.46875 915.128906 437.617188 L 920.253906 440.597656 C 920.53125 440.753906 920.96875 440.765625 921.246094 440.605469 L 926.40625 437.625 C 926.679688 437.46875 926.667969 437.214844 926.390625 437.054688 L 921.265625 434.074219 C 921.003906 433.925781 920.566406 433.914062 920.289062 434.074219 Z M 915.132812 437.054688 " fill-opacity="1" fill-rule="nonzero"/><path fill="#5b5e71" d="M 887.605469 442.042969 C 887.34375 442.191406 887.339844 442.457031 887.617188 442.613281 L 892.746094 445.59375 C 893.003906 445.742188 893.457031 445.742188 893.71875 445.59375 L 901.140625 441.308594 C 901.402344 441.160156 901.402344 440.894531 901.144531 440.746094 L 896.015625 437.765625 C 895.742188 437.605469 895.289062 437.605469 895.027344 437.757812 Z M 887.605469 442.042969 " fill-opacity="1" fill-rule="nonzero"/><path fill="#5b5e71" d="M 900.917969 434.359375 C 900.644531 434.515625 900.65625 434.769531 900.933594 434.929688 L 906.058594 437.910156 C 906.320312 438.058594 906.753906 438.070312 907.035156 437.910156 L 912.191406 434.929688 C 912.46875 434.769531 912.453125 434.515625 912.195312 434.367188 L 907.070312 431.386719 C 906.792969 431.230469 906.355469 431.21875 906.082031 431.378906 Z M 900.917969 434.359375 " fill-opacity="1" fill-rule="nonzero"/><path fill="#5b5e71" d="M 910.261719 428.964844 C 910 429.113281 910 429.378906 910.277344 429.535156 L 915.402344 432.515625 C 915.660156 432.664062 916.117188 432.664062 916.375 432.515625 L 921.535156 429.535156 C 921.8125 429.378906 921.8125 429.113281 921.554688 428.964844 L 916.429688 425.984375 C 916.15625 425.824219 915.699219 425.824219 915.421875 425.984375 Z M 910.261719 428.964844 " fill-opacity="1" fill-rule="nonzero"/><path fill="#5b5e71" d="M 980.339844 410.308594 C 980.066406 410.46875 980.0625 410.714844 980.335938 410.875 L 985.464844 413.851562 C 985.738281 414.011719 986.160156 414.011719 986.4375 413.851562 L 1000.90625 405.5 C 1001.183594 405.339844 1001.183594 405.097656 1000.910156 404.9375 L 995.785156 401.957031 C 995.511719 401.800781 995.085938 401.800781 994.808594 401.957031 Z M 980.339844 410.308594 " fill-opacity="1" fill-rule="nonzero"/><path fill="#5b5e71" d="M 938.308594 412.773438 C 938.03125 412.933594 938.042969 413.1875 938.320312 413.347656 L 943.445312 416.324219 C 943.707031 416.476562 944.144531 416.484375 944.421875 416.324219 L 949.578125 413.347656 C 949.855469 413.1875 949.84375 412.933594 949.582031 412.78125 L 944.457031 409.804688 C 944.179688 409.644531 943.742188 409.632812 943.464844 409.792969 Z M 938.308594 412.773438 " fill-opacity="1" fill-rule="nonzero"/><path fill="#5b5e71" d="M 952.664062 415.386719 C 952.390625 415.542969 952.402344 415.796875 952.664062 415.949219 L 957.789062 418.929688 C 958.0625 419.089844 958.5 419.097656 958.777344 418.9375 L 963.9375 415.960938 C 964.214844 415.800781 964.199219 415.546875 963.925781 415.386719 L 958.796875 412.40625 C 958.539062 412.257812 958.101562 412.25 957.824219 412.40625 Z M 952.664062 415.386719 " fill-opacity="1" fill-rule="nonzero"/><path fill="#5b5e71" d="M 928.960938 418.167969 C 928.6875 418.324219 928.683594 418.589844 928.960938 418.75 L 934.085938 421.726562 C 934.34375 421.878906 934.800781 421.878906 935.074219 421.71875 L 940.234375 418.738281 C 940.496094 418.589844 940.496094 418.324219 940.238281 418.175781 L 935.113281 415.195312 C 934.835938 415.035156 934.382812 415.035156 934.121094 415.1875 Z M 928.960938 418.167969 " fill-opacity="1" fill-rule="nonzero"/><path fill="#5b5e71" d="M 943.273438 420.808594 C 943.011719 420.957031 943.011719 421.21875 943.269531 421.371094 L 948.398438 424.347656 C 948.671875 424.507812 949.128906 424.507812 949.386719 424.359375 L 954.5625 421.371094 C 954.824219 421.222656 954.828125 420.957031 954.550781 420.796875 L 949.421875 417.820312 C 949.164062 417.667969 948.710938 417.667969 948.449219 417.820312 Z M 943.273438 420.808594 " fill-opacity="1" fill-rule="nonzero"/><path fill="#5b5e71" d="M 919.605469 423.570312 C 919.34375 423.71875 919.339844 423.984375 919.617188 424.140625 L 924.746094 427.121094 C 925.003906 427.269531 925.457031 427.269531 925.71875 427.121094 L 930.894531 424.132812 C 931.15625 423.984375 931.15625 423.71875 930.898438 423.570312 L 925.769531 420.589844 C 925.496094 420.429688 925.042969 420.429688 924.78125 420.582031 Z M 919.605469 423.570312 " fill-opacity="1" fill-rule="nonzero"/><path fill="#5b5e71" d="M 933.898438 426.21875 C 933.621094 426.378906 933.636719 426.632812 933.894531 426.78125 L 939.023438 429.761719 C 939.296875 429.921875 939.734375 429.929688 940.011719 429.769531 L 945.167969 426.792969 C 945.445312 426.632812 945.433594 426.378906 945.15625 426.21875 L 940.03125 423.242188 C 939.769531 423.089844 939.332031 423.082031 939.054688 423.242188 Z M 933.898438 426.21875 " fill-opacity="1" fill-rule="nonzero"/><path fill="#5b5e71" d="M 924.507812 431.640625 C 924.246094 431.792969 924.246094 432.054688 924.503906 432.207031 L 929.632812 435.183594 C 929.90625 435.34375 930.359375 435.34375 930.621094 435.195312 L 935.78125 432.214844 C 936.054688 432.054688 936.058594 431.792969 935.785156 431.632812 L 930.65625 428.652344 C 930.398438 428.503906 929.945312 428.503906 929.667969 428.664062 Z M 924.507812 431.640625 " fill-opacity="1" fill-rule="nonzero"/><path fill="#5b5e71" d="M 923.894531 442.898438 C 923.632812 443.046875 923.613281 443.304688 923.890625 443.460938 L 929.015625 446.441406 C 929.289062 446.601562 929.730469 446.589844 929.992188 446.441406 L 983.066406 415.796875 C 983.34375 415.636719 983.347656 415.394531 983.070312 415.234375 L 977.945312 412.253906 C 977.667969 412.09375 977.25 412.09375 976.96875 412.253906 Z M 923.894531 442.898438 " fill-opacity="1" fill-rule="nonzero"/><path fill="#5b5e71" d="M 962.039062 409.972656 C 961.78125 410.121094 961.777344 410.386719 962.039062 410.535156 L 967.164062 413.515625 C 967.4375 413.675781 967.894531 413.675781 968.152344 413.523438 L 973.332031 410.535156 C 973.589844 410.386719 973.59375 410.121094 973.316406 409.964844 L 968.191406 406.984375 C 967.933594 406.835938 967.476562 406.835938 967.21875 406.984375 Z M 962.039062 409.972656 " fill-opacity="1" fill-rule="nonzero"/><path fill="#5b5e71" d="M 971.480469 404.523438 C 971.207031 404.679688 971.203125 404.945312 971.460938 405.097656 L 976.589844 408.074219 C 976.863281 408.234375 977.316406 408.234375 977.59375 408.074219 L 991.511719 400.039062 C 991.785156 399.878906 991.773438 399.625 991.496094 399.464844 L 986.371094 396.488281 C 986.113281 396.339844 985.675781 396.328125 985.398438 396.488281 Z M 971.480469 404.523438 " fill-opacity="1" fill-rule="nonzero"/><path fill="#5b5e71" d="M 942.925781 399.203125 C 942.648438 399.363281 942.648438 399.625 942.921875 399.785156 L 948.050781 402.765625 C 948.324219 402.921875 948.761719 402.914062 949.039062 402.753906 L 954.195312 399.777344 C 954.457031 399.625 954.472656 399.371094 954.199219 399.210938 L 949.074219 396.234375 C 948.796875 396.074219 948.34375 396.074219 948.085938 396.222656 Z M 942.925781 399.203125 " fill-opacity="1" fill-rule="nonzero"/><path fill="#5b5e71" d="M 952.171875 393.867188 C 951.894531 394.023438 951.894531 394.289062 952.167969 394.449219 L 957.292969 397.425781 C 957.566406 397.585938 958.007812 397.578125 958.28125 397.417969 L 963.441406 394.4375 C 963.703125 394.289062 963.71875 394.035156 963.445312 393.875 L 958.316406 390.894531 C 958.042969 390.734375 957.589844 390.734375 957.328125 390.886719 Z M 952.171875 393.867188 " fill-opacity="1" fill-rule="nonzero"/><path fill="#5b5e71" d="M 906.425781 452.980469 C 906.164062 453.132812 906.148438 453.386719 906.421875 453.546875 L 911.550781 456.523438 C 911.824219 456.683594 912.265625 456.675781 912.523438 456.523438 L 924.585938 449.5625 C 924.863281 449.402344 924.863281 449.160156 924.589844 448.996094 L 919.460938 446.019531 C 919.1875 445.859375 918.765625 445.859375 918.488281 446.019531 Z M 906.425781 452.980469 " fill-opacity="1" fill-rule="nonzero"/><path fill="#5b5e71" d="M 897.015625 447.511719 C 896.753906 447.660156 896.753906 447.925781 897.011719 448.074219 L 902.140625 451.054688 C 902.414062 451.214844 902.871094 451.214844 903.128906 451.0625 L 917.257812 442.90625 C 917.53125 442.746094 917.519531 442.492188 917.242188 442.335938 L 912.117188 439.355469 C 911.859375 439.207031 911.421875 439.195312 911.144531 439.355469 Z M 897.015625 447.511719 " fill-opacity="1" fill-rule="nonzero"/><path fill="#5b5e71" d="M 947.652344 407.378906 C 947.375 407.539062 947.386719 407.792969 947.664062 407.953125 L 952.789062 410.929688 C 953.050781 411.082031 953.484375 411.089844 953.765625 410.929688 L 958.921875 407.953125 C 959.199219 407.792969 959.183594 407.539062 958.925781 407.386719 L 953.800781 404.410156 C 953.527344 404.25 953.085938 404.242188 952.8125 404.398438 Z M 947.652344 407.378906 " fill-opacity="1" fill-rule="nonzero"/><path fill="#5b5e71" d="M 896.683594 425.898438 C 896.421875 426.046875 896.417969 426.3125 896.695312 426.472656 L 901.824219 429.449219 C 902.097656 429.609375 902.535156 429.601562 902.796875 429.449219 L 907.972656 426.460938 C 908.234375 426.3125 908.25 426.058594 907.976562 425.898438 L 902.847656 422.917969 C 902.574219 422.757812 902.121094 422.757812 901.859375 422.910156 Z M 896.683594 425.898438 " fill-opacity="1" fill-rule="nonzero"/><path fill="#5b5e71" d="M 905.945312 420.554688 C 905.667969 420.710938 905.667969 420.976562 905.941406 421.136719 L 911.066406 424.113281 C 911.34375 424.273438 911.78125 424.265625 912.058594 424.105469 L 917.214844 421.125 C 917.476562 420.976562 917.492188 420.722656 917.21875 420.5625 L 912.09375 417.582031 C 911.816406 417.421875 911.363281 417.421875 911.101562 417.574219 Z M 905.945312 420.554688 " fill-opacity="1" fill-rule="nonzero"/><path fill="#5b5e71" d="M 915.191406 415.214844 C 914.914062 415.375 914.914062 415.640625 915.1875 415.796875 L 920.3125 418.777344 C 920.585938 418.9375 921.027344 418.925781 921.300781 418.765625 L 926.460938 415.789062 C 926.722656 415.640625 926.738281 415.386719 926.464844 415.226562 L 921.339844 412.246094 C 921.066406 412.085938 920.609375 412.085938 920.351562 412.234375 Z M 915.191406 415.214844 " fill-opacity="1" fill-rule="nonzero"/><path fill="#5b5e71" d="M 933.679688 404.539062 C 933.402344 404.699219 933.402344 404.964844 933.675781 405.121094 L 938.800781 408.101562 C 939.078125 408.261719 939.515625 408.25 939.792969 408.09375 L 944.953125 405.113281 C 945.210938 404.964844 945.230469 404.707031 944.953125 404.550781 L 939.828125 401.570312 C 939.554688 401.410156 939.097656 401.410156 938.839844 401.5625 Z M 933.679688 404.539062 " fill-opacity="1" fill-rule="nonzero"/><path fill="#5b5e71" d="M 924.433594 409.878906 C 924.160156 410.039062 924.15625 410.300781 924.433594 410.460938 L 929.558594 413.441406 C 929.832031 413.601562 930.273438 413.589844 930.546875 413.429688 L 935.707031 410.453125 C 935.96875 410.300781 935.984375 410.046875 935.710938 409.886719 L 930.585938 406.910156 C 930.308594 406.75 929.855469 406.75 929.59375 406.898438 Z M 924.433594 409.878906 " fill-opacity="1" fill-rule="nonzero"/><path fill="#5b5e71" d="M 993.464844 370.027344 C 993.1875 370.183594 993.203125 370.4375 993.476562 370.597656 L 998.601562 373.578125 C 998.878906 373.738281 999.300781 373.738281 999.578125 373.578125 L 1004.738281 370.597656 C 1005.011719 370.4375 1005.015625 370.195312 1004.742188 370.035156 L 999.613281 367.054688 C 999.339844 366.894531 998.902344 366.886719 998.625 367.046875 Z M 993.464844 370.027344 " fill-opacity="1" fill-rule="nonzero"/><path fill="#5b5e71" d="M 984.21875 375.363281 C 983.941406 375.523438 983.957031 375.777344 984.230469 375.933594 L 989.359375 378.914062 C 989.632812 379.074219 990.054688 379.074219 990.332031 378.914062 L 995.492188 375.933594 C 995.769531 375.777344 995.769531 375.53125 995.496094 375.371094 L 990.371094 372.390625 C 990.09375 372.234375 989.65625 372.222656 989.378906 372.382812 Z M 984.21875 375.363281 " fill-opacity="1" fill-rule="nonzero"/><path fill="#5b5e71" d="M 1002.875 375.496094 C 1002.597656 375.65625 1002.613281 375.90625 1002.890625 376.066406 L 1008.015625 379.046875 C 1008.277344 379.195312 1008.710938 379.207031 1008.992188 379.046875 L 1014.148438 376.066406 C 1014.425781 375.90625 1014.410156 375.65625 1014.152344 375.503906 L 1009.027344 372.523438 C 1008.75 372.367188 1008.3125 372.355469 1008.035156 372.515625 Z M 1002.875 375.496094 " fill-opacity="1" fill-rule="nonzero"/><path fill="#5b5e71" d="M 993.628906 380.832031 C 993.355469 380.992188 993.367188 381.246094 993.644531 381.40625 L 998.769531 384.382812 C 999.03125 384.535156 999.46875 384.542969 999.746094 384.382812 L 1004.90625 381.40625 C 1005.179688 381.246094 1005.167969 380.992188 1004.90625 380.839844 L 999.78125 377.863281 C 999.507812 377.703125 999.066406 377.691406 998.792969 377.851562 Z M 993.628906 380.832031 " fill-opacity="1" fill-rule="nonzero"/><path fill="#5b5e71" d="M 1012.289062 380.964844 C 1012.011719 381.121094 1012.023438 381.378906 1012.28125 381.527344 L 1017.410156 384.507812 C 1017.683594 384.667969 1018.125 384.675781 1018.398438 384.519531 L 1023.558594 381.539062 C 1023.835938 381.378906 1023.820312 381.125 1023.546875 380.964844 L 1018.417969 377.988281 C 1018.160156 377.835938 1017.722656 377.828125 1017.445312 377.988281 Z M 1012.289062 380.964844 " fill-opacity="1" fill-rule="nonzero"/><path fill="#5b5e71" d="M 1021.65625 386.171875 C 1021.382812 386.332031 1021.394531 386.582031 1021.652344 386.734375 L 1026.78125 389.714844 C 1027.054688 389.875 1027.492188 389.882812 1027.769531 389.722656 L 1032.929688 386.746094 C 1033.207031 386.585938 1033.191406 386.332031 1032.914062 386.171875 L 1027.789062 383.191406 C 1027.527344 383.042969 1027.089844 383.035156 1026.8125 383.191406 Z M 1021.65625 386.171875 " fill-opacity="1" fill-rule="nonzero"/><path fill="#5b5e71" d="M 984.386719 386.167969 C 984.109375 386.328125 984.121094 386.582031 984.398438 386.742188 L 989.523438 389.722656 C 989.785156 389.871094 990.222656 389.878906 990.5 389.722656 L 995.660156 386.742188 C 995.933594 386.582031 995.921875 386.328125 995.660156 386.179688 L 990.535156 383.199219 C 990.261719 383.039062 989.824219 383.03125 989.546875 383.1875 Z M 984.386719 386.167969 " fill-opacity="1" fill-rule="nonzero"/><path fill="#5b5e71" d="M 1003.042969 386.300781 C 1002.765625 386.460938 1002.78125 386.714844 1003.039062 386.867188 L 1008.164062 389.84375 C 1008.4375 390.003906 1008.878906 390.015625 1009.152344 389.855469 L 1014.3125 386.875 C 1014.589844 386.714844 1014.578125 386.460938 1014.300781 386.304688 L 1009.175781 383.324219 C 1008.914062 383.175781 1008.476562 383.164062 1008.199219 383.324219 Z M 1003.042969 386.300781 " fill-opacity="1" fill-rule="nonzero"/><path fill="#5b5e71" d="M 993.796875 391.640625 C 993.519531 391.796875 993.535156 392.054688 993.792969 392.203125 L 998.921875 395.183594 C 999.195312 395.339844 999.632812 395.351562 999.910156 395.191406 L 1005.070312 392.210938 C 1005.34375 392.054688 1005.332031 391.796875 1005.054688 391.640625 L 999.929688 388.660156 C 999.671875 388.511719 999.234375 388.5 998.957031 388.660156 Z M 993.796875 391.640625 " fill-opacity="1" fill-rule="nonzero"/><path fill="#5b5e71" d="M 1012.453125 391.769531 C 1012.175781 391.929688 1012.175781 392.175781 1012.449219 392.335938 L 1017.578125 395.3125 C 1017.851562 395.472656 1018.273438 395.472656 1018.550781 395.3125 L 1023.710938 392.335938 C 1023.984375 392.175781 1023.988281 391.933594 1023.710938 391.769531 L 1018.585938 388.792969 C 1018.3125 388.632812 1017.890625 388.632812 1017.613281 388.792969 Z M 1012.453125 391.769531 " fill-opacity="1" fill-rule="nonzero"/><path fill="#5b5e71" d="M 1003.207031 397.109375 C 1002.933594 397.269531 1002.929688 397.511719 1003.203125 397.671875 L 1008.332031 400.652344 C 1008.605469 400.8125 1009.027344 400.8125 1009.304688 400.652344 L 1014.464844 397.671875 C 1014.742188 397.511719 1014.742188 397.269531 1014.46875 397.109375 L 1009.34375 394.128906 C 1009.066406 393.96875 1008.644531 393.96875 1008.367188 394.128906 Z M 1003.207031 397.109375 " fill-opacity="1" fill-rule="nonzero"/><path fill="#5b5e71" d="M 974.972656 380.699219 C 974.699219 380.859375 974.710938 381.113281 974.988281 381.273438 L 980.113281 384.25 C 980.386719 384.410156 980.808594 384.410156 981.085938 384.25 L 986.246094 381.273438 C 986.523438 381.113281 986.523438 380.871094 986.25 380.710938 L 981.125 377.730469 C 980.847656 377.570312 980.410156 377.5625 980.132812 377.722656 Z M 974.972656 380.699219 " fill-opacity="1" fill-rule="nonzero"/><path fill="#5b5e71" d="M 887.4375 431.238281 C 887.175781 431.386719 887.175781 431.652344 887.449219 431.808594 L 892.578125 434.789062 C 892.851562 434.949219 893.292969 434.9375 893.550781 434.789062 L 898.726562 431.800781 C 898.988281 431.652344 899.003906 431.398438 898.730469 431.234375 L 893.605469 428.257812 C 893.328125 428.097656 892.875 428.097656 892.613281 428.246094 Z M 887.4375 431.238281 " fill-opacity="1" fill-rule="nonzero"/><path fill="#5b5e71" d="M 878.191406 436.574219 C 877.933594 436.726562 877.929688 436.988281 878.207031 437.148438 L 883.332031 440.128906 C 883.605469 440.285156 884.046875 440.277344 884.304688 440.128906 L 889.464844 437.148438 C 889.742188 436.988281 889.761719 436.734375 889.484375 436.574219 L 884.359375 433.597656 C 884.085938 433.4375 883.628906 433.4375 883.355469 433.597656 Z M 878.191406 436.574219 " fill-opacity="1" fill-rule="nonzero"/><path fill="#5b5e71" d="M 939.8125 390.0625 C 939.554688 390.210938 939.550781 390.457031 939.8125 390.605469 L 942.039062 391.902344 C 942.300781 392.050781 942.722656 392.050781 942.980469 391.902344 L 947.945312 389.035156 C 948.207031 388.886719 948.210938 388.640625 947.949219 388.492188 L 945.71875 387.195312 C 945.460938 387.046875 945.039062 387.046875 944.777344 387.195312 Z M 939.8125 390.0625 " fill-opacity="1" fill-rule="nonzero"/><path fill="#5b5e71" d="M 948.703125 384.929688 C 948.4375 385.078125 948.4375 385.324219 948.699219 385.472656 L 950.929688 386.773438 C 951.1875 386.921875 951.609375 386.921875 951.871094 386.773438 L 956.832031 383.902344 C 957.09375 383.753906 957.097656 383.511719 956.835938 383.359375 L 954.605469 382.0625 C 954.347656 381.914062 953.925781 381.914062 953.664062 382.0625 Z M 948.703125 384.929688 " fill-opacity="1" fill-rule="nonzero"/><path fill="#5b5e71" d="M 957.585938 379.796875 C 957.328125 379.949219 957.324219 380.191406 957.585938 380.34375 L 959.816406 381.640625 C 960.074219 381.789062 960.496094 381.789062 960.757812 381.640625 L 963.257812 380.195312 C 963.519531 380.042969 963.523438 379.800781 963.261719 379.648438 L 961.03125 378.351562 C 960.773438 378.203125 960.351562 378.203125 960.089844 378.351562 Z M 957.585938 379.796875 " fill-opacity="1" fill-rule="nonzero"/><path fill="#5b5e71" d="M 975.363281 369.539062 C 975.101562 369.6875 975.097656 369.929688 975.359375 370.082031 L 977.589844 371.378906 C 977.847656 371.527344 978.269531 371.527344 978.53125 371.378906 L 983.480469 368.523438 C 983.757812 368.363281 983.757812 368.117188 983.5 367.964844 L 981.269531 366.671875 C 981.007812 366.519531 980.585938 366.519531 980.3125 366.679688 Z M 975.363281 369.539062 " fill-opacity="1" fill-rule="nonzero"/><path fill="#5b5e71" d="M 966.472656 374.667969 C 966.214844 374.816406 966.210938 375.0625 966.472656 375.214844 L 968.703125 376.511719 C 968.960938 376.660156 969.382812 376.660156 969.640625 376.511719 L 974.605469 373.644531 C 974.867188 373.492188 974.871094 373.25 974.609375 373.097656 L 972.378906 371.800781 C 972.121094 371.652344 971.695312 371.652344 971.4375 371.800781 Z M 966.472656 374.667969 " fill-opacity="1" fill-rule="nonzero"/><path fill="#5b5e71" d="M 984.25 364.40625 C 983.988281 364.554688 983.984375 364.800781 984.246094 364.953125 L 986.476562 366.246094 C 986.734375 366.398438 987.160156 366.398438 987.417969 366.246094 L 992.367188 363.390625 C 992.625 363.242188 992.628906 362.996094 992.367188 362.847656 L 990.140625 361.550781 C 989.878906 361.402344 989.457031 361.402344 989.199219 361.550781 Z M 984.25 364.40625 " fill-opacity="1" fill-rule="nonzero"/><path fill="#5b5e71" d="M 913.167969 405.441406 C 912.90625 405.59375 912.90625 405.835938 913.167969 405.988281 L 915.398438 407.285156 C 915.65625 407.433594 916.078125 407.433594 916.339844 407.285156 L 921.285156 404.425781 C 921.546875 404.277344 921.546875 404.035156 921.289062 403.882812 L 919.058594 402.585938 C 918.800781 402.4375 918.378906 402.4375 918.117188 402.585938 Z M 913.167969 405.441406 " fill-opacity="1" fill-rule="nonzero"/><path fill="#5b5e71" d="M 922.054688 400.3125 C 921.78125 400.472656 921.777344 400.714844 922.035156 400.867188 L 924.265625 402.164062 C 924.523438 402.3125 924.949219 402.3125 925.222656 402.152344 L 930.171875 399.296875 C 930.433594 399.148438 930.433594 398.902344 930.175781 398.75 L 927.945312 397.457031 C 927.683594 397.304688 927.261719 397.304688 927.003906 397.457031 Z M 922.054688 400.3125 " fill-opacity="1" fill-rule="nonzero"/><path fill="#5b5e71" d="M 930.925781 395.191406 C 930.664062 395.339844 930.664062 395.585938 930.921875 395.734375 L 933.152344 397.03125 C 933.414062 397.179688 933.835938 397.179688 934.09375 397.03125 L 939.058594 394.164062 C 939.320312 394.015625 939.320312 393.769531 939.0625 393.621094 L 936.832031 392.324219 C 936.570312 392.175781 936.148438 392.175781 935.890625 392.324219 Z M 930.925781 395.191406 " fill-opacity="1" fill-rule="nonzero"/><path fill="#5b5e71" d="M 886.507812 420.835938 C 886.246094 420.984375 886.246094 421.230469 886.503906 421.378906 L 888.734375 422.675781 C 888.996094 422.824219 889.417969 422.824219 889.675781 422.675781 L 894.640625 419.808594 C 894.898438 419.660156 894.902344 419.414062 894.640625 419.265625 L 892.414062 417.96875 C 892.152344 417.820312 891.730469 417.820312 891.472656 417.96875 Z M 886.507812 420.835938 " fill-opacity="1" fill-rule="nonzero"/><path fill="#5b5e71" d="M 895.394531 415.703125 C 895.132812 415.851562 895.132812 416.097656 895.390625 416.25 L 897.621094 417.546875 C 897.882812 417.695312 898.304688 417.695312 898.5625 417.546875 L 903.527344 414.679688 C 903.789062 414.527344 903.789062 414.285156 903.53125 414.132812 L 901.300781 412.835938 C 901.039062 412.6875 900.617188 412.6875 900.359375 412.835938 Z M 895.394531 415.703125 " fill-opacity="1" fill-rule="nonzero"/><path fill="#5b5e71" d="M 904.28125 410.574219 C 904.019531 410.722656 904.019531 410.96875 904.277344 411.121094 L 906.507812 412.414062 C 906.765625 412.566406 907.191406 412.566406 907.449219 412.414062 L 912.398438 409.558594 C 912.660156 409.410156 912.660156 409.164062 912.402344 409.011719 L 910.171875 407.714844 C 909.910156 407.566406 909.488281 407.566406 909.230469 407.714844 Z M 904.28125 410.574219 " fill-opacity="1" fill-rule="nonzero"/><path fill="#5b5e71" d="M 877.621094 425.964844 C 877.359375 426.113281 877.355469 426.359375 877.617188 426.511719 L 879.847656 427.808594 C 880.105469 427.957031 880.53125 427.957031 880.789062 427.808594 L 885.753906 424.9375 C 886.015625 424.789062 886.015625 424.546875 885.757812 424.394531 L 883.523438 423.097656 C 883.265625 422.949219 882.84375 422.949219 882.582031 423.097656 Z M 877.621094 425.964844 " fill-opacity="1" fill-rule="nonzero"/><path fill="#5b5e71" d="M 868.734375 431.097656 C 868.472656 431.246094 868.472656 431.492188 868.730469 431.640625 L 870.960938 432.9375 C 871.222656 433.085938 871.644531 433.085938 871.902344 432.9375 L 876.867188 430.070312 C 877.128906 429.921875 877.128906 429.675781 876.871094 429.527344 L 874.636719 428.230469 C 874.378906 428.082031 873.957031 428.082031 873.699219 428.230469 Z M 868.734375 431.097656 " fill-opacity="1" fill-rule="nonzero"/><path fill="#bac1ce" d="M 870.144531 444.765625 L 870.132812 446.003906 L 876.867188 449.890625 L 876.878906 448.648438 Z M 870.144531 444.765625 " fill-opacity="1" fill-rule="nonzero"/><path fill="#bac1ce" d="M 863.695312 441.039062 L 863.683594 442.277344 L 867.472656 444.464844 L 867.484375 443.226562 Z M 863.695312 441.039062 " fill-opacity="1" fill-rule="nonzero"/><path fill="#ffffff" d="M 930.453125 304.386719 C 940.464844 298.605469 948.597656 303.242188 948.628906 314.742188 C 948.632812 316.011719 948.550781 317.304688 948.332031 318.675781 C 956.308594 315.035156 962.605469 319.257812 962.632812 328.726562 C 962.664062 338.882812 955.503906 351.25 946.691406 356.339844 L 897.246094 384.886719 C 890.378906 388.851562 884.769531 385.65625 884.746094 377.761719 C 884.730469 372 887.675781 365.289062 891.957031 360.554688 C 891.777344 359.464844 891.640625 358.324219 891.636719 357.027344 C 891.609375 346.976562 898.722656 334.683594 907.46875 329.632812 C 909.65625 328.371094 911.757812 327.664062 913.636719 327.519531 C 916.222656 318.167969 922.789062 308.808594 930.453125 304.386719 Z M 930.453125 304.386719 " fill-opacity="1" fill-rule="nonzero"/><g clip-path="url(#f4a890ffc4)"><path fill="#416e84" d="M 442.460938 638.6875 C 441.824219 638.6875 441.183594 638.523438 440.589844 638.183594 L 365.375 594.148438 C 364.25 593.484375 363.554688 592.277344 363.550781 590.964844 L 363.367188 528.003906 C 363.359375 526.683594 364.070312 525.457031 365.21875 524.800781 L 580.316406 400.617188 L 579.964844 275.378906 C 579.957031 273.34375 581.609375 271.6875 583.652344 271.679688 L 583.660156 271.679688 C 585.695312 271.679688 587.347656 273.324219 587.355469 275.367188 L 587.714844 402.738281 C 587.722656 404.058594 587.015625 405.285156 585.867188 405.941406 L 370.765625 530.125 L 370.929688 588.835938 L 444.328125 631.804688 C 446.089844 632.835938 446.679688 635.101562 445.648438 636.863281 C 444.964844 638.03125 443.722656 638.6875 442.460938 638.6875 Z M 442.460938 638.6875 " fill-opacity="1" fill-rule="nonzero"/></g><path fill="#525566" d="M 376.921875 643.382812 L 376.921875 652.796875 C 376.921875 653.953125 377.671875 655.105469 379.230469 655.972656 L 505.882812 729.601562 C 508.941406 731.390625 513.96875 731.390625 517.027344 729.601562 L 589.738281 687.617188 C 591.296875 686.695312 592.105469 685.539062 592.105469 684.328125 L 592.046875 674.914062 C 592.046875 676.128906 591.296875 677.28125 589.738281 678.207031 L 517.027344 720.191406 C 513.910156 721.980469 508.941406 721.980469 505.882812 720.191406 L 379.171875 646.558594 C 377.671875 645.695312 376.921875 644.539062 376.921875 643.382812 Z M 376.921875 643.382812 " fill-opacity="1" fill-rule="nonzero"/><path fill="#5b5e71" d="M 379.25 640.101562 C 376.152344 641.890625 376.136719 644.785156 379.175781 646.550781 L 505.855469 720.164062 C 508.929688 721.953125 513.929688 721.953125 517.027344 720.164062 L 589.742188 678.1875 C 592.839844 676.398438 592.855469 673.503906 589.777344 671.714844 L 463.097656 598.101562 C 460.058594 596.335938 455.058594 596.335938 451.964844 598.125 Z M 379.25 640.101562 " fill-opacity="1" fill-rule="nonzero"/><path fill="#525566" d="M 542.699219 692.734375 C 540.929688 693.757812 540.917969 695.460938 542.714844 696.503906 C 544.472656 697.527344 547.375 697.503906 549.148438 696.480469 C 550.953125 695.441406 550.964844 693.777344 549.203125 692.757812 C 547.410156 691.714844 544.507812 691.691406 542.699219 692.734375 Z M 542.699219 692.734375 " fill-opacity="1" fill-rule="nonzero"/><path fill="#525566" d="M 419.503906 621.144531 C 418.285156 621.847656 418.28125 622.953125 419.488281 623.65625 C 420.695312 624.359375 422.605469 624.359375 423.824219 623.65625 C 425.042969 622.953125 425.046875 621.847656 423.839844 621.144531 C 422.632812 620.441406 420.71875 620.441406 419.503906 621.144531 Z M 419.503906 621.144531 " fill-opacity="1" fill-rule="nonzero"/><path fill="#525566" d="M 514.300781 710.617188 C 513.230469 711.234375 513.222656 712.253906 514.285156 712.875 C 515.382812 713.511719 517.113281 713.492188 518.179688 712.875 L 524.890625 709 C 525.960938 708.378906 526.003906 707.382812 524.902344 706.742188 C 523.84375 706.125 522.078125 706.125 521.007812 706.742188 Z M 514.300781 710.617188 " fill-opacity="1" fill-rule="nonzero"/><path fill="#525566" d="M 566.140625 680.683594 C 565.074219 681.304688 565.066406 682.324219 566.128906 682.941406 C 567.226562 683.582031 568.953125 683.558594 570.023438 682.941406 L 576.734375 679.066406 C 577.804688 678.449219 577.847656 677.449219 576.746094 676.8125 C 575.683594 676.195312 573.921875 676.195312 572.851562 676.8125 Z M 566.140625 680.683594 " fill-opacity="1" fill-rule="nonzero"/><path fill="#9ad898" d="M 391.429688 646.09375 L 503.085938 710.976562 L 574.363281 669.828125 L 462.703125 604.945312 Z M 391.429688 646.09375 " fill-opacity="1" fill-rule="nonzero"/><path fill="#cad0dd" d="M 797.648438 99.582031 C 786.699219 93.160156 771.519531 94.039062 754.734375 103.820312 L 751.960938 105.570312 L 718.242188 85.863281 L 721.011719 84.113281 C 737.800781 74.480469 763.054688 79.441406 774.148438 85.863281 Z M 797.648438 99.582031 " fill-opacity="1" fill-rule="nonzero"/><path fill="#bac1ce" d="M 713.75 40.085938 L 737.335938 53.792969 C 727.332031 47.976562 713.484375 48.78125 698.152344 57.632812 C 690.9375 61.800781 683.972656 67.367188 677.625 73.988281 L 654.039062 60.28125 C 660.386719 53.660156 667.351562 48.09375 674.566406 43.929688 C 689.898438 35.078125 703.746094 34.273438 713.75 40.085938 Z M 713.75 40.085938 " fill-opacity="1" fill-rule="nonzero"/><path fill="#cad0dd" d="M 662.917969 54.628906 C 651.96875 48.351562 636.789062 49.226562 619.859375 58.863281 C 593.4375 74.191406 571.105469 106.738281 563.078125 138.558594 L 539.511719 124.898438 C 547.542969 93.078125 569.875 60.382812 596.292969 45.203125 C 613.078125 35.425781 628.40625 34.546875 639.351562 40.96875 Z M 662.917969 54.628906 " fill-opacity="1" fill-rule="nonzero"/><path fill="#cad0dd" d="M 446.523438 400.277344 L 422.9375 386.570312 C 412.078125 380.261719 405.351562 366.820312 405.296875 347.679688 C 405.1875 309.472656 432.117188 262.691406 465.492188 243.421875 C 466.839844 242.644531 468.0625 241.941406 469.40625 241.304688 L 492.992188 255.011719 C 491.648438 255.644531 490.421875 256.351562 489.078125 257.128906 C 455.703125 276.394531 428.777344 323.179688 428.882812 361.386719 C 428.9375 380.527344 435.667969 393.96875 446.523438 400.277344 Z M 446.523438 400.277344 " fill-opacity="1" fill-rule="nonzero"/><path fill="#bac1ce" d="M 492.992188 255.011719 L 469.40625 241.304688 C 468.292969 237.023438 467.664062 232.320312 467.652344 226.984375 C 467.554688 192.003906 492.289062 149.164062 522.484375 131.730469 C 528.476562 128.269531 534.226562 126.078125 539.484375 124.871094 L 563.070312 138.574219 C 557.808594 139.785156 552.0625 141.976562 546.070312 145.433594 C 515.875 162.867188 491.140625 205.710938 491.238281 240.6875 C 491.253906 246.027344 491.878906 250.730469 492.992188 255.011719 Z M 492.992188 255.011719 " fill-opacity="1" fill-rule="nonzero"/><path fill="#e4e8f4" d="M 815.308594 138.261719 C 815.453125 176.796875 788.453125 223.359375 755.171875 242.625 L 489.511719 396.027344 C 456.082031 415.296875 428.933594 399.824219 428.933594 361.4375 C 428.785156 323.195312 455.648438 276.339844 489.074219 257.074219 C 490.386719 256.34375 491.699219 255.617188 493.015625 255.03125 C 491.847656 250.796875 491.261719 245.984375 491.261719 240.726562 C 491.117188 205.695312 515.929688 162.929688 546 145.414062 C 552.132812 141.910156 557.824219 139.722656 563.078125 138.554688 C 571.109375 106.734375 593.441406 74.1875 619.859375 58.863281 C 646.863281 43.242188 669.78125 50.542969 677.664062 74.039062 C 683.941406 67.328125 690.945312 61.78125 698.101562 57.695312 C 728.75 40.03125 753.421875 54.335938 753.421875 89.367188 C 753.421875 94.621094 752.839844 100.019531 751.960938 105.570312 L 754.738281 103.820312 C 788.15625 84.550781 815.160156 100.023438 815.308594 138.261719 Z M 815.308594 138.261719 " fill-opacity="1" fill-rule="nonzero"/><path fill="#4c7891" d="M 627.28125 218.097656 L 610.882812 229.84375 C 610.070312 233.222656 608.917969 236.640625 607.488281 240.140625 L 618.125 249.257812 L 605.386719 271.242188 L 591.410156 266.726562 C 589.429688 269.046875 587.246094 271.253906 584.992188 273.183594 L 582.933594 294.902344 L 565.027344 305.238281 L 562.851562 285.96875 C 560.664062 286.601562 558.40625 286.960938 556.351562 286.96875 L 542.445312 307.582031 L 529.691406 300.3125 L 540.171875 279 C 538.730469 277.160156 537.628906 275.042969 536.800781 272.613281 L 520.324219 279.84375 L 520.265625 259.1875 L 535.570312 248.230469 C 536.242188 244.300781 537.324219 240.21875 538.820312 236.128906 L 529.488281 227.988281 L 542.15625 206.042969 L 553.324219 209.742188 C 556.324219 205.886719 559.667969 202.226562 563.085938 199.230469 L 564.679688 182.34375 L 582.585938 172.007812 L 584.273438 187 C 587.761719 186.007812 591.113281 185.800781 594.058594 186.226562 L 605.101562 169.703125 L 617.925781 176.933594 L 608.667969 195.804688 C 610.113281 198.195312 611.214844 201.019531 611.976562 204.117188 L 627.222656 197.441406 Z M 573.894531 269.839844 C 588.863281 261.199219 600.988281 240.199219 600.9375 223 C 600.890625 205.800781 588.6875 198.847656 573.71875 207.488281 C 558.75 216.128906 546.625 237.128906 546.675781 254.328125 C 546.722656 271.523438 558.925781 278.480469 573.894531 269.839844 " fill-opacity="1" fill-rule="nonzero"/><path fill="#f9607f" d="M 695.332031 123.90625 L 682.621094 132.03125 C 681.875 134.582031 680.925781 137.257812 679.699219 139.929688 L 687.183594 147.960938 L 676.757812 164.4375 L 666.546875 159.875 C 664.976562 161.644531 663.199219 163.300781 661.492188 164.601562 L 659.007812 181.6875 L 645.269531 188.597656 L 644.472656 173.171875 C 642.761719 173.527344 641.121094 173.613281 639.613281 173.457031 L 628.292969 188.878906 L 619.171875 182.191406 L 627.816406 166.03125 C 626.855469 164.460938 626.164062 162.65625 625.609375 160.695312 L 613.027344 165.285156 L 613.871094 148.832031 L 625.761719 141.261719 C 626.4375 138.117188 627.386719 135.050781 628.679688 131.867188 L 622.085938 124.738281 L 632.445312 108.296875 L 640.667969 111.964844 C 642.988281 109.132812 645.652344 106.492188 648.316406 104.328125 L 650.261719 91.011719 L 664.070312 84.0625 L 664.652344 96.074219 C 667.25 95.597656 669.78125 95.628906 671.976562 96.171875 L 680.910156 83.855469 L 690.167969 90.46875 L 682.472656 104.820312 C 683.441406 106.859375 684.128906 109.132812 684.546875 111.644531 L 696.242188 107.410156 Z M 675.484375 125.925781 C 676.199219 112.21875 667.417969 105.882812 655.933594 111.648438 C 655.46875 111.882812 655.007812 112.132812 654.550781 112.394531 C 643.601562 118.714844 634.46875 133.773438 633.785156 146.851562 C 633.070312 160.558594 641.851562 166.894531 653.335938 161.128906 C 653.800781 160.894531 654.261719 160.644531 654.71875 160.382812 C 665.667969 154.0625 674.800781 139.003906 675.484375 125.925781 " fill-opacity="1" fill-rule="nonzero"/><path fill="#bac1ce" d="M 699.53125 229.789062 L 686.824219 237.996094 C 686.078125 240.550781 685.058594 243.261719 683.902344 245.816406 L 691.386719 253.921875 L 680.960938 270.402344 L 670.679688 265.875 C 669.175781 267.53125 667.402344 269.183594 665.695312 270.5625 L 663.210938 287.652344 L 649.402344 294.597656 L 648.605469 279.171875 C 646.960938 279.488281 645.320312 279.570312 643.746094 279.457031 L 632.492188 294.84375 L 623.371094 288.15625 L 632.019531 271.992188 C 631.054688 270.425781 630.296875 268.660156 629.8125 266.660156 L 617.230469 271.25 L 618.074219 254.792969 L 629.964844 247.222656 C 630.640625 244.082031 631.589844 241.015625 632.882812 237.832031 L 626.289062 230.703125 L 636.644531 214.179688 L 644.804688 217.96875 C 647.191406 215.015625 649.851562 212.375 652.515625 210.289062 L 654.464844 196.894531 L 668.273438 189.945312 L 668.785156 202.074219 C 671.453125 201.558594 673.988281 201.511719 676.179688 202.132812 L 685.109375 189.820312 L 694.300781 196.46875 L 686.609375 210.820312 C 687.640625 212.742188 688.261719 215.058594 688.75 217.609375 L 700.375 213.414062 Z M 679.6875 231.808594 C 680.402344 218.183594 671.621094 211.769531 660.136719 217.535156 C 659.710938 217.75 659.289062 217.980469 658.871094 218.222656 C 647.871094 224.570312 638.675781 239.691406 637.988281 252.816406 C 637.273438 266.441406 646.054688 272.855469 657.539062 267.09375 C 658.003906 266.859375 658.464844 266.609375 658.921875 266.347656 C 669.871094 260.023438 679 244.964844 679.6875 231.808594 " fill-opacity="1" fill-rule="nonzero"/><path fill="#ffffff" d="M 460.574219 645 C 456.15625 647.550781 455.410156 651.324219 458.230469 654.226562 C 456.839844 654.609375 455.511719 655.097656 454.359375 655.761719 C 449.035156 658.835938 448.945312 663.832031 454.296875 666.945312 L 454.597656 667.050781 C 451.261719 670.089844 451.902344 674.105469 456.472656 676.761719 C 461.703125 679.800781 470.269531 679.800781 475.660156 676.691406 L 514.636719 654.1875 C 519.960938 651.113281 519.992188 646.152344 514.757812 643.113281 C 510.367188 640.5625 503.554688 640.109375 498.417969 641.820312 L 498.175781 641.613281 C 492.824219 638.5 484.320312 638.46875 478.992188 641.542969 C 477.839844 642.207031 477.054688 642.9375 476.445312 643.707031 C 471.390625 642.097656 464.871094 642.519531 460.574219 645 Z M 460.574219 645 " fill-opacity="1" fill-rule="nonzero"/><path fill="#bac1ce" d="M 645.828125 682.785156 L 916.542969 525.46875 C 915.011719 526.363281 914.058594 528.25 914.046875 530.929688 C 914.035156 536.320312 917.859375 542.945312 922.550781 545.652344 C 924.914062 547.019531 927.058594 547.140625 928.613281 546.234375 L 657.898438 703.550781 C 656.34375 704.453125 654.195312 704.332031 651.835938 702.96875 C 647.144531 700.261719 643.320312 693.632812 643.332031 688.242188 C 643.34375 685.566406 644.296875 683.675781 645.828125 682.785156 Z M 645.828125 682.785156 " fill-opacity="1" fill-rule="nonzero"/><path fill="#bac1ce" d="M 930.703125 549.832031 L 659.988281 707.144531 C 662.042969 705.953125 663.316406 703.40625 663.328125 699.785156 L 934.042969 542.46875 C 934.03125 546.09375 932.757812 548.636719 930.703125 549.832031 Z M 930.703125 549.832031 " fill-opacity="1" fill-rule="nonzero"/><path fill="#a6afbc" d="M 660.394531 698.09375 L 931.109375 540.777344 L 934.042969 542.46875 L 663.328125 699.785156 Z M 660.394531 698.09375 " fill-opacity="1" fill-rule="nonzero"/><g clip-path="url(#5bb861e444)"><path fill="#a6afbc" d="M 760.042969 741.914062 L 1030.757812 584.597656 L 1030.75 587.964844 L 760.03125 745.28125 Z M 760.042969 741.914062 " fill-opacity="1" fill-rule="nonzero"/></g><path fill="#d4dae8" d="M 1030.796875 584.628906 L 760.003906 741.9375 L 651.882812 680.035156 C 648.707031 678.113281 645.789062 677.949219 643.78125 679.199219 L 914.492188 521.890625 C 916.582031 520.640625 919.417969 520.804688 922.59375 522.644531 Z M 1030.796875 584.628906 " fill-opacity="1" fill-rule="nonzero"/><g clip-path="url(#b8af7b71e8)"><path fill="#cad0dd" d="M 760.042969 741.914062 L 760.035156 745.28125 L 651.890625 683.367188 C 647.199219 680.660156 643.347656 682.851562 643.332031 688.242188 C 643.316406 693.632812 647.144531 700.257812 651.835938 702.96875 C 656.527344 705.679688 660.378906 703.484375 660.394531 698.09375 L 663.328125 699.785156 C 663.304688 707.074219 658.171875 710 651.828125 706.339844 C 645.484375 702.675781 640.382812 693.839844 640.40625 686.550781 C 640.425781 679.261719 645.558594 676.335938 651.902344 679.996094 Z M 760.042969 741.914062 " fill-opacity="1" fill-rule="nonzero"/></g><path fill="#bac1ce" d="M 696.820312 692.003906 L 696.875 692.78125 L 709.347656 700.027344 L 710.683594 700.058594 L 728.667969 689.679688 L 728.671875 688.871094 L 716.199219 681.625 L 714.804688 681.625 Z M 696.820312 692.003906 " fill-opacity="1" fill-rule="nonzero"/><path fill="#bac1ce" d="M 745.601562 720.621094 L 745.597656 721.429688 L 758.066406 728.675781 L 759.40625 728.644531 L 772.835938 720.890625 L 772.894531 720.117188 L 760.425781 712.871094 L 759.03125 712.871094 Z M 745.601562 720.621094 " fill-opacity="1" fill-rule="nonzero"/><path fill="#bac1ce" d="M 763.234375 710.441406 L 763.285156 711.21875 L 775.757812 718.464844 L 777.039062 718.464844 L 790.464844 710.714844 L 790.527344 709.9375 L 778.058594 702.691406 L 776.660156 702.691406 Z M 763.234375 710.441406 " fill-opacity="1" fill-rule="nonzero"/><path fill="#bac1ce" d="M 799.828125 670.367188 L 799.882812 671.140625 L 812.355469 678.386719 L 813.691406 678.421875 L 827.121094 670.667969 L 827.125 669.859375 L 814.652344 662.613281 L 813.257812 662.613281 Z M 799.828125 670.367188 " fill-opacity="1" fill-rule="nonzero"/><path fill="#bac1ce" d="M 904.460938 628.90625 L 904.457031 629.714844 L 916.925781 636.964844 L 918.265625 636.929688 L 931.695312 629.179688 L 931.757812 628.402344 L 919.285156 621.15625 L 917.890625 621.15625 Z M 904.460938 628.90625 " fill-opacity="1" fill-rule="nonzero"/><path fill="#bac1ce" d="M 905.734375 609.222656 L 905.789062 610 L 918.261719 617.246094 L 919.597656 617.28125 L 933.085938 609.492188 L 933.03125 608.71875 L 920.558594 601.46875 L 919.222656 601.4375 Z M 905.734375 609.222656 " fill-opacity="1" fill-rule="nonzero"/><path fill="#bac1ce" d="M 877.109375 587.921875 L 877.105469 588.726562 L 889.574219 595.976562 L 890.96875 595.976562 L 904.398438 588.222656 L 904.402344 587.417969 L 891.933594 580.167969 L 890.535156 580.167969 Z M 877.109375 587.921875 " fill-opacity="1" fill-rule="nonzero"/><path fill="#bac1ce" d="M 833.605469 594.15625 L 833.539062 594.929688 L 846.011719 602.179688 L 847.40625 602.179688 L 860.835938 594.425781 L 860.839844 593.617188 L 848.371094 586.371094 L 847.03125 586.40625 Z M 833.605469 594.15625 " fill-opacity="1" fill-rule="nonzero"/><path fill="#bac1ce" d="M 851 584.113281 L 850.996094 584.855469 L 863.46875 592.101562 L 864.804688 592.132812 L 878.234375 584.382812 L 878.238281 583.574219 L 865.765625 576.328125 L 864.429688 576.359375 Z M 851 584.113281 " fill-opacity="1" fill-rule="nonzero"/><path fill="#bac1ce" d="M 859.535156 598.066406 L 859.53125 598.875 L 872.003906 606.121094 L 873.398438 606.121094 L 886.828125 598.371094 L 886.832031 597.5625 L 874.359375 590.316406 L 872.964844 590.316406 Z M 859.535156 598.066406 " fill-opacity="1" fill-rule="nonzero"/><path fill="#bac1ce" d="M 880.386719 604.972656 L 880.382812 605.714844 L 892.914062 612.996094 L 894.191406 612.996094 L 907.679688 605.210938 L 907.683594 604.46875 L 895.152344 597.1875 L 893.875 597.1875 Z M 880.386719 604.972656 " fill-opacity="1" fill-rule="nonzero"/><path fill="#bac1ce" d="M 827.550781 635.480469 L 827.546875 636.222656 L 840.078125 643.503906 L 841.355469 643.503906 L 854.785156 635.75 L 854.847656 634.976562 L 842.316406 627.695312 L 840.980469 627.730469 Z M 827.550781 635.480469 " fill-opacity="1" fill-rule="nonzero"/><path fill="#bac1ce" d="M 770.9375 613.46875 L 770.933594 614.277344 L 779.746094 619.402344 L 781.144531 619.402344 L 792.179688 613.03125 L 792.125 612.253906 L 783.308594 607.132812 L 781.96875 607.097656 Z M 770.9375 613.46875 " fill-opacity="1" fill-rule="nonzero"/><path fill="#bac1ce" d="M 755.933594 622.132812 L 755.925781 622.941406 L 764.742188 628.066406 L 766.140625 628.066406 L 777.175781 621.691406 L 777.179688 620.886719 L 768.363281 615.761719 L 766.964844 615.761719 Z M 755.933594 622.132812 " fill-opacity="1" fill-rule="nonzero"/><path fill="#bac1ce" d="M 798.75 614.277344 L 798.683594 615.054688 L 811.15625 622.300781 L 812.550781 622.300781 L 825.980469 614.550781 L 825.925781 613.773438 L 813.457031 606.527344 L 812.175781 606.527344 Z M 798.75 614.277344 " fill-opacity="1" fill-rule="nonzero"/><path fill="#bac1ce" d="M 781.292969 624.355469 L 781.230469 625.132812 L 793.699219 632.378906 L 795.097656 632.378906 L 808.523438 624.628906 L 808.527344 623.816406 L 796.058594 616.570312 L 794.71875 616.605469 Z M 781.292969 624.355469 " fill-opacity="1" fill-rule="nonzero"/><path fill="#bac1ce" d="M 763.894531 634.398438 L 763.832031 635.175781 L 776.300781 642.421875 L 777.695312 642.421875 L 791.125 634.671875 L 791.070312 633.894531 L 778.601562 626.648438 L 777.324219 626.648438 Z M 763.894531 634.398438 " fill-opacity="1" fill-rule="nonzero"/><path fill="#bac1ce" d="M 789.300781 638.613281 L 789.351562 639.390625 L 801.824219 646.636719 L 803.160156 646.667969 L 816.589844 638.917969 L 816.59375 638.109375 L 804.125 630.863281 L 802.730469 630.863281 Z M 789.300781 638.613281 " fill-opacity="1" fill-rule="nonzero"/><path fill="#bac1ce" d="M 771.726562 648.757812 L 771.78125 649.535156 L 784.25 656.78125 L 785.589844 656.816406 L 799.074219 649.027344 L 799.023438 648.253906 L 786.550781 641.007812 L 785.214844 640.972656 Z M 771.726562 648.757812 " fill-opacity="1" fill-rule="nonzero"/><path fill="#bac1ce" d="M 806.875 628.46875 L 806.867188 629.277344 L 819.339844 636.523438 L 820.738281 636.523438 L 834.164062 628.773438 L 834.167969 627.964844 L 821.699219 620.71875 L 820.300781 620.71875 Z M 806.875 628.46875 " fill-opacity="1" fill-rule="nonzero"/><path fill="#bac1ce" d="M 922.441406 618.523438 L 922.4375 619.335938 L 934.910156 626.582031 L 936.246094 626.546875 L 949.675781 618.796875 L 949.679688 618.054688 L 937.210938 610.808594 L 935.871094 610.773438 Z M 922.441406 618.523438 " fill-opacity="1" fill-rule="nonzero"/><path fill="#bac1ce" d="M 905.859375 535.574219 L 905.855469 536.382812 L 914.671875 541.507812 L 916.066406 541.507812 L 927.101562 535.136719 L 927.046875 534.363281 L 918.230469 529.238281 L 916.894531 529.203125 Z M 905.859375 535.574219 " fill-opacity="1" fill-rule="nonzero"/><path fill="#bac1ce" d="M 890.855469 544.238281 L 890.851562 545.046875 L 899.667969 550.167969 L 901.0625 550.167969 L 912.097656 543.796875 L 912.101562 542.992188 L 903.285156 537.867188 L 901.890625 537.867188 Z M 890.855469 544.238281 " fill-opacity="1" fill-rule="nonzero"/><path fill="#bac1ce" d="M 875.851562 552.898438 L 875.90625 553.675781 L 884.722656 558.796875 L 886.058594 558.832031 L 897.09375 552.460938 L 897.097656 551.652344 L 888.28125 546.527344 L 886.886719 546.527344 Z M 875.851562 552.898438 " fill-opacity="1" fill-rule="nonzero"/><path fill="#bac1ce" d="M 903.3125 553.910156 L 903.25 554.6875 L 915.722656 561.933594 L 917.117188 561.933594 L 945.257812 545.6875 L 945.203125 544.910156 L 932.734375 537.664062 L 931.453125 537.664062 Z M 903.3125 553.910156 " fill-opacity="1" fill-rule="nonzero"/><path fill="#bac1ce" d="M 930.121094 557.316406 L 930.117188 558.125 L 942.585938 565.371094 L 943.984375 565.371094 L 961.671875 555.160156 L 961.621094 554.382812 L 949.148438 547.136719 L 947.8125 547.101562 Z M 930.121094 557.316406 " fill-opacity="1" fill-rule="nonzero"/><path fill="#bac1ce" d="M 885.855469 563.988281 L 885.851562 564.730469 L 898.320312 571.976562 L 899.660156 572.007812 L 913.148438 564.222656 L 913.09375 563.449219 L 900.621094 556.203125 L 899.34375 556.203125 Z M 885.855469 563.988281 " fill-opacity="1" fill-rule="nonzero"/><path fill="#bac1ce" d="M 912.195312 567.664062 L 912.25 568.4375 L 924.722656 575.683594 L 926.058594 575.71875 L 939.488281 567.964844 L 939.492188 567.15625 L 927.019531 559.910156 L 925.625 559.910156 Z M 912.195312 567.664062 " fill-opacity="1" fill-rule="nonzero"/><path fill="#bac1ce" d="M 868.457031 574.035156 L 868.394531 574.808594 L 880.867188 582.054688 L 882.261719 582.054688 L 895.691406 574.304688 L 895.695312 573.496094 L 883.222656 566.25 L 881.886719 566.28125 Z M 868.457031 574.035156 " fill-opacity="1" fill-rule="nonzero"/><path fill="#bac1ce" d="M 933.691406 574.203125 L 933.6875 574.945312 L 946.214844 582.226562 L 947.496094 582.226562 L 977.972656 564.632812 L 977.976562 563.890625 L 965.445312 556.609375 L 964.167969 556.609375 Z M 933.691406 574.203125 " fill-opacity="1" fill-rule="nonzero"/><path fill="#bac1ce" d="M 894.625 577.808594 L 894.675781 578.582031 L 907.148438 585.832031 L 908.484375 585.863281 L 921.972656 578.078125 L 921.917969 577.300781 L 909.445312 570.054688 L 908.109375 570.019531 Z M 894.625 577.808594 " fill-opacity="1" fill-rule="nonzero"/><path fill="#bac1ce" d="M 956.996094 579.628906 L 956.992188 580.4375 L 969.460938 587.6875 L 970.859375 587.6875 L 980.84375 581.921875 L 980.847656 581.113281 L 968.375 573.867188 L 966.980469 573.867188 Z M 956.996094 579.628906 " fill-opacity="1" fill-rule="nonzero"/><path fill="#bac1ce" d="M 915.652344 584.617188 L 915.589844 585.390625 L 928.117188 592.671875 L 929.457031 592.636719 L 942.882812 584.886719 L 942.945312 584.113281 L 930.417969 576.832031 L 929.082031 576.863281 Z M 915.652344 584.617188 " fill-opacity="1" fill-rule="nonzero"/><path fill="#bac1ce" d="M 973.351562 589.132812 L 973.347656 589.941406 L 985.820312 597.191406 L 987.160156 597.15625 L 997.140625 591.390625 L 997.203125 590.617188 L 984.734375 583.371094 L 983.335938 583.371094 Z M 973.351562 589.132812 " fill-opacity="1" fill-rule="nonzero"/><path fill="#bac1ce" d="M 938.371094 590.378906 L 938.425781 591.15625 L 950.898438 598.402344 L 952.234375 598.4375 L 967.296875 589.742188 L 967.300781 588.933594 L 954.832031 581.683594 L 953.433594 581.683594 Z M 938.371094 590.378906 " fill-opacity="1" fill-rule="nonzero"/><path fill="#bac1ce" d="M 898.019531 594.796875 L 898.015625 595.539062 L 910.542969 602.820312 L 911.824219 602.820312 L 925.253906 595.066406 L 925.316406 594.292969 L 912.785156 587.011719 L 911.449219 587.046875 Z M 898.019531 594.796875 " fill-opacity="1" fill-rule="nonzero"/><path fill="#bac1ce" d="M 959.808594 596.953125 L 959.804688 597.761719 L 972.273438 605.011719 L 973.613281 604.976562 L 983.597656 599.214844 L 983.660156 598.4375 L 971.1875 591.191406 L 969.792969 591.191406 Z M 959.808594 596.953125 " fill-opacity="1" fill-rule="nonzero"/><path fill="#bac1ce" d="M 923.484375 598.976562 L 923.539062 599.75 L 936.011719 607 L 937.347656 607.03125 L 947.566406 601.132812 L 947.570312 600.324219 L 935.097656 593.074219 L 933.703125 593.074219 Z M 923.484375 598.976562 " fill-opacity="1" fill-rule="nonzero"/><path fill="#bac1ce" d="M 940.542969 608.078125 L 940.539062 608.886719 L 953.007812 616.132812 L 954.347656 616.097656 L 969.410156 607.402344 L 969.414062 606.660156 L 956.941406 599.414062 L 955.605469 599.382812 Z M 940.542969 608.078125 " fill-opacity="1" fill-rule="nonzero"/><path fill="#bac1ce" d="M 860.84375 561.5625 L 860.898438 562.335938 L 869.714844 567.460938 L 871.054688 567.492188 L 882.089844 561.125 L 882.09375 560.316406 L 873.277344 555.191406 L 871.878906 555.191406 Z M 860.84375 561.5625 " fill-opacity="1" fill-rule="nonzero"/><path fill="#bac1ce" d="M 845.898438 570.191406 L 845.894531 571 L 854.710938 576.121094 L 856.105469 576.121094 L 867.140625 569.753906 L 867.089844 568.976562 L 858.273438 563.855469 L 856.933594 563.820312 Z M 845.898438 570.191406 " fill-opacity="1" fill-rule="nonzero"/><path fill="#bac1ce" d="M 830.894531 578.855469 L 830.890625 579.660156 L 839.707031 584.785156 L 841.101562 584.785156 L 852.136719 578.414062 L 852.140625 577.605469 L 843.328125 572.484375 L 841.929688 572.484375 Z M 830.894531 578.855469 " fill-opacity="1" fill-rule="nonzero"/><path fill="#bac1ce" d="M 815.890625 587.515625 L 815.886719 588.324219 L 824.703125 593.449219 L 826.097656 593.449219 L 837.132812 587.078125 L 837.136719 586.269531 L 828.320312 581.144531 L 826.925781 581.144531 Z M 815.890625 587.515625 " fill-opacity="1" fill-rule="nonzero"/><path fill="#bac1ce" d="M 800.886719 596.179688 L 800.941406 596.953125 L 809.757812 602.078125 L 811.09375 602.109375 L 822.128906 595.738281 L 822.132812 594.929688 L 813.316406 589.808594 L 811.921875 589.808594 Z M 800.886719 596.179688 " fill-opacity="1" fill-rule="nonzero"/><path fill="#bac1ce" d="M 816.148438 604.234375 L 816.140625 604.976562 L 828.613281 612.222656 L 829.953125 612.257812 L 843.378906 604.503906 L 843.382812 603.695312 L 830.914062 596.449219 L 829.574219 596.480469 Z M 816.148438 604.234375 " fill-opacity="1" fill-rule="nonzero"/><path fill="#bac1ce" d="M 841.960938 608.210938 L 842.015625 608.988281 L 854.488281 616.234375 L 855.824219 616.265625 L 869.253906 608.515625 L 869.257812 607.707031 L 856.785156 600.460938 L 855.390625 600.460938 Z M 841.960938 608.210938 " fill-opacity="1" fill-rule="nonzero"/><path fill="#bac1ce" d="M 824.449219 618.324219 L 824.441406 619.128906 L 836.914062 626.378906 L 838.308594 626.378906 L 851.738281 618.625 L 851.683594 617.851562 L 839.214844 610.605469 L 837.875 610.570312 Z M 824.449219 618.324219 " fill-opacity="1" fill-rule="nonzero"/><path fill="#bac1ce" d="M 862.816406 615.121094 L 862.75 615.894531 L 875.28125 623.175781 L 876.617188 623.144531 L 890.046875 615.390625 L 890.050781 614.648438 L 877.523438 607.367188 L 876.242188 607.367188 Z M 862.816406 615.121094 " fill-opacity="1" fill-rule="nonzero"/><path fill="#bac1ce" d="M 888.105469 619.402344 L 888.101562 620.210938 L 900.570312 627.457031 L 901.964844 627.457031 L 915.394531 619.703125 L 915.398438 618.898438 L 902.929688 611.648438 L 901.535156 611.648438 Z M 888.105469 619.402344 " fill-opacity="1" fill-rule="nonzero"/><path fill="#bac1ce" d="M 845.183594 625.300781 L 845.121094 626.078125 L 857.648438 633.355469 L 858.988281 633.324219 L 872.414062 625.570312 L 872.476562 624.796875 L 859.949219 617.515625 L 858.609375 617.546875 Z M 845.183594 625.300781 " fill-opacity="1" fill-rule="nonzero"/><path fill="#bac1ce" d="M 870.472656 629.582031 L 870.46875 630.390625 L 882.9375 637.636719 L 884.335938 637.636719 L 897.765625 629.886719 L 897.769531 629.078125 L 885.296875 621.832031 L 883.902344 621.832031 Z M 870.472656 629.582031 " fill-opacity="1" fill-rule="nonzero"/><path fill="#bac1ce" d="M 852.78125 639.796875 L 852.835938 640.570312 L 865.308594 647.816406 L 866.644531 647.851562 L 880.132812 640.066406 L 880.078125 639.289062 L 867.605469 632.042969 L 866.269531 632.007812 Z M 852.78125 639.796875 " fill-opacity="1" fill-rule="nonzero"/><path fill="#bac1ce" d="M 835.152344 649.972656 L 835.144531 650.78125 L 847.617188 658.027344 L 849.011719 658.03125 L 862.441406 650.277344 L 862.445312 649.46875 L 849.976562 642.222656 L 848.578125 642.222656 Z M 835.152344 649.972656 " fill-opacity="1" fill-rule="nonzero"/><path fill="#bac1ce" d="M 809.976562 645.625 L 809.914062 646.398438 L 822.445312 653.679688 L 823.78125 653.648438 L 837.210938 645.894531 L 837.214844 645.152344 L 824.6875 637.875 L 823.40625 637.875 Z M 809.976562 645.625 " fill-opacity="1" fill-rule="nonzero"/><path fill="#bac1ce" d="M 792.347656 655.804688 L 792.285156 656.582031 L 804.8125 663.859375 L 806.148438 663.828125 L 819.578125 656.074219 L 819.640625 655.300781 L 807.113281 648.019531 L 805.773438 648.054688 Z M 792.347656 655.804688 " fill-opacity="1" fill-rule="nonzero"/><path fill="#bac1ce" d="M 710.976562 648.085938 L 710.972656 648.894531 L 719.789062 654.019531 L 721.183594 654.019531 L 732.21875 647.648438 L 732.164062 646.871094 L 723.347656 641.746094 L 722.011719 641.714844 Z M 710.976562 648.085938 " fill-opacity="1" fill-rule="nonzero"/><path fill="#bac1ce" d="M 740.925781 630.792969 L 740.980469 631.570312 L 749.796875 636.695312 L 751.132812 636.726562 L 762.167969 630.355469 L 762.171875 629.546875 L 753.355469 624.421875 L 751.960938 624.421875 Z M 740.925781 630.792969 " fill-opacity="1" fill-rule="nonzero"/><path fill="#bac1ce" d="M 725.921875 639.457031 L 725.976562 640.230469 L 734.792969 645.355469 L 736.128906 645.390625 L 747.164062 639.019531 L 747.167969 638.210938 L 738.351562 633.085938 L 736.957031 633.085938 Z M 725.921875 639.457031 " fill-opacity="1" fill-rule="nonzero"/><path fill="#bac1ce" d="M 746.4375 644.480469 L 746.375 645.253906 L 758.84375 652.5 L 760.242188 652.5 L 773.671875 644.75 L 773.675781 643.941406 L 761.203125 636.695312 L 759.867188 636.726562 Z M 746.4375 644.480469 " fill-opacity="1" fill-rule="nonzero"/><path fill="#bac1ce" d="M 695.972656 656.75 L 695.96875 657.558594 L 704.785156 662.679688 L 706.179688 662.679688 L 717.214844 656.308594 L 717.21875 655.5 L 708.402344 650.378906 L 707.007812 650.378906 Z M 695.972656 656.75 " fill-opacity="1" fill-rule="nonzero"/><path fill="#bac1ce" d="M 728.980469 654.558594 L 728.976562 655.300781 L 741.449219 662.546875 L 742.785156 662.578125 L 756.273438 654.792969 L 756.21875 654.019531 L 743.746094 646.773438 L 742.46875 646.773438 Z M 728.980469 654.558594 " fill-opacity="1" fill-rule="nonzero"/><path fill="#bac1ce" d="M 754.210938 658.871094 L 754.207031 659.679688 L 766.679688 666.925781 L 768.074219 666.925781 L 781.503906 659.175781 L 781.507812 658.367188 L 769.039062 651.121094 L 767.640625 651.121094 Z M 754.210938 658.871094 " fill-opacity="1" fill-rule="nonzero"/><path fill="#bac1ce" d="M 680.96875 665.410156 L 681.023438 666.1875 L 689.835938 671.308594 L 691.175781 671.34375 L 702.207031 664.972656 L 702.214844 664.164062 L 693.398438 659.039062 L 692.003906 659.039062 Z M 680.96875 665.410156 " fill-opacity="1" fill-rule="nonzero"/><path fill="#bac1ce" d="M 711.582031 664.601562 L 711.519531 665.375 L 723.988281 672.621094 L 725.386719 672.621094 L 738.8125 664.871094 L 738.820312 664.0625 L 726.347656 656.816406 L 725.011719 656.847656 Z M 711.582031 664.601562 " fill-opacity="1" fill-rule="nonzero"/><path fill="#bac1ce" d="M 774.714844 665.984375 L 774.652344 666.757812 L 787.179688 674.039062 L 788.519531 674.007812 L 801.949219 666.253906 L 802.011719 665.480469 L 789.480469 658.199219 L 788.140625 658.230469 Z M 774.714844 665.984375 " fill-opacity="1" fill-rule="nonzero"/><path fill="#bac1ce" d="M 736.636719 669.015625 L 736.632812 669.824219 L 749.105469 677.074219 L 750.5 677.074219 L 763.929688 669.320312 L 763.933594 668.511719 L 751.464844 661.265625 L 750.066406 661.265625 Z M 736.636719 669.015625 " fill-opacity="1" fill-rule="nonzero"/><path fill="#bac1ce" d="M 694.125 674.679688 L 694.121094 675.421875 L 706.59375 682.667969 L 707.929688 682.703125 L 721.417969 674.917969 L 721.363281 674.140625 L 708.890625 666.894531 L 707.613281 666.894531 Z M 694.125 674.679688 " fill-opacity="1" fill-rule="nonzero"/><path fill="#bac1ce" d="M 757.082031 676.164062 L 757.078125 676.90625 L 769.605469 684.183594 L 770.886719 684.183594 L 784.316406 676.433594 L 784.378906 675.65625 L 771.851562 668.375 L 770.511719 668.410156 Z M 757.082031 676.164062 " fill-opacity="1" fill-rule="nonzero"/><path fill="#bac1ce" d="M 719.066406 679.164062 L 719.121094 679.9375 L 731.589844 687.183594 L 732.929688 687.21875 L 746.414062 679.433594 L 746.363281 678.65625 L 733.890625 671.410156 L 732.550781 671.375 Z M 719.066406 679.164062 " fill-opacity="1" fill-rule="nonzero"/><path fill="#bac1ce" d="M 782.195312 680.546875 L 782.191406 681.351562 L 794.664062 688.601562 L 796.058594 688.601562 L 809.488281 680.847656 L 809.492188 680.039062 L 797.019531 672.792969 L 795.625 672.792969 Z M 782.195312 680.546875 " fill-opacity="1" fill-rule="nonzero"/><path fill="#bac1ce" d="M 739.507812 686.308594 L 739.445312 687.085938 L 751.976562 694.363281 L 753.3125 694.332031 L 766.742188 686.578125 L 766.746094 685.835938 L 754.21875 678.554688 L 752.9375 678.554688 Z M 739.507812 686.308594 " fill-opacity="1" fill-rule="nonzero"/><path fill="#bac1ce" d="M 764.566406 690.722656 L 764.5625 691.53125 L 777.03125 698.78125 L 778.429688 698.78125 L 791.855469 691.027344 L 791.800781 690.25 L 779.332031 683.003906 L 777.996094 682.972656 Z M 764.566406 690.722656 " fill-opacity="1" fill-rule="nonzero"/><path fill="#bac1ce" d="M 713.296875 701.441406 L 713.230469 702.21875 L 725.761719 709.496094 L 727.101562 709.464844 L 749.285156 696.65625 L 749.347656 695.882812 L 736.820312 688.601562 L 735.480469 688.632812 Z M 713.296875 701.441406 " fill-opacity="1" fill-rule="nonzero"/><path fill="#bac1ce" d="M 729.59375 710.914062 L 729.589844 711.722656 L 742.058594 718.96875 L 743.457031 718.96875 L 774.046875 701.308594 L 774.050781 700.5 L 761.582031 693.253906 L 760.183594 693.253906 Z M 729.59375 710.914062 " fill-opacity="1" fill-rule="nonzero"/><path fill="#bac1ce" d="M 665.964844 674.074219 L 666.015625 674.847656 L 674.832031 679.972656 L 676.171875 680.007812 L 687.203125 673.632812 L 687.210938 672.828125 L 678.394531 667.703125 L 677 667.703125 Z M 665.964844 674.074219 " fill-opacity="1" fill-rule="nonzero"/><path fill="#bac1ce" d="M 680.523438 682.53125 L 680.515625 683.273438 L 692.988281 690.523438 L 694.324219 690.554688 L 703.550781 685.230469 L 703.554688 684.421875 L 691.082031 677.175781 L 689.746094 677.207031 Z M 680.523438 682.53125 " fill-opacity="1" fill-rule="nonzero"/><path fill="#bac1ce" d="M 798.554688 690.050781 L 798.550781 690.859375 L 811.019531 698.105469 L 812.359375 698.070312 L 825.789062 690.320312 L 825.847656 689.542969 L 813.378906 682.296875 L 811.984375 682.296875 Z M 798.554688 690.050781 " fill-opacity="1" fill-rule="nonzero"/><path fill="#bac1ce" d="M 780.921875 700.230469 L 780.917969 701.039062 L 793.386719 708.285156 L 794.726562 708.253906 L 808.15625 700.5 L 808.160156 699.757812 L 795.6875 692.511719 L 794.351562 692.480469 Z M 780.921875 700.230469 " fill-opacity="1" fill-rule="nonzero"/><path fill="#bac1ce" d="M 817.519531 660.152344 L 817.515625 660.960938 L 829.988281 668.207031 L 831.382812 668.207031 L 844.808594 660.457031 L 844.757812 659.679688 L 832.285156 652.433594 L 830.949219 652.402344 Z M 817.519531 660.152344 " fill-opacity="1" fill-rule="nonzero"/><path fill="#bac1ce" d="M 815.484375 680.277344 L 815.480469 681.085938 L 827.953125 688.332031 L 829.289062 688.296875 L 914.0625 639.355469 L 914.125 638.582031 L 901.652344 631.335938 L 900.257812 631.335938 Z M 815.484375 680.277344 " fill-opacity="1" fill-rule="nonzero"/><path fill="#bac1ce" d="M 986.78125 581.382812 L 986.835938 582.15625 L 999.308594 589.40625 L 1000.585938 589.40625 L 1010.628906 583.609375 L 1010.632812 582.867188 L 998.160156 575.617188 L 996.824219 575.585938 Z M 986.78125 581.382812 " fill-opacity="1" fill-rule="nonzero"/><path fill="#bac1ce" d="M 970.425781 571.875 L 970.480469 572.652344 L 982.949219 579.898438 L 984.289062 579.933594 L 994.328125 574.136719 L 994.277344 573.359375 L 981.804688 566.113281 L 980.46875 566.078125 Z M 970.425781 571.875 " fill-opacity="1" fill-rule="nonzero"/><path fill="#bac1ce" d="M 785.941406 604.804688 L 785.933594 605.617188 L 794.75 610.738281 L 796.148438 610.738281 L 807.183594 604.367188 L 807.128906 603.59375 L 798.3125 598.46875 L 796.972656 598.4375 Z M 785.941406 604.804688 " fill-opacity="1" fill-rule="nonzero"/></svg>