<svg xmlns="http://www.w3.org/2000/svg" xmlns:xlink="http://www.w3.org/1999/xlink" width="1920" zoomAndPan="magnify" viewBox="0 0 1440 809.999993" height="1080" preserveAspectRatio="xMidYMid meet" version="1.0"><defs><clipPath id="93fdd85e86"><path d="M 544 492 L 640 492 L 640 688.90625 L 544 688.90625 Z M 544 492 " clip-rule="nonzero"/></clipPath><clipPath id="90acf6b4ff"><path d="M 844 493 L 940 493 L 940 688.90625 L 844 688.90625 Z M 844 493 " clip-rule="nonzero"/></clipPath><clipPath id="cd2f72cc88"><path d="M 387 501 L 494 501 L 494 688.90625 L 387 688.90625 Z M 387 501 " clip-rule="nonzero"/></clipPath><clipPath id="6d18ec7881"><path d="M 493 580 L 580 580 L 580 688.90625 L 493 688.90625 Z M 493 580 " clip-rule="nonzero"/></clipPath></defs><path fill="#293764" d="M 916.105469 311.425781 L 930.09375 317.878906 L 935.011719 308.652344 L 920.546875 301.90625 Z M 916.105469 311.425781 " fill-opacity="1" fill-rule="nonzero"/><path fill="#ffffff" d="M 912.144531 307.585938 L 936.21875 319.4375 L 894.894531 410.320312 L 869.695312 398.589844 Z M 912.144531 307.585938 " fill-opacity="1" fill-rule="nonzero"/><path fill="#dae8f5" d="M 882.910156 455.347656 L 903.574219 455.347656 L 903.574219 475.179688 L 882.910156 475.179688 Z M 882.910156 455.347656 " fill-opacity="1" fill-rule="nonzero"/><path fill="#293764" d="M 868.863281 477.65625 C 868.863281 475.375 870.710938 473.523438 872.996094 473.523438 L 913.492188 473.523438 C 915.773438 473.523438 917.625 475.375 917.625 477.65625 L 917.625 486.746094 L 868.863281 486.746094 Z M 868.863281 477.65625 " fill-opacity="1" fill-rule="nonzero"/><path fill="#293764" d="M 843.242188 446.898438 L 843.242188 444.609375 L 917.625 437.171875 C 942.421875 420.234375 944.074219 385.121094 927.957031 368.597656 L 937.875 354.550781 C 987.050781 399.578125 928.371094 490.050781 861.421875 452.867188 L 849.210938 452.867188 C 845.914062 452.867188 843.242188 450.199219 843.242188 446.898438 Z M 843.242188 446.898438 " fill-opacity="1" fill-rule="nonzero"/><path fill="#677cb5" d="M 852.332031 486.746094 C 852.332031 484.007812 854.550781 481.789062 857.292969 481.789062 L 928.367188 481.789062 C 931.109375 481.789062 933.328125 484.007812 933.328125 486.746094 L 933.328125 492.53125 L 852.332031 492.53125 Z M 852.332031 486.746094 " fill-opacity="1" fill-rule="nonzero"/><path fill="#dae8f5" d="M 841.589844 444.609375 L 918.449219 444.609375 C 919.363281 444.609375 920.105469 443.871094 920.105469 442.957031 L 920.105469 440.476562 L 839.933594 440.476562 L 839.933594 442.957031 C 839.933594 443.871094 840.675781 444.609375 841.589844 444.609375 Z M 841.589844 444.609375 " fill-opacity="1" fill-rule="nonzero"/><path fill="#677cb5" d="M 938.285156 354.550781 C 938.285156 363.222656 931.253906 370.25 922.582031 370.25 C 913.910156 370.25 906.878906 363.222656 906.878906 354.550781 C 906.878906 345.882812 913.910156 338.855469 922.582031 338.855469 C 931.253906 338.855469 938.285156 345.882812 938.285156 354.550781 Z M 938.285156 354.550781 " fill-opacity="1" fill-rule="nonzero"/><path fill="#293764" d="M 932.503906 354.550781 C 932.503906 360.027344 928.0625 364.464844 922.582031 364.464844 C 917.105469 364.464844 912.664062 360.027344 912.664062 354.550781 C 912.664062 349.074219 917.105469 344.636719 922.582031 344.636719 C 928.0625 344.636719 932.503906 349.074219 932.503906 354.550781 Z M 932.503906 354.550781 " fill-opacity="1" fill-rule="nonzero"/><path fill="#677cb5" d="M 870.144531 408.195312 L 875.625 410.695312 L 879.398438 403.117188 L 873.742188 400.476562 Z M 870.144531 408.195312 " fill-opacity="1" fill-rule="nonzero"/><path fill="#677cb5" d="M 882.542969 413.976562 L 888.019531 416.476562 L 891.796875 408.898438 L 886.140625 406.261719 Z M 882.542969 413.976562 " fill-opacity="1" fill-rule="nonzero"/><path fill="#677cb5" d="M 918.449219 436.347656 L 841.589844 436.347656 C 840.675781 436.347656 839.933594 437.085938 839.933594 438 L 839.933594 440.476562 L 920.105469 440.476562 L 920.105469 438 C 920.105469 437.085938 919.363281 436.347656 918.449219 436.347656 Z M 918.449219 436.347656 " fill-opacity="1" fill-rule="nonzero"/><path fill="#251f4a" d="M 911.789062 306.578125 L 936.550781 318.769531 L 935.890625 320.109375 L 912.5 308.589844 L 870.6875 398.230469 L 895.210938 409.644531 L 894.582031 410.996094 L 868.703125 398.953125 Z M 911.789062 306.578125 " fill-opacity="1" fill-rule="evenodd"/><path fill="#293764" d="M 875.167969 377.433594 L 909.292969 393.339844 L 904.214844 404.234375 L 870.089844 388.324219 Z M 875.167969 377.433594 " fill-opacity="1" fill-rule="nonzero"/><g clip-path="url(#93fdd85e86)"><path fill="#677cb5" d="M 623.851562 688.460938 C 626.171875 625.101562 595.421875 554.449219 544.367188 492.214844 L 561.191406 492.214844 C 602.382812 544.917969 641.835938 613.886719 638.933594 688.460938 Z M 623.851562 688.460938 " fill-opacity="1" fill-rule="nonzero"/></g><g clip-path="url(#90acf6b4ff)"><path fill="#677cb5" d="M 860.125 688.460938 C 857.804688 625.101562 888.554688 555.941406 939.605469 493.707031 L 922.78125 493.707031 C 881.59375 546.410156 842.140625 613.886719 845.042969 688.460938 Z M 860.125 688.460938 " fill-opacity="1" fill-rule="nonzero"/></g><path fill="#293764" d="M 522.902344 491.453125 L 960.34375 491.453125 L 960.34375 508.257812 L 522.902344 508.257812 Z M 522.902344 491.453125 " fill-opacity="1" fill-rule="nonzero"/><path fill="#fddd78" d="M 344.808594 597.5625 C 342.882812 602.574219 341.109375 612.789062 340.648438 626.210938 L 356.855469 626.210938 L 355.703125 589.804688 C 355.703125 586.75 357.3125 583.945312 358.507812 581.128906 C 360.019531 577.570312 359.648438 573.179688 356.855469 569.832031 C 356.183594 569.023438 355.742188 568.023438 355.816406 566.976562 L 356.835938 552.164062 C 356.929688 550.8125 355.855469 549.660156 354.5 549.660156 C 353.316406 549.660156 352.320312 550.542969 352.171875 551.714844 L 350.535156 564.8125 C 350.488281 565.175781 350.386719 565.53125 350.238281 565.867188 C 348.453125 569.929688 345.894531 577.332031 346.34375 582.140625 C 346.527344 584.09375 347.191406 586.03125 347.191406 587.996094 L 347.191406 589.859375 C 347.191406 592.355469 345.703125 595.234375 344.808594 597.5625 Z M 344.808594 597.5625 " fill-opacity="1" fill-rule="nonzero"/><path fill="#251f4a" d="M 351.433594 551.621094 C 351.625 550.074219 352.941406 548.914062 354.5 548.914062 C 356.289062 548.914062 357.707031 550.429688 357.582031 552.21875 L 356.09375 552.113281 C 356.15625 551.191406 355.425781 550.40625 354.5 550.40625 C 353.695312 550.40625 353.015625 551.007812 352.914062 551.808594 L 351.277344 564.90625 C 351.222656 565.347656 351.097656 565.769531 350.925781 566.167969 C 350.042969 568.171875 348.96875 571.003906 348.175781 573.921875 C 347.375 576.855469 346.875 579.804688 347.089844 582.070312 C 347.164062 582.847656 347.316406 583.621094 347.476562 584.4375 C 347.507812 584.597656 347.539062 584.757812 347.570312 584.921875 C 347.761719 585.898438 347.941406 586.933594 347.941406 587.996094 L 347.941406 589.859375 C 347.941406 591.242188 347.53125 592.683594 347.039062 594.03125 C 346.789062 594.707031 346.515625 595.378906 346.25 596.015625 C 346.210938 596.101562 346.175781 596.1875 346.140625 596.273438 C 345.910156 596.820312 345.695312 597.335938 345.507812 597.828125 L 344.113281 597.296875 C 344.308594 596.78125 344.535156 596.238281 344.761719 595.695312 C 344.800781 595.609375 344.835938 595.523438 344.871094 595.441406 C 345.136719 594.804688 345.398438 594.160156 345.636719 593.515625 C 346.113281 592.21875 346.449219 590.972656 346.449219 589.859375 L 346.449219 587.996094 C 346.449219 587.089844 346.292969 586.175781 346.105469 585.203125 C 346.078125 585.054688 346.046875 584.902344 346.015625 584.75 C 345.855469 583.929688 345.683594 583.070312 345.601562 582.210938 C 345.363281 579.667969 345.921875 576.511719 346.734375 573.527344 C 347.550781 570.527344 348.652344 567.625 349.558594 565.570312 C 349.679688 565.292969 349.757812 565.007812 349.792969 564.722656 Z M 351.433594 551.621094 " fill-opacity="1" fill-rule="evenodd"/><path fill="#293764" d="M 338.03125 687.710938 L 366.828125 687.710938 L 373.839844 638.640625 L 331.015625 638.640625 Z M 338.03125 687.710938 " fill-opacity="1" fill-rule="nonzero"/><path fill="#fe5743" d="M 329.1875 601.726562 C 327.332031 608.707031 334.691406 615.417969 334.101562 624.25 L 350.464844 624.25 L 344.574219 609.855469 C 344.574219 606.199219 338.335938 608.78125 335.890625 595.964844 C 335.519531 594.027344 336.625 592.164062 337.148438 590.265625 C 337.78125 587.96875 336.316406 585.683594 334.761719 584.148438 C 333.988281 583.386719 333.46875 582.382812 333.347656 581.304688 C 332.910156 577.335938 331.113281 572.96875 329.726562 570.226562 C 329.265625 569.316406 328.160156 568.988281 327.25 569.445312 C 325.796875 570.171875 325.726562 572.574219 326.488281 574.007812 C 329.183594 579.058594 327.371094 588.78125 329.421875 596.957031 C 329.816406 598.519531 329.605469 600.171875 329.1875 601.726562 Z M 329.1875 601.726562 " fill-opacity="1" fill-rule="nonzero"/><path fill="#251f4a" d="M 326.914062 568.777344 C 328.167969 568.148438 329.734375 568.589844 330.390625 569.886719 C 331.792969 572.660156 333.636719 577.121094 334.089844 581.222656 C 334.191406 582.117188 334.625 582.964844 335.285156 583.617188 C 336.875 585.1875 338.617188 587.746094 337.867188 590.460938 C 337.726562 590.96875 337.550781 591.464844 337.378906 591.9375 C 337.355469 592.003906 337.332031 592.066406 337.3125 592.132812 C 337.160156 592.542969 337.019531 592.929688 336.898438 593.324219 C 336.613281 594.226562 336.472656 595.035156 336.625 595.824219 C 337.820312 602.089844 339.910156 604.46875 341.601562 605.75 C 342.039062 606.082031 342.460938 606.347656 342.863281 606.597656 C 342.90625 606.625 342.949219 606.648438 342.988281 606.675781 C 343.34375 606.890625 343.703125 607.113281 344.011719 607.351562 C 344.367188 607.617188 344.707031 607.9375 344.949219 608.359375 C 345.175781 608.753906 345.296875 609.195312 345.320312 609.699219 L 351.15625 623.964844 L 349.773438 624.53125 L 343.828125 610 L 343.828125 609.855469 C 343.828125 609.511719 343.757812 609.28125 343.65625 609.105469 C 343.546875 608.921875 343.378906 608.742188 343.109375 608.539062 C 342.863281 608.351562 342.566406 608.167969 342.199219 607.941406 C 342.160156 607.917969 342.121094 607.890625 342.078125 607.867188 C 341.667969 607.613281 341.195312 607.316406 340.699219 606.941406 C 338.660156 605.394531 336.410156 602.65625 335.15625 596.105469 C 334.9375 594.957031 335.164062 593.867188 335.472656 592.878906 C 335.605469 592.449219 335.761719 592.027344 335.910156 591.617188 C 335.933594 591.554688 335.953125 591.492188 335.976562 591.429688 C 336.148438 590.957031 336.304688 590.511719 336.429688 590.066406 C 336.945312 588.191406 335.757812 586.183594 334.238281 584.679688 C 333.355469 583.808594 332.746094 582.652344 332.605469 581.386719 C 332.183594 577.546875 330.433594 573.273438 329.058594 570.5625 C 328.796875 570.042969 328.148438 569.828125 327.582031 570.109375 Z M 326.914062 568.777344 " fill-opacity="1" fill-rule="evenodd"/><path fill="#fe5743" d="M 375.273438 606.523438 C 378.351562 614.421875 374.167969 621.488281 371.410156 624.25 L 358.675781 630.253906 L 350.464844 617.050781 C 351.605469 611.914062 359.226562 612.253906 363.761719 607.644531 C 365.117188 606.261719 365.464844 604.25 365.363281 602.320312 L 365.046875 596.308594 C 364.933594 594.171875 365.992188 592.140625 367.808594 591.003906 L 368.121094 590.808594 C 369.375 590.023438 370.230469 588.730469 370.457031 587.261719 L 371.085938 583.179688 C 371.28125 581.90625 372.238281 580.882812 373.496094 580.601562 C 375.449219 580.167969 377.300781 581.65625 377.300781 583.652344 L 377.300781 588.042969 C 377.300781 589.019531 376.910156 589.960938 376.21875 590.652344 L 375.664062 591.207031 C 374.617188 592.253906 374.027344 593.675781 374.027344 595.15625 L 374.027344 601.121094 C 374.027344 602.984375 374.597656 604.785156 375.273438 606.523438 Z M 375.273438 606.523438 " fill-opacity="1" fill-rule="nonzero"/><path fill="#251f4a" d="M 373.332031 579.875 C 375.753906 579.335938 378.046875 581.175781 378.046875 583.652344 L 378.046875 588.042969 L 376.554688 588.042969 L 376.554688 583.652344 C 376.554688 582.132812 375.144531 581 373.65625 581.332031 C 372.699219 581.542969 371.972656 582.324219 371.820312 583.292969 L 371.191406 587.378906 C 370.933594 589.058594 369.957031 590.542969 368.515625 591.441406 L 368.203125 591.636719 C 366.617188 592.628906 365.695312 594.402344 365.792969 596.273438 L 366.109375 602.28125 C 366.214844 604.296875 365.863281 606.566406 364.292969 608.167969 L 363.226562 607.121094 C 364.367188 605.960938 364.714844 604.207031 364.617188 602.359375 L 364.300781 596.347656 C 364.175781 593.9375 365.367188 591.648438 367.414062 590.371094 L 367.722656 590.175781 L 368.121094 590.808594 L 367.722656 590.175781 C 368.796875 589.507812 369.523438 588.402344 369.71875 587.152344 L 370.347656 583.066406 C 370.589844 581.488281 371.777344 580.21875 373.332031 579.875 Z M 373.332031 579.875 " fill-opacity="1" fill-rule="evenodd"/><path fill="#677cb5" d="M 375.992188 623.59375 L 328.867188 623.59375 L 331.015625 638.640625 L 373.839844 638.640625 Z M 375.992188 623.59375 " fill-opacity="1" fill-rule="nonzero"/><path fill="#251f4a" d="M 328.867188 622.847656 L 375.992188 622.847656 L 375.992188 624.339844 L 328.867188 624.339844 Z M 328.867188 622.847656 " fill-opacity="1" fill-rule="evenodd"/><path fill="#677cb5" d="M 375.289062 488.46875 L 507.945312 488.46875 L 507.945312 501.097656 L 375.289062 501.097656 Z M 375.289062 488.46875 " fill-opacity="1" fill-rule="nonzero"/><g clip-path="url(#cd2f72cc88)"><path fill="#293764" d="M 387.921875 688.964844 L 493.730469 688.964844 L 493.730469 501.097656 L 387.921875 501.097656 Z M 387.921875 688.964844 " fill-opacity="1" fill-rule="nonzero"/></g><g clip-path="url(#6d18ec7881)"><path fill="#293764" d="M 493.730469 580.035156 L 579.011719 580.035156 L 579.011719 688.964844 L 493.730469 688.964844 Z M 493.730469 580.035156 " fill-opacity="1" fill-rule="nonzero"/></g><path fill="#677cb5" d="M 500.046875 638.449219 L 572.695312 638.449219 L 572.695312 670.019531 L 500.046875 670.019531 Z M 500.046875 638.449219 " fill-opacity="1" fill-rule="nonzero"/><path fill="#ffffff" d="M 556.902344 645.550781 C 556.902344 646.863281 555.839844 647.921875 554.53125 647.921875 L 515.050781 647.921875 C 513.742188 647.921875 512.683594 646.863281 512.683594 645.550781 C 512.683594 644.246094 513.742188 643.183594 515.050781 643.183594 L 554.53125 643.183594 C 555.839844 643.183594 556.902344 644.246094 556.902344 645.550781 Z M 556.902344 645.550781 " fill-opacity="1" fill-rule="nonzero"/><path fill="#677cb5" d="M 500.046875 587.929688 L 572.695312 587.929688 L 572.695312 619.503906 L 500.046875 619.503906 Z M 500.046875 587.929688 " fill-opacity="1" fill-rule="nonzero"/><path fill="#ffffff" d="M 556.902344 595.035156 C 556.902344 596.339844 555.839844 597.402344 554.53125 597.402344 L 515.050781 597.402344 C 513.742188 597.402344 512.683594 596.339844 512.683594 595.035156 C 512.683594 593.726562 513.742188 592.664062 515.050781 592.664062 L 554.53125 592.664062 C 555.839844 592.664062 556.902344 593.726562 556.902344 595.035156 Z M 556.902344 595.035156 " fill-opacity="1" fill-rule="nonzero"/><path fill="#677cb5" d="M 397.398438 550.039062 L 482.675781 550.039062 L 482.675781 508.992188 L 397.398438 508.992188 Z M 397.398438 550.039062 " fill-opacity="1" fill-rule="nonzero"/><path fill="#677cb5" d="M 397.398438 610.03125 L 482.675781 610.03125 L 482.675781 568.988281 L 397.398438 568.988281 Z M 397.398438 610.03125 " fill-opacity="1" fill-rule="nonzero"/><path fill="#677cb5" d="M 397.398438 670.019531 L 482.675781 670.019531 L 482.675781 628.976562 L 397.398438 628.976562 Z M 397.398438 670.019531 " fill-opacity="1" fill-rule="nonzero"/><path fill="#ffffff" d="M 417.929688 637.660156 C 417.929688 638.964844 418.988281 640.027344 420.296875 640.027344 L 461.355469 640.027344 C 462.664062 640.027344 463.726562 638.964844 463.726562 637.660156 C 463.726562 636.351562 462.664062 635.289062 461.355469 635.289062 L 420.296875 635.289062 C 418.988281 635.289062 417.929688 636.351562 417.929688 637.660156 Z M 417.929688 637.660156 " fill-opacity="1" fill-rule="nonzero"/><path fill="#ffffff" d="M 417.929688 577.667969 C 417.929688 578.972656 418.988281 580.035156 420.296875 580.035156 L 461.355469 580.035156 C 462.664062 580.035156 463.726562 578.972656 463.726562 577.667969 C 463.726562 576.359375 462.664062 575.296875 461.355469 575.296875 L 420.296875 575.296875 C 418.988281 575.296875 417.929688 576.359375 417.929688 577.667969 Z M 417.929688 577.667969 " fill-opacity="1" fill-rule="nonzero"/><path fill="#ffffff" d="M 417.929688 517.675781 C 417.929688 518.984375 418.988281 520.042969 420.296875 520.042969 L 461.355469 520.042969 C 462.664062 520.042969 463.726562 518.984375 463.726562 517.675781 C 463.726562 516.367188 462.664062 515.308594 461.355469 515.308594 L 420.296875 515.308594 C 418.988281 515.308594 417.929688 516.367188 417.929688 517.675781 Z M 417.929688 517.675781 " fill-opacity="1" fill-rule="nonzero"/><path fill="#251f4a" d="M 687.128906 400.414062 L 660.257812 400.414062 L 660.257812 398.921875 L 687.128906 398.921875 Z M 684.890625 450.414062 L 675.1875 450.414062 L 675.1875 448.917969 L 684.890625 448.917969 Z M 684.890625 450.414062 " fill-opacity="1" fill-rule="evenodd"/><path fill="#ffffff" d="M 654.285156 418.996094 L 654.285156 385.492188 C 654.285156 383.429688 655.953125 381.757812 658.015625 381.757812 C 660.078125 381.757812 661.75 383.429688 661.75 385.492188 L 661.75 418.996094 C 661.75 420.023438 662.015625 421.035156 662.519531 421.929688 L 674.179688 442.578125 C 675.328125 444.566406 673.890625 447.054688 671.59375 447.054688 L 644.441406 447.054688 C 642.140625 447.054688 640.703125 444.566406 641.855469 442.578125 L 653.511719 421.929688 C 654.019531 421.035156 654.285156 420.023438 654.285156 418.996094 Z M 654.285156 418.996094 " fill-opacity="1" fill-rule="nonzero"/><path fill="#fe5743" d="M 654.285156 385.492188 L 654.285156 387.730469 L 661.75 387.730469 L 661.75 385.492188 C 661.75 383.429688 660.078125 381.757812 658.015625 381.757812 C 655.953125 381.757812 654.285156 383.429688 654.285156 385.492188 Z M 654.285156 385.492188 " fill-opacity="1" fill-rule="nonzero"/><path fill="#fe5743" d="M 599.042969 398.175781 L 599.042969 399.667969 L 610.988281 399.667969 L 610.988281 398.175781 C 610.988281 394.878906 608.3125 392.207031 605.015625 392.207031 C 601.71875 392.207031 599.042969 394.878906 599.042969 398.175781 Z M 599.042969 398.175781 " fill-opacity="1" fill-rule="nonzero"/><path fill="#ffffff" d="M 599.042969 399.667969 L 599.042969 416.085938 L 610.988281 416.085938 L 610.988281 399.667969 Z M 599.042969 399.667969 " fill-opacity="1" fill-rule="nonzero"/><path fill="#251f4a" d="M 624.425781 486.230469 L 624.425781 454.890625 L 625.917969 454.890625 L 625.917969 486.230469 Z M 581.875 486.230469 L 581.875 459.367188 L 583.367188 459.367188 L 583.367188 486.230469 Z M 603.523438 483.992188 L 603.523438 466.828125 L 605.015625 466.828125 L 605.015625 483.992188 Z M 603.523438 483.992188 " fill-opacity="1" fill-rule="evenodd"/><path fill="#fe5743" d="M 657.273438 455.636719 C 657.273438 458.621094 652.792969 460.113281 654.285156 465.335938 L 660.257812 466.082031 C 662.046875 461.308594 659.261719 456.878906 657.273438 455.636719 Z M 657.273438 455.636719 " fill-opacity="1" fill-rule="nonzero"/><path fill="#fddd78" d="M 664.734375 432.503906 L 650.550781 432.503906 L 645.75 441.5 C 645.21875 442.496094 645.941406 443.695312 647.066406 443.695312 L 668.816406 443.695312 C 669.976562 443.695312 670.695312 442.429688 670.097656 441.4375 Z M 664.734375 432.503906 " fill-opacity="1" fill-rule="nonzero"/><path fill="#677cb5" d="M 570.679688 490.921875 C 570.679688 486.683594 574.117188 483.246094 578.355469 483.246094 L 698.859375 483.246094 C 703.101562 483.246094 706.539062 486.683594 706.539062 490.921875 C 706.539062 491.628906 705.964844 492.199219 705.257812 492.199219 L 571.957031 492.199219 C 571.25 492.199219 570.679688 491.628906 570.679688 490.921875 Z M 570.679688 490.921875 " fill-opacity="1" fill-rule="nonzero"/><path fill="#677cb5" d="M 684.144531 375.789062 L 691.609375 375.789062 L 691.609375 484.738281 L 684.144531 484.738281 Z M 684.144531 375.789062 " fill-opacity="1" fill-rule="nonzero"/><path fill="#293764" d="M 575.15625 447.425781 L 633.382812 447.425781 L 633.382812 451.90625 L 575.15625 451.90625 Z M 575.15625 447.425781 " fill-opacity="1" fill-rule="nonzero"/><path fill="#293764" d="M 676.679688 447.425781 L 639.355469 447.425781 L 639.355469 451.90625 L 676.679688 451.90625 Z M 676.679688 447.425781 " fill-opacity="1" fill-rule="nonzero"/><path fill="#293764" d="M 654.285156 465.335938 L 660.257812 465.335938 L 660.257812 483.246094 L 654.285156 483.246094 Z M 654.285156 465.335938 " fill-opacity="1" fill-rule="nonzero"/><path fill="#fddd78" d="M 645.328125 480.261719 L 669.214844 480.261719 L 669.214844 483.246094 L 645.328125 483.246094 Z M 645.328125 480.261719 " fill-opacity="1" fill-rule="nonzero"/><path fill="#251f4a" d="M 598.296875 398.175781 C 598.296875 394.46875 601.304688 391.460938 605.015625 391.460938 C 608.726562 391.460938 611.734375 394.46875 611.734375 398.175781 L 611.734375 416.085938 L 610.242188 416.085938 L 610.242188 398.175781 C 610.242188 395.292969 607.902344 392.953125 605.015625 392.953125 C 602.128906 392.953125 599.792969 395.292969 599.792969 398.175781 L 599.792969 399.667969 L 598.296875 399.667969 Z M 598.296875 398.175781 " fill-opacity="1" fill-rule="evenodd"/><path fill="#ffffff" d="M 630.398438 439.964844 C 630.398438 453.976562 619.035156 465.335938 605.015625 465.335938 C 591 465.335938 579.636719 453.976562 579.636719 439.964844 C 579.636719 425.953125 591 414.59375 605.015625 414.59375 C 619.035156 414.59375 630.398438 425.953125 630.398438 439.964844 Z M 630.398438 439.964844 " fill-opacity="1" fill-rule="nonzero"/><path fill="#251f4a" d="M 605.015625 415.339844 C 591.410156 415.339844 580.382812 426.363281 580.382812 439.964844 C 580.382812 453.566406 591.410156 464.589844 605.015625 464.589844 L 605.015625 466.082031 C 590.585938 466.082031 578.890625 454.390625 578.890625 439.964844 C 578.890625 425.539062 590.585938 413.847656 605.015625 413.847656 C 607.972656 413.847656 610.816406 414.339844 613.46875 415.242188 L 612.984375 416.65625 C 610.488281 415.804688 607.808594 415.339844 605.015625 415.339844 Z M 605.015625 415.339844 " fill-opacity="1" fill-rule="evenodd"/><path fill="#fddd78" d="M 605.015625 462.351562 C 615.734375 462.351562 624.425781 453.664062 624.425781 442.949219 C 624.425781 441.140625 624.175781 439.390625 623.714844 437.726562 L 586.320312 437.726562 C 585.855469 439.390625 585.609375 441.140625 585.609375 442.949219 C 585.609375 453.664062 594.296875 462.351562 605.015625 462.351562 Z M 605.015625 462.351562 " fill-opacity="1" fill-rule="nonzero"/><path fill="#fddd78" d="M 609.496094 427.007812 C 609.496094 430.042969 607.15625 432.503906 604.269531 432.503906 C 601.382812 432.503906 599.042969 430.042969 599.042969 427.007812 C 599.042969 423.972656 604.269531 419.070312 604.269531 419.070312 C 604.269531 419.070312 609.496094 423.972656 609.496094 427.007812 Z M 609.496094 427.007812 " fill-opacity="1" fill-rule="nonzero"/><path fill="#251f4a" d="M 617.707031 374.296875 C 610.699219 374.296875 605.015625 379.976562 605.015625 386.984375 L 605.015625 392.207031 L 603.523438 392.207031 L 603.523438 386.984375 C 603.523438 379.152344 609.875 372.804688 617.707031 372.804688 L 618.453125 372.804688 C 626.285156 372.804688 632.636719 379.152344 632.636719 386.984375 L 632.636719 434.742188 C 632.636719 435.152344 632.972656 435.488281 633.382812 435.488281 L 645.328125 435.488281 L 645.328125 436.980469 L 633.382812 436.980469 C 632.148438 436.980469 631.144531 435.976562 631.144531 434.742188 L 631.144531 386.984375 C 631.144531 379.976562 625.460938 374.296875 618.453125 374.296875 Z M 617.707031 374.296875 " fill-opacity="1" fill-rule="evenodd"/><path fill="#251f4a" d="M 655.03125 385.492188 L 655.03125 418.996094 C 655.03125 420.152344 654.730469 421.289062 654.164062 422.296875 L 642.503906 442.945312 L 641.203125 442.210938 L 652.863281 421.5625 C 653.304688 420.777344 653.539062 419.894531 653.539062 418.996094 L 653.539062 385.492188 Z M 655.03125 385.492188 " fill-opacity="1" fill-rule="evenodd"/><path fill="#ffffff" d="M 849.640625 200.453125 C 877.085938 199.78125 899.132812 177.316406 899.132812 149.703125 C 899.132812 121.667969 876.40625 98.9375 848.371094 98.9375 C 820.335938 98.9375 797.609375 121.667969 797.609375 149.703125 C 797.609375 172.449219 812.566406 191.699219 833.179688 198.15625 C 833.613281 198.292969 833.976562 198.617188 834.121094 199.046875 C 837.773438 209.828125 822.769531 216.878906 812.113281 221.320312 C 837.394531 221.320312 845.910156 212.09375 848.132812 201.710938 C 848.285156 201 848.910156 200.472656 849.640625 200.453125 Z M 849.640625 200.453125 " fill-opacity="1" fill-rule="nonzero"/><path fill="#251f4a" d="M 898.386719 149.703125 C 898.386719 122.078125 875.992188 99.683594 848.371094 99.683594 L 848.371094 98.191406 C 876.816406 98.191406 899.878906 121.253906 899.878906 149.703125 C 899.878906 177.722656 877.507812 200.515625 849.65625 201.199219 C 849.28125 201.210938 848.945312 201.484375 848.863281 201.867188 C 847.714844 207.222656 844.933594 212.308594 839.175781 216.035156 C 833.441406 219.746094 824.832031 222.066406 812.113281 222.066406 L 812.113281 220.574219 C 824.675781 220.574219 832.964844 218.28125 838.363281 214.78125 C 843.738281 211.300781 846.324219 206.585938 847.40625 201.554688 C 847.628906 200.511719 848.539062 199.734375 849.621094 199.707031 C 876.664062 199.046875 898.386719 176.910156 898.386719 149.703125 Z M 898.386719 149.703125 " fill-opacity="1" fill-rule="evenodd"/><path fill="#fe5743" d="M 824.222656 148.191406 L 818.511719 154.160156 L 838.503906 175.054688 L 884.203125 127.296875 L 878.488281 121.324219 L 838.503906 163.113281 Z M 824.222656 148.191406 " fill-opacity="1" fill-rule="nonzero"/><path fill="#251f4a" d="M 838.503906 173.976562 L 883.664062 126.78125 L 884.742188 127.8125 L 838.503906 176.132812 L 817.972656 154.675781 L 819.050781 153.644531 Z M 838.503906 173.976562 " fill-opacity="1" fill-rule="evenodd"/><path fill="#293764" d="M 411.429688 335.503906 C 419.757812 337.878906 431.65625 350.367188 433.441406 370.585938 C 425.53125 350.8125 407.359375 341.824219 400.972656 327.175781 C 403.863281 330.148438 407.863281 334.484375 411.429688 335.503906 Z M 411.429688 335.503906 " fill-opacity="1" fill-rule="nonzero"/><path fill="#677cb5" d="M 487.570312 359.285156 C 482.8125 381.285156 466.15625 397.9375 436.414062 403.882812 L 432.25 402.097656 C 433.414062 400.308594 435.128906 397.585938 436.703125 394.917969 C 439.609375 390 441.882812 384.597656 445.355469 380.058594 C 453.058594 369.988281 466.105469 359.285156 487.570312 359.285156 Z M 487.570312 359.285156 " fill-opacity="1" fill-rule="nonzero"/><path fill="#677cb5" d="M 379.308594 345.015625 C 381.09375 390.207031 415 375.34375 431.652344 393.777344 L 432.578125 389.222656 C 421.277344 345.222656 391.800781 355.71875 379.308594 345.015625 Z M 379.308594 345.015625 " fill-opacity="1" fill-rule="nonzero"/><path fill="#dae8f5" d="M 432.84375 403.882812 C 431.894531 401.980469 434.035156 383.664062 432.84375 374.746094 C 431.417969 375.625 431.65625 396.746094 429.871094 403.289062 Z M 432.84375 403.882812 " fill-opacity="1" fill-rule="nonzero"/><path fill="#677cb5" d="M 435.816406 359.882812 C 434.035156 338.472656 427.492188 308.742188 403.105469 298.632812 C 397.523438 310.984375 397.753906 319.796875 400.96875 327.175781 C 403.863281 330.148438 407.859375 334.480469 411.429688 335.5 C 419.757812 337.878906 431.652344 350.367188 433.441406 370.582031 Z M 435.816406 359.882812 " fill-opacity="1" fill-rule="nonzero"/><path fill="#293764" d="M 476.15625 366.609375 C 474.199219 368.148438 471.683594 370.226562 468.824219 372.640625 C 467.578125 373.691406 466.265625 374.808594 464.90625 375.96875 L 476.296875 376.675781 L 476.242188 377.570312 L 463.929688 376.804688 C 461.695312 378.726562 459.351562 380.75 456.984375 382.8125 C 455.246094 384.328125 453.496094 385.859375 451.761719 387.378906 L 464.96875 387.378906 L 464.96875 388.273438 L 450.742188 388.273438 C 448.796875 389.988281 446.878906 391.679688 445.039062 393.304688 C 443.699219 394.492188 442.402344 395.644531 441.160156 396.746094 L 451.285156 396.746094 L 451.285156 397.640625 L 440.152344 397.640625 C 439.230469 398.460938 438.347656 399.253906 437.503906 400.003906 L 436.90625 399.335938 C 437.789062 398.550781 438.714844 397.722656 439.683594 396.859375 C 441.140625 395.5625 442.6875 394.191406 444.292969 392.769531 L 444.292969 384.855469 L 445.191406 384.855469 L 445.191406 391.976562 C 446.839844 390.515625 448.546875 389.011719 450.277344 387.492188 C 452.234375 385.773438 454.222656 384.03125 456.195312 382.3125 C 456.117188 381.882812 456.089844 381.28125 456.09375 380.617188 C 456.09375 379.765625 456.144531 378.742188 456.214844 377.675781 C 456.363281 375.539062 456.609375 373.210938 456.789062 371.71875 L 457.679688 371.828125 C 457.496094 373.308594 457.253906 375.621094 457.109375 377.734375 C 457.039062 378.792969 456.992188 379.796875 456.988281 380.621094 C 456.988281 381 456.996094 381.328125 457.015625 381.601562 C 459.222656 379.679688 461.398438 377.796875 463.484375 376.007812 C 465.089844 374.632812 466.640625 373.308594 468.105469 372.074219 L 468.683594 365.195312 L 469.578125 365.269531 L 469.074219 371.261719 C 471.59375 369.140625 473.828125 367.304688 475.601562 365.90625 C 476.582031 365.132812 477.429688 364.488281 478.105469 364.007812 C 478.773438 363.53125 479.308594 363.1875 479.660156 363.035156 L 480.015625 363.859375 C 479.761719 363.96875 479.300781 364.253906 478.625 364.734375 C 477.964844 365.207031 477.132812 365.839844 476.15625 366.609375 Z M 476.15625 366.609375 " fill-opacity="1" fill-rule="evenodd"/><path fill="#677cb5" d="M 399.535156 409.832031 L 467.34375 409.832031 L 467.34375 482.632812 C 467.34375 483.191406 466.992188 483.6875 466.46875 483.875 C 445.089844 491.371094 421.792969 491.371094 400.410156 483.875 C 399.886719 483.6875 399.535156 483.191406 399.535156 482.632812 Z M 399.535156 409.832031 " fill-opacity="1" fill-rule="nonzero"/><path fill="#ffffff" d="M 395.964844 407.472656 C 395.964844 404.175781 398.640625 401.503906 401.9375 401.503906 L 467.324219 401.503906 C 470.621094 401.503906 473.292969 404.175781 473.292969 407.472656 L 473.292969 412.183594 C 473.292969 415.484375 470.621094 418.152344 467.324219 418.152344 L 401.9375 418.152344 C 398.640625 418.152344 395.964844 415.484375 395.964844 412.183594 Z M 395.964844 407.472656 " fill-opacity="1" fill-rule="nonzero"/><path fill="#293764" d="M 467.324219 402.25 L 401.9375 402.25 L 401.9375 400.757812 L 467.324219 400.757812 C 471.03125 400.757812 474.042969 403.765625 474.042969 407.472656 L 474.042969 412.183594 L 472.546875 412.183594 L 472.546875 407.472656 C 472.546875 404.589844 470.207031 402.25 467.324219 402.25 Z M 467.324219 402.25 " fill-opacity="1" fill-rule="evenodd"/><path fill="#293764" d="M 403.101562 438.375 L 463.777344 438.375 L 463.777344 481.847656 C 463.777344 482.179688 463.460938 482.476562 462.988281 482.585938 C 443.859375 487.0625 423.015625 487.0625 403.886719 482.585938 C 403.417969 482.476562 403.101562 482.179688 403.101562 481.847656 Z M 403.101562 438.375 " fill-opacity="1" fill-rule="nonzero"/><path fill="#dae8f5" d="M 451.882812 457.402344 C 451.882812 460.6875 449.21875 463.347656 445.929688 463.347656 C 442.648438 463.347656 439.984375 460.6875 439.984375 457.402344 C 439.984375 454.117188 442.648438 451.457031 445.929688 451.457031 C 449.21875 451.457031 451.882812 454.117188 451.882812 457.402344 Z M 451.882812 457.402344 " fill-opacity="1" fill-rule="nonzero"/><path fill="#dae8f5" d="M 417.378906 449.671875 C 417.378906 451.96875 415.515625 453.835938 413.214844 453.835938 C 410.914062 453.835938 409.050781 451.96875 409.050781 449.671875 C 409.050781 447.375 410.914062 445.507812 413.214844 445.507812 C 415.515625 445.507812 417.378906 447.375 417.378906 449.671875 Z M 417.378906 449.671875 " fill-opacity="1" fill-rule="nonzero"/><path fill="#dae8f5" d="M 419.757812 463.347656 C 419.757812 464.664062 418.691406 465.726562 417.378906 465.726562 C 416.066406 465.726562 415 464.664062 415 463.347656 C 415 462.035156 416.066406 460.96875 417.378906 460.96875 C 418.691406 460.96875 419.757812 462.035156 419.757812 463.347656 Z M 419.757812 463.347656 " fill-opacity="1" fill-rule="nonzero"/><path fill="#dae8f5" d="M 412.621094 474.050781 C 412.621094 475.363281 411.554688 476.429688 410.242188 476.429688 C 408.925781 476.429688 407.859375 475.363281 407.859375 474.050781 C 407.859375 472.738281 408.925781 471.671875 410.242188 471.671875 C 411.554688 471.671875 412.621094 472.738281 412.621094 474.050781 Z M 412.621094 474.050781 " fill-opacity="1" fill-rule="nonzero"/><path fill="#dae8f5" d="M 459.019531 466.917969 C 459.019531 468.230469 457.953125 469.292969 456.640625 469.292969 C 455.324219 469.292969 454.257812 468.230469 454.257812 466.917969 C 454.257812 465.601562 455.324219 464.539062 456.640625 464.539062 C 457.953125 464.539062 459.019531 465.601562 459.019531 466.917969 Z M 459.019531 466.917969 " fill-opacity="1" fill-rule="nonzero"/><path fill="#dae8f5" d="M 457.828125 446.105469 C 457.828125 447.089844 457.03125 447.886719 456.046875 447.886719 C 455.058594 447.886719 454.257812 447.089844 454.257812 446.105469 C 454.257812 445.117188 455.058594 444.320312 456.046875 444.320312 C 457.03125 444.320312 457.828125 445.117188 457.828125 446.105469 Z M 457.828125 446.105469 " fill-opacity="1" fill-rule="nonzero"/><path fill="#dae8f5" d="M 438.792969 449.078125 C 438.792969 449.734375 438.257812 450.265625 437.601562 450.265625 C 436.945312 450.265625 436.414062 449.734375 436.414062 449.078125 C 436.414062 448.417969 436.945312 447.886719 437.601562 447.886719 C 438.257812 447.886719 438.792969 448.417969 438.792969 449.078125 Z M 438.792969 449.078125 " fill-opacity="1" fill-rule="nonzero"/><path fill="#dae8f5" d="M 431.527344 460.917969 L 429.277344 418.15625 L 431.058594 418.15625 L 434.035156 459.78125 C 434.480469 462.011719 439.84375 468.945312 442.964844 472.746094 C 443.335938 473.199219 443.890625 473.457031 444.476562 473.457031 L 444.9375 473.457031 C 446.769531 473.457031 448.585938 473.828125 450.269531 474.550781 L 451.40625 475.035156 C 451.691406 475.160156 451.878906 475.445312 451.878906 475.757812 C 451.878906 476.339844 451.265625 476.71875 450.746094 476.457031 L 450.398438 476.285156 C 449.804688 475.988281 449.160156 475.804688 448.5 475.75 L 443.972656 475.375 C 442.949219 475.289062 442.007812 474.769531 441.394531 473.949219 L 435.449219 466.027344 C 435.308594 465.839844 435.085938 465.726562 434.847656 465.726562 C 434.410156 465.726562 434.0625 466.097656 434.097656 466.535156 L 434.613281 473.21875 C 434.625 473.375 434.664062 473.527344 434.738281 473.671875 L 436.609375 477.414062 C 436.835938 477.871094 436.691406 478.425781 436.265625 478.710938 C 435.730469 479.066406 435 478.839844 434.761719 478.242188 L 432.992188 473.824219 C 432.894531 473.582031 432.832031 473.324219 432.8125 473.058594 L 432.691406 471.625 C 432.566406 470.121094 429.679688 469.125 428.554688 470.136719 C 425.679688 472.71875 421.457031 476.003906 417.054688 478.085938 C 416.882812 478.167969 416.683594 478.179688 416.5 478.117188 C 415.898438 477.917969 415.796875 477.109375 416.332031 476.765625 L 421.859375 473.210938 C 422.777344 472.621094 423.535156 471.625 424.339844 470.890625 C 425.8125 469.554688 428.578125 467.652344 430.375 465.40625 C 431.378906 464.160156 431.613281 462.515625 431.527344 460.917969 Z M 431.527344 460.917969 " fill-opacity="1" fill-rule="nonzero"/><path fill="#677cb5" d="M 467.34375 296.253906 C 459.015625 303.390625 467.078125 355.574219 432.578125 375.789062 C 432.578125 370.566406 434.035156 359.882812 434.035156 353.933594 C 434.035156 331.796875 434.628906 296.253906 467.34375 296.253906 Z M 467.34375 296.253906 " fill-opacity="1" fill-rule="nonzero"/><path fill="#092b6a" d="M 453.535156 306.191406 C 451.460938 309.148438 449.570312 313.09375 447.832031 317.753906 C 446.871094 320.339844 445.957031 323.144531 445.089844 326.113281 C 448.667969 325.460938 451.996094 323.8125 454.6875 321.351562 L 459.148438 317.269531 L 459.753906 317.929688 L 455.289062 322.011719 C 452.367188 324.6875 448.726562 326.441406 444.816406 327.066406 C 444.359375 328.660156 443.917969 330.300781 443.484375 331.976562 C 442.898438 334.257812 442.332031 336.609375 441.789062 339.011719 L 454.113281 335.808594 L 454.339844 336.671875 L 441.566406 339.996094 C 440.410156 345.160156 439.34375 350.550781 438.339844 355.984375 C 439.421875 355.859375 441.710938 355.542969 444.054688 354.902344 C 445.550781 354.496094 447.046875 353.964844 448.261719 353.277344 C 449.484375 352.585938 450.351562 351.777344 450.695312 350.84375 L 451.535156 351.152344 C 451.085938 352.378906 449.996094 353.328125 448.703125 354.058594 C 447.398438 354.796875 445.820312 355.351562 444.289062 355.769531 C 441.667969 356.480469 439.117188 356.800781 438.171875 356.90625 C 437.40625 361.085938 436.679688 365.285156 435.984375 369.425781 L 435.101562 369.273438 C 435.816406 365.027344 436.566406 360.710938 437.351562 356.414062 C 438.402344 350.679688 439.53125 344.980469 440.753906 339.53125 C 441.328125 336.972656 441.925781 334.464844 442.546875 332.035156 C 442.203125 331.730469 441.886719 331.300781 441.601562 330.832031 C 441.238281 330.238281 440.898438 329.53125 440.589844 328.800781 C 439.976562 327.34375 439.480469 325.757812 439.207031 324.746094 L 440.074219 324.511719 C 440.335938 325.5 440.824219 327.042969 441.417969 328.453125 C 441.714844 329.160156 442.035156 329.824219 442.367188 330.367188 C 442.519531 330.617188 442.667969 330.832031 442.8125 331.011719 C 443.207031 329.488281 443.617188 327.996094 444.035156 326.542969 C 444.957031 323.339844 445.929688 320.316406 446.960938 317.53125 C 446.914062 316.800781 446.820312 315.957031 446.71875 315.039062 L 446.710938 314.960938 C 446.601562 313.980469 446.484375 312.929688 446.414062 311.886719 C 446.277344 309.824219 446.3125 307.703125 447.007812 306.203125 L 447.820312 306.578125 C 447.230469 307.851562 447.171875 309.761719 447.308594 311.828125 C 447.375 312.847656 447.488281 313.878906 447.597656 314.863281 L 447.609375 314.957031 C 447.636719 315.1875 447.660156 315.417969 447.6875 315.644531 C 449.246094 311.714844 450.945312 308.328125 452.800781 305.679688 C 454.9375 302.636719 457.320312 300.527344 460 299.734375 L 460.253906 300.59375 C 457.851562 301.304688 455.617188 303.230469 453.535156 306.191406 Z M 453.535156 306.191406 " fill-opacity="1" fill-rule="evenodd"/><path fill="#092b6a" d="M 414.425781 322.082031 C 411.964844 317.484375 409.359375 313.125 406.808594 309.730469 L 407.523438 309.191406 C 410.5625 313.234375 413.65625 318.597656 416.484375 324.085938 C 417.164062 325.402344 417.828125 326.722656 418.472656 328.039062 C 418.484375 326.25 418.449219 324.050781 418.308594 321.933594 C 418.210938 320.464844 418.0625 319.039062 417.851562 317.816406 C 417.640625 316.585938 417.367188 315.601562 417.035156 314.980469 L 417.824219 314.558594 C 418.226562 315.308594 418.519531 316.414062 418.734375 317.664062 C 418.953125 318.929688 419.101562 320.386719 419.203125 321.871094 C 419.394531 324.792969 419.394531 327.847656 419.335938 329.820312 C 420.457031 332.164062 421.515625 334.457031 422.476562 336.605469 M 422.484375 336.617188 C 423.34375 338.539062 424.128906 340.347656 424.820312 341.96875 C 425.019531 340.125 425.226562 337.816406 425.339844 335.589844 C 425.414062 334.101562 425.445312 332.65625 425.402344 331.414062 C 425.363281 330.160156 425.25 329.152344 425.050781 328.515625 L 425.90625 328.25 C 426.144531 329.007812 426.257812 330.121094 426.300781 331.386719 C 426.339844 332.660156 426.308594 334.132812 426.234375 335.632812 C 426.085938 338.578125 425.773438 341.65625 425.527344 343.640625 C 426.210938 345.292969 427.085938 347.898438 427.8125 350.167969 C 428.195312 351.355469 428.535156 352.441406 428.792969 353.257812 C 429.042969 354.058594 429.214844 354.605469 429.265625 354.734375 L 428.429688 355.054688 C 428.371094 354.90625 428.179688 354.296875 427.90625 353.425781 C 427.648438 352.609375 427.320312 351.558594 426.960938 350.441406 C 426.210938 348.117188 425.328125 345.476562 424.65625 343.875 C 423.820312 341.894531 422.808594 339.542969 421.664062 336.980469 C 421.382812 336.351562 421.089844 335.703125 420.789062 335.046875 C 420.679688 334.984375 420.566406 334.921875 420.449219 334.855469 C 419.480469 334.332031 418.25 333.832031 416.945312 333.375 C 414.328125 332.464844 411.34375 331.707031 409.394531 331.292969 L 409.210938 332.167969 C 411.136719 332.578125 414.078125 333.324219 416.648438 334.222656 C 417.9375 334.671875 419.117188 335.152344 420.023438 335.644531 C 420.476562 335.886719 420.851562 336.132812 421.136719 336.367188 C 421.421875 336.601562 421.589844 336.8125 421.664062 336.980469 L 422.484375 336.617188 C 422.484375 336.617188 422.480469 336.617188 422.484375 336.617188 Z M 415.703125 324.523438 C 415.226562 323.832031 414.347656 323.082031 413.191406 322.316406 C 412.035156 321.550781 410.628906 320.789062 409.152344 320.082031 C 406.199219 318.65625 402.988281 317.441406 400.9375 316.761719 L 401.21875 315.914062 C 403.296875 316.601562 406.546875 317.828125 409.539062 319.273438 C 411.039062 319.992188 412.480469 320.773438 413.6875 321.570312 C 413.941406 321.738281 414.1875 321.910156 414.425781 322.082031 M 415.703125 324.523438 C 416.660156 326.382812 417.59375 328.257812 418.480469 330.105469 C 419.289062 331.792969 420.0625 333.449219 420.789062 335.046875 " fill-opacity="1" fill-rule="evenodd"/><path fill="#293764" d="M 394.019531 356.695312 C 397.144531 358.425781 400.730469 360.671875 403.578125 362.742188 C 403.894531 362.972656 404.210938 363.203125 404.527344 363.441406 C 404.09375 362.289062 403.59375 361.003906 403.070312 359.808594 C 402.691406 358.945312 402.308594 358.136719 401.9375 357.460938 C 401.558594 356.777344 401.210938 356.261719 400.910156 355.960938 L 401.542969 355.328125 C 401.9375 355.71875 402.335938 356.328125 402.722656 357.027344 C 403.113281 357.734375 403.507812 358.574219 403.890625 359.449219 C 404.632812 361.152344 405.335938 363.027344 405.855469 364.449219 C 408.359375 366.378906 410.953125 368.558594 413.476562 370.90625 C 414.074219 371.460938 414.671875 372.03125 415.261719 372.605469 C 415.28125 372.113281 415.242188 371.5625 415.148438 370.960938 C 414.996094 370 414.714844 368.953125 414.363281 367.914062 C 413.660156 365.828125 412.699219 363.800781 412.03125 362.574219 L 412.816406 362.144531 C 413.507812 363.40625 414.492188 365.484375 415.210938 367.628906 C 415.574219 368.699219 415.871094 369.796875 416.03125 370.824219 C 416.175781 371.746094 416.214844 372.632812 416.070312 373.40625 C 417.789062 375.125 419.441406 376.910156 420.976562 378.738281 C 421.03125 378.800781 421.085938 378.863281 421.136719 378.925781 C 421.058594 377.824219 420.933594 376.503906 420.742188 375.222656 C 420.605469 374.289062 420.429688 373.382812 420.222656 372.605469 C 420.011719 371.820312 419.773438 371.203125 419.515625 370.816406 L 420.261719 370.320312 C 420.601562 370.828125 420.871094 371.5625 421.089844 372.375 C 421.308594 373.195312 421.488281 374.136719 421.628906 375.089844 C 421.902344 376.925781 422.046875 378.839844 422.097656 380.101562 C 422.707031 380.839844 423.671875 381.871094 424.722656 382.988281 C 425.050781 383.335938 425.386719 383.695312 425.722656 384.054688 C 427.160156 385.597656 428.601562 387.195312 429.230469 388.246094 L 428.460938 388.707031 C 427.890625 387.757812 426.527344 386.234375 425.066406 384.664062 C 424.742188 384.316406 424.410156 383.964844 424.089844 383.625 C 422.980469 382.441406 421.929688 381.324219 421.308594 380.550781 C 421.015625 380.183594 420.714844 379.816406 420.410156 379.453125 L 410.140625 378.476562 L 410.226562 377.585938 L 419.574219 378.472656 C 418.214844 376.902344 416.761719 375.359375 415.265625 373.871094 C 414.523438 373.128906 413.765625 372.402344 413.003906 371.691406 C 410.390625 371.828125 406.472656 372.070312 402.960938 372.34375 C 401.160156 372.488281 399.472656 372.640625 398.125 372.792969 C 396.757812 372.949219 395.789062 373.101562 395.394531 373.230469 L 395.113281 372.382812 C 395.613281 372.214844 396.683594 372.054688 398.023438 371.902344 C 399.386719 371.746094 401.085938 371.59375 402.890625 371.453125 C 406.039062 371.203125 409.515625 370.988281 412.085938 370.84375 C 409.796875 368.757812 407.464844 366.8125 405.207031 365.078125 C 404.535156 364.5625 403.867188 364.0625 403.210938 363.585938 C 402.5 363.710938 401.414062 363.722656 400.148438 363.675781 C 398.734375 363.621094 397.039062 363.484375 395.273438 363.308594 C 391.746094 362.953125 387.925781 362.429688 385.484375 362.054688 L 385.617188 361.171875 C 388.050781 361.542969 391.855469 362.0625 395.363281 362.417969 C 397.121094 362.59375 398.792969 362.730469 400.183594 362.78125 C 400.929688 362.808594 401.578125 362.8125 402.105469 362.792969 C 399.464844 360.941406 396.34375 359.003906 393.585938 357.476562 C 392.039062 356.617188 390.609375 355.890625 389.449219 355.378906 C 388.871094 355.125 388.363281 354.925781 387.945312 354.792969 C 387.519531 354.65625 387.21875 354.597656 387.042969 354.597656 L 387.042969 353.703125 C 387.363281 353.703125 387.773438 353.796875 388.21875 353.941406 C 388.675781 354.085938 389.214844 354.296875 389.8125 354.5625 C 391.003906 355.085938 392.457031 355.828125 394.019531 356.695312 Z M 394.019531 356.695312 " fill-opacity="1" fill-rule="evenodd"/><path fill="#ffffff" d="M 545.371094 491.453125 C 558.605469 491.453125 569.332031 481.089844 569.332031 468.308594 C 569.332031 457.585938 561.785156 448.566406 551.542969 445.933594 L 551.542969 425.078125 L 538.472656 425.078125 L 538.472656 446.132812 C 528.601562 448.996094 521.410156 457.839844 521.410156 468.308594 C 521.410156 481.089844 532.136719 491.453125 545.371094 491.453125 Z M 545.371094 491.453125 " fill-opacity="1" fill-rule="nonzero"/><path fill="#251f4a" d="M 537.726562 446.132812 L 537.726562 425.078125 L 539.21875 425.078125 L 539.21875 446.132812 Z M 522.15625 468.308594 C 522.15625 480.65625 532.527344 490.707031 545.371094 490.707031 L 545.371094 492.199219 C 531.75 492.199219 520.664062 481.527344 520.664062 468.308594 Z M 522.15625 468.308594 " fill-opacity="1" fill-rule="evenodd"/><path fill="#fe5743" d="M 535.933594 424.113281 C 535.933594 422.566406 537.1875 421.308594 538.742188 421.308594 L 551.277344 421.308594 C 552.828125 421.308594 554.085938 422.566406 554.085938 424.113281 C 554.085938 425.664062 552.828125 426.921875 551.277344 426.921875 L 538.742188 426.921875 C 537.1875 426.921875 535.933594 425.664062 535.933594 424.113281 Z M 535.933594 424.113281 " fill-opacity="1" fill-rule="nonzero"/><path fill="#fddd78" d="M 565.703125 461.992188 C 565.703125 463.15625 556.4375 464.097656 545.007812 464.097656 C 533.578125 464.097656 524.3125 463.15625 524.3125 461.992188 C 524.3125 460.832031 533.578125 459.890625 545.007812 459.890625 C 556.4375 459.890625 565.703125 460.832031 565.703125 461.992188 Z M 565.703125 461.992188 " fill-opacity="1" fill-rule="nonzero"/><path fill="#fddd78" d="M 540.820312 455.636719 C 540.820312 456.460938 540.148438 457.128906 539.324219 457.128906 C 538.5 457.128906 537.832031 456.460938 537.832031 455.636719 C 537.832031 454.8125 538.5 454.144531 539.324219 454.144531 C 540.148438 454.144531 540.820312 454.8125 540.820312 455.636719 Z M 540.820312 455.636719 " fill-opacity="1" fill-rule="nonzero"/><path fill="#fddd78" d="M 549.777344 479.515625 C 549.777344 480.339844 549.109375 481.007812 548.285156 481.007812 C 547.460938 481.007812 546.789062 480.339844 546.789062 479.515625 C 546.789062 478.691406 547.460938 478.023438 548.285156 478.023438 C 549.109375 478.023438 549.777344 478.691406 549.777344 479.515625 Z M 549.777344 479.515625 " fill-opacity="1" fill-rule="nonzero"/><path fill="#fddd78" d="M 555.75 470.558594 C 555.75 471.382812 555.078125 472.054688 554.253906 472.054688 C 553.429688 472.054688 552.761719 471.382812 552.761719 470.558594 C 552.761719 469.738281 553.429688 469.066406 554.253906 469.066406 C 555.078125 469.066406 555.75 469.738281 555.75 470.558594 Z M 555.75 470.558594 " fill-opacity="1" fill-rule="nonzero"/><path fill="#fddd78" d="M 537.832031 475.039062 C 537.832031 476.6875 536.496094 478.023438 534.847656 478.023438 C 533.195312 478.023438 531.859375 476.6875 531.859375 475.039062 C 531.859375 473.386719 533.195312 472.054688 534.847656 472.054688 C 536.496094 472.054688 537.832031 473.386719 537.832031 475.039062 Z M 537.832031 475.039062 " fill-opacity="1" fill-rule="nonzero"/><path fill="#293764" d="M 644.921875 190.742188 L 691.097656 190.714844 L 691.09375 187.730469 L 644.617188 187.757812 L 630.96875 190.5625 L 621.195312 176.488281 L 595.921875 150.136719 L 593.769531 152.203125 L 618.878906 178.386719 L 627.785156 191.214844 L 615.535156 193.730469 L 615.515625 193.734375 L 559.671875 205.925781 L 540.101562 201.914062 L 548.769531 150.460938 L 545.824219 149.964844 L 537.175781 201.3125 L 528.765625 199.585938 L 495.054688 122.039062 L 501.519531 106.6875 L 506.132812 82.039062 L 503.199219 81.488281 L 498.640625 105.824219 L 492.402344 120.644531 L 421.164062 127.304688 L 416.179688 129.953125 L 404.003906 86.90625 L 401.128906 87.71875 L 413.484375 131.390625 L 378.695312 149.898438 L 380.097656 152.535156 L 414.316406 134.328125 L 414.695312 135.679688 L 414.019531 170.128906 L 417.003906 170.1875 L 417.691406 135.296875 L 417.011719 132.894531 L 422.039062 130.21875 L 492.492188 123.636719 L 525.21875 198.914062 L 493.800781 193.109375 L 493.253906 196.042969 L 527.4375 202.363281 L 536.101562 204.140625 L 509.1875 262.964844 L 511.902344 264.207031 L 539.101562 204.753906 L 559.691406 208.976562 L 616.136719 196.65625 L 616.152344 196.652344 L 628.964844 194.019531 L 632.890625 237.386719 L 635.863281 237.117188 L 631.910156 193.414062 Z M 508.761719 122.257812 L 558.308594 105.699219 L 559.253906 108.527344 L 509.710938 125.089844 Z M 508.761719 122.257812 " fill-opacity="1" fill-rule="evenodd"/><path fill="#293764" d="M 382.183594 166.535156 C 376.753906 173.292969 366.875 174.367188 360.117188 168.941406 C 355.726562 165.414062 353.734375 160.011719 354.367188 154.804688 C 354.707031 152 355.808594 149.25 357.710938 146.882812 C 363.140625 140.128906 373.019531 139.050781 379.777344 144.476562 C 383.199219 147.226562 385.164062 151.117188 385.566406 155.164062 C 385.957031 159.109375 384.859375 163.203125 382.183594 166.535156 Z M 382.183594 166.535156 " fill-opacity="1" fill-rule="nonzero"/><path fill="#677cb5" d="M 360.117188 168.941406 C 366.875 174.367188 376.753906 173.292969 382.183594 166.539062 C 384.863281 163.203125 385.957031 159.109375 385.566406 155.167969 C 380.621094 161.621094 367.457031 170.582031 354.367188 154.804688 C 353.734375 160.011719 355.726562 165.414062 360.117188 168.941406 Z M 360.117188 168.941406 " fill-opacity="1" fill-rule="nonzero"/><path fill="#dae8f5" d="M 372.753906 150.425781 C 372.421875 153.398438 369.878906 155.558594 367.070312 155.246094 C 364.265625 154.933594 362.257812 152.269531 362.589844 149.292969 C 362.921875 146.316406 365.464844 144.160156 368.273438 144.46875 C 371.078125 144.78125 373.085938 147.449219 372.753906 150.425781 Z M 372.753906 150.425781 " fill-opacity="1" fill-rule="nonzero"/><path fill="#293764" d="M 427.335938 140.414062 C 421.363281 147.84375 410.496094 149.027344 403.066406 143.058594 C 398.234375 139.179688 396.042969 133.234375 396.738281 127.507812 C 397.113281 124.421875 398.328125 121.398438 400.417969 118.796875 C 406.390625 111.367188 417.257812 110.183594 424.691406 116.152344 C 428.453125 119.175781 430.617188 123.453125 431.058594 127.90625 C 431.488281 132.246094 430.28125 136.746094 427.335938 140.414062 Z M 427.335938 140.414062 " fill-opacity="1" fill-rule="nonzero"/><path fill="#677cb5" d="M 403.0625 143.058594 C 410.496094 149.027344 421.363281 147.84375 427.335938 140.410156 C 430.28125 136.746094 431.484375 132.242188 431.054688 127.902344 C 425.613281 135.003906 411.136719 144.863281 396.738281 127.507812 C 396.042969 133.234375 398.234375 139.179688 403.0625 143.058594 Z M 403.0625 143.058594 " fill-opacity="1" fill-rule="nonzero"/><path fill="#dae8f5" d="M 416.964844 122.691406 C 416.601562 125.964844 413.804688 128.339844 410.714844 127.996094 C 407.625 127.652344 405.417969 124.71875 405.78125 121.445312 C 406.148438 118.171875 408.945312 115.796875 412.035156 116.140625 C 415.121094 116.484375 417.332031 119.417969 416.964844 122.691406 Z M 416.964844 122.691406 " fill-opacity="1" fill-rule="nonzero"/><path fill="#293764" d="M 409.304688 87.695312 C 404.960938 93.097656 397.058594 93.957031 391.652344 89.617188 C 388.140625 86.796875 386.546875 82.472656 387.050781 78.308594 C 387.324219 76.0625 388.207031 73.863281 389.726562 71.972656 C 394.070312 66.566406 401.972656 65.707031 407.378906 70.046875 C 410.117188 72.246094 411.691406 75.359375 412.011719 78.597656 C 412.324219 81.75 411.445312 85.027344 409.304688 87.695312 Z M 409.304688 87.695312 " fill-opacity="1" fill-rule="nonzero"/><path fill="#677cb5" d="M 391.652344 89.617188 C 397.058594 93.957031 404.960938 93.097656 409.300781 87.691406 C 411.445312 85.023438 412.320312 81.75 412.011719 78.59375 C 408.050781 83.757812 397.523438 90.929688 387.050781 78.304688 C 386.542969 82.472656 388.136719 86.792969 391.652344 89.617188 Z M 391.652344 89.617188 " fill-opacity="1" fill-rule="nonzero"/><path fill="#dae8f5" d="M 401.761719 74.804688 C 401.496094 77.183594 399.460938 78.910156 397.214844 78.660156 C 394.96875 78.410156 393.363281 76.277344 393.628906 73.898438 C 393.894531 71.519531 395.929688 69.789062 398.175781 70.039062 C 400.421875 70.289062 402.027344 72.421875 401.761719 74.804688 Z M 401.761719 74.804688 " fill-opacity="1" fill-rule="nonzero"/><path fill="#293764" d="M 511.664062 135.683594 C 504.605469 144.464844 491.765625 145.867188 482.980469 138.8125 C 477.273438 134.226562 474.683594 127.203125 475.503906 120.433594 C 475.949219 116.785156 477.382812 113.210938 479.851562 110.136719 C 486.910156 101.355469 499.753906 99.957031 508.535156 107.011719 C 512.988281 110.585938 515.542969 115.640625 516.0625 120.902344 C 516.570312 126.03125 515.148438 131.351562 511.664062 135.683594 Z M 511.664062 135.683594 " fill-opacity="1" fill-rule="nonzero"/><path fill="#677cb5" d="M 482.980469 138.8125 C 491.765625 145.867188 504.605469 144.46875 511.664062 135.6875 C 515.148438 131.351562 516.570312 126.03125 516.0625 120.902344 C 509.632812 129.292969 492.519531 140.945312 475.503906 120.433594 C 474.683594 127.203125 477.273438 134.226562 482.980469 138.8125 Z M 482.980469 138.8125 " fill-opacity="1" fill-rule="nonzero"/><path fill="#dae8f5" d="M 499.40625 114.734375 C 498.976562 118.605469 495.667969 121.410156 492.019531 121.003906 C 488.371094 120.601562 485.761719 117.132812 486.191406 113.265625 C 486.621094 109.398438 489.929688 106.589844 493.578125 106.996094 C 497.226562 107.402344 499.839844 110.867188 499.40625 114.734375 Z M 499.40625 114.734375 " fill-opacity="1" fill-rule="nonzero"/><path fill="#293764" d="M 513.734375 83.011719 C 510.476562 87.0625 504.546875 87.710938 500.492188 84.453125 C 497.859375 82.335938 496.664062 79.09375 497.042969 75.972656 C 497.246094 74.289062 497.910156 72.636719 499.050781 71.21875 C 502.308594 67.167969 508.234375 66.519531 512.289062 69.777344 C 514.34375 71.425781 515.523438 73.757812 515.761719 76.1875 C 515.996094 78.554688 515.339844 81.011719 513.734375 83.011719 Z M 513.734375 83.011719 " fill-opacity="1" fill-rule="nonzero"/><path fill="#677cb5" d="M 500.496094 84.457031 C 504.550781 87.714844 510.480469 87.066406 513.734375 83.015625 C 515.34375 81.015625 516 78.558594 515.765625 76.191406 C 512.796875 80.0625 504.902344 85.441406 497.046875 75.976562 C 496.667969 79.097656 497.863281 82.339844 500.496094 84.457031 Z M 500.496094 84.457031 " fill-opacity="1" fill-rule="nonzero"/><path fill="#dae8f5" d="M 508.074219 73.34375 C 507.875 75.128906 506.347656 76.421875 504.664062 76.234375 C 502.980469 76.046875 501.777344 74.449219 501.976562 72.664062 C 502.175781 70.878906 503.699219 69.582031 505.382812 69.769531 C 507.070312 69.957031 508.273438 71.554688 508.074219 73.34375 Z M 508.074219 73.34375 " fill-opacity="1" fill-rule="nonzero"/><path fill="#293764" d="M 496.335938 199.851562 C 493.078125 203.902344 487.152344 204.550781 483.097656 201.292969 C 480.460938 199.179688 479.265625 195.933594 479.644531 192.8125 C 479.851562 191.128906 480.511719 189.480469 481.652344 188.058594 C 484.910156 184.003906 490.835938 183.359375 494.890625 186.617188 C 496.945312 188.265625 498.125 190.597656 498.363281 193.027344 C 498.597656 195.394531 497.941406 197.851562 496.335938 199.851562 Z M 496.335938 199.851562 " fill-opacity="1" fill-rule="nonzero"/><path fill="#677cb5" d="M 483.097656 201.292969 C 487.152344 204.546875 493.078125 203.902344 496.335938 199.847656 C 497.941406 197.847656 498.597656 195.394531 498.363281 193.027344 C 495.398438 196.898438 487.5 202.277344 479.644531 192.808594 C 479.265625 195.933594 480.460938 199.175781 483.097656 201.292969 Z M 483.097656 201.292969 " fill-opacity="1" fill-rule="nonzero"/><path fill="#dae8f5" d="M 490.675781 190.183594 C 490.480469 191.96875 488.953125 193.261719 487.265625 193.074219 C 485.582031 192.890625 484.378906 191.289062 484.578125 189.503906 C 484.777344 187.71875 486.304688 186.421875 487.988281 186.609375 C 489.671875 186.796875 490.875 188.398438 490.675781 190.183594 Z M 490.675781 190.183594 " fill-opacity="1" fill-rule="nonzero"/><path fill="#293764" d="M 556.332031 227.90625 C 547.101562 239.386719 530.308594 241.21875 518.820312 231.992188 C 511.355469 226 507.96875 216.8125 509.042969 207.960938 C 509.625 203.191406 511.5 198.519531 514.730469 194.496094 C 523.960938 183.011719 540.753906 181.183594 552.238281 190.410156 C 558.058594 195.082031 561.402344 201.695312 562.082031 208.574219 C 562.746094 215.277344 560.882812 222.238281 556.332031 227.90625 Z M 556.332031 227.90625 " fill-opacity="1" fill-rule="nonzero"/><path fill="#677cb5" d="M 518.816406 231.992188 C 530.308594 241.21875 547.101562 239.386719 556.328125 227.902344 C 560.882812 222.238281 562.742188 215.277344 562.078125 208.574219 C 553.671875 219.542969 531.292969 234.78125 509.042969 207.960938 C 507.96875 216.808594 511.355469 225.996094 518.816406 231.992188 Z M 518.816406 231.992188 " fill-opacity="1" fill-rule="nonzero"/><path fill="#dae8f5" d="M 540.304688 200.515625 C 539.742188 205.570312 535.414062 209.242188 530.644531 208.710938 C 525.871094 208.179688 522.457031 203.648438 523.023438 198.589844 C 523.585938 193.53125 527.910156 189.859375 532.683594 190.390625 C 537.453125 190.921875 540.867188 195.453125 540.304688 200.515625 Z M 540.304688 200.515625 " fill-opacity="1" fill-rule="nonzero"/><path fill="#293764" d="M 519.679688 291.042969 C 512.621094 299.828125 499.78125 301.226562 490.996094 294.171875 C 485.289062 289.589844 482.699219 282.5625 483.519531 275.792969 C 483.960938 272.144531 485.398438 268.574219 487.867188 265.5 C 494.925781 256.714844 507.765625 255.316406 516.550781 262.371094 C 521 265.945312 523.554688 271.003906 524.078125 276.261719 C 524.585938 281.390625 523.160156 286.710938 519.679688 291.042969 Z M 519.679688 291.042969 " fill-opacity="1" fill-rule="nonzero"/><path fill="#677cb5" d="M 490.996094 294.171875 C 499.78125 301.226562 512.621094 299.828125 519.679688 291.046875 C 523.160156 286.710938 524.585938 281.390625 524.078125 276.265625 C 517.648438 284.652344 500.535156 296.304688 483.519531 275.792969 C 482.699219 282.5625 485.289062 289.589844 490.996094 294.171875 Z M 490.996094 294.171875 " fill-opacity="1" fill-rule="nonzero"/><path fill="#dae8f5" d="M 507.421875 270.097656 C 506.992188 273.964844 503.683594 276.773438 500.035156 276.367188 C 496.386719 275.960938 493.773438 272.496094 494.207031 268.625 C 494.636719 264.757812 497.945312 261.949219 501.59375 262.355469 C 505.242188 262.761719 507.851562 266.226562 507.421875 270.097656 Z M 507.421875 270.097656 " fill-opacity="1" fill-rule="nonzero"/><path fill="#293764" d="M 643.886719 201.621094 C 636.832031 210.402344 623.988281 211.804688 615.203125 204.75 C 609.496094 200.167969 606.90625 193.140625 607.726562 186.371094 C 608.167969 182.722656 609.605469 179.152344 612.074219 176.078125 C 619.132812 167.292969 631.976562 165.894531 640.757812 172.949219 C 645.207031 176.523438 647.761719 181.582031 648.285156 186.839844 C 648.792969 191.96875 647.367188 197.289062 643.886719 201.621094 Z M 643.886719 201.621094 " fill-opacity="1" fill-rule="nonzero"/><path fill="#677cb5" d="M 615.203125 204.75 C 623.988281 211.804688 636.832031 210.40625 643.886719 201.625 C 647.367188 197.289062 648.792969 191.96875 648.285156 186.84375 C 641.855469 195.230469 624.742188 206.882812 607.726562 186.371094 C 606.90625 193.140625 609.496094 200.167969 615.203125 204.75 Z M 615.203125 204.75 " fill-opacity="1" fill-rule="nonzero"/><path fill="#dae8f5" d="M 631.632812 180.675781 C 631.199219 184.546875 627.894531 187.351562 624.242188 186.949219 C 620.59375 186.542969 617.984375 183.074219 618.414062 179.207031 C 618.847656 175.339844 622.152344 172.53125 625.804688 172.9375 C 629.453125 173.34375 632.0625 176.808594 631.632812 180.675781 Z M 631.632812 180.675781 " fill-opacity="1" fill-rule="nonzero"/><path fill="#293764" d="M 697.8125 199.648438 C 692.113281 206.742188 681.742188 207.871094 674.648438 202.171875 C 670.035156 198.46875 667.945312 192.796875 668.609375 187.332031 C 668.964844 184.386719 670.125 181.5 672.121094 179.015625 C 677.820312 171.921875 688.191406 170.792969 695.289062 176.488281 C 698.882812 179.375 700.945312 183.460938 701.367188 187.710938 C 701.777344 191.851562 700.625 196.148438 697.8125 199.648438 Z M 697.8125 199.648438 " fill-opacity="1" fill-rule="nonzero"/><path fill="#677cb5" d="M 674.644531 202.171875 C 681.738281 207.871094 692.113281 206.738281 697.8125 199.648438 C 700.625 196.148438 701.773438 191.847656 701.363281 187.707031 C 696.171875 194.484375 682.347656 203.894531 668.605469 187.328125 C 667.941406 192.792969 670.035156 198.46875 674.644531 202.171875 Z M 674.644531 202.171875 " fill-opacity="1" fill-rule="nonzero"/><path fill="#dae8f5" d="M 687.914062 182.730469 C 687.566406 185.855469 684.894531 188.121094 681.945312 187.792969 C 679 187.464844 676.890625 184.667969 677.238281 181.542969 C 677.585938 178.417969 680.257812 176.152344 683.207031 176.476562 C 686.152344 176.804688 688.261719 179.605469 687.914062 182.730469 Z M 687.914062 182.730469 " fill-opacity="1" fill-rule="nonzero"/><path fill="#293764" d="M 643.554688 244.625 C 640.023438 249.015625 633.605469 249.71875 629.214844 246.1875 C 626.359375 243.898438 625.0625 240.382812 625.476562 237 C 625.695312 235.175781 626.414062 233.390625 627.648438 231.851562 C 631.179688 227.460938 637.597656 226.761719 641.988281 230.289062 C 644.214844 232.078125 645.492188 234.605469 645.753906 237.234375 C 646.007812 239.796875 645.296875 242.460938 643.554688 244.625 Z M 643.554688 244.625 " fill-opacity="1" fill-rule="nonzero"/><path fill="#677cb5" d="M 629.210938 246.1875 C 633.605469 249.71875 640.023438 249.015625 643.554688 244.625 C 645.292969 242.460938 646.007812 239.800781 645.753906 237.234375 C 642.539062 241.429688 633.980469 247.257812 625.472656 237 C 625.0625 240.382812 626.355469 243.898438 629.210938 246.1875 Z M 629.210938 246.1875 " fill-opacity="1" fill-rule="nonzero"/><path fill="#dae8f5" d="M 637.425781 234.152344 C 637.210938 236.089844 635.558594 237.492188 633.734375 237.289062 C 631.90625 237.085938 630.605469 235.351562 630.820312 233.417969 C 631.035156 231.484375 632.6875 230.082031 634.511719 230.285156 C 636.335938 230.488281 637.640625 232.21875 637.425781 234.152344 Z M 637.425781 234.152344 " fill-opacity="1" fill-rule="nonzero"/><path fill="#293764" d="M 601.335938 154.367188 C 597.261719 159.433594 589.855469 160.242188 584.785156 156.171875 C 581.492188 153.527344 580 149.472656 580.472656 145.570312 C 580.730469 143.464844 581.554688 141.402344 582.980469 139.628906 C 587.054688 134.5625 594.460938 133.753906 599.53125 137.824219 C 602.097656 139.886719 603.570312 142.804688 603.871094 145.839844 C 604.164062 148.796875 603.34375 151.867188 601.335938 154.367188 Z M 601.335938 154.367188 " fill-opacity="1" fill-rule="nonzero"/><path fill="#677cb5" d="M 584.785156 156.171875 C 589.855469 160.242188 597.261719 159.433594 601.335938 154.367188 C 603.34375 151.867188 604.164062 148.796875 603.871094 145.839844 C 600.164062 150.679688 590.292969 157.402344 580.472656 145.570312 C 580 149.476562 581.496094 153.527344 584.785156 156.171875 Z M 584.785156 156.171875 " fill-opacity="1" fill-rule="nonzero"/><path fill="#dae8f5" d="M 594.265625 142.28125 C 594.015625 144.515625 592.109375 146.132812 590.003906 145.898438 C 587.898438 145.664062 586.390625 143.667969 586.640625 141.433594 C 586.890625 139.203125 588.796875 137.582031 590.902344 137.816406 C 593.007812 138.050781 594.511719 140.050781 594.265625 142.28125 Z M 594.265625 142.28125 " fill-opacity="1" fill-rule="nonzero"/><path fill="#293764" d="M 558.199219 152.929688 C 553.855469 158.335938 545.953125 159.195312 540.546875 154.855469 C 537.035156 152.035156 535.441406 147.710938 535.945312 143.546875 C 536.21875 141.300781 537.101562 139.105469 538.621094 137.210938 C 542.964844 131.808594 550.867188 130.945312 556.273438 135.285156 C 559.011719 137.484375 560.585938 140.597656 560.90625 143.835938 C 561.21875 146.988281 560.339844 150.265625 558.199219 152.929688 Z M 558.199219 152.929688 " fill-opacity="1" fill-rule="nonzero"/><path fill="#677cb5" d="M 540.546875 154.855469 C 545.953125 159.195312 553.855469 158.332031 558.199219 152.929688 C 560.34375 150.265625 561.21875 146.988281 560.90625 143.835938 C 556.949219 148.996094 546.417969 156.167969 535.949219 143.546875 C 535.441406 147.710938 537.035156 152.03125 540.546875 154.855469 Z M 540.546875 154.855469 " fill-opacity="1" fill-rule="nonzero"/><path fill="#dae8f5" d="M 550.660156 140.042969 C 550.394531 142.421875 548.359375 144.152344 546.113281 143.902344 C 543.867188 143.652344 542.261719 141.519531 542.527344 139.136719 C 542.792969 136.757812 544.828125 135.03125 547.074219 135.28125 C 549.320312 135.53125 550.925781 137.660156 550.660156 140.042969 Z M 550.660156 140.042969 " fill-opacity="1" fill-rule="nonzero"/><path fill="#293764" d="M 583.773438 111.085938 C 578.34375 117.839844 568.46875 118.917969 561.710938 113.488281 C 557.320312 109.964844 555.324219 104.558594 555.957031 99.351562 C 556.300781 96.546875 557.402344 93.796875 559.304688 91.433594 C 564.730469 84.675781 574.609375 83.601562 581.367188 89.027344 C 584.792969 91.777344 586.757812 95.667969 587.15625 99.714844 C 587.546875 103.65625 586.453125 107.75 583.773438 111.085938 Z M 583.773438 111.085938 " fill-opacity="1" fill-rule="nonzero"/><path fill="#677cb5" d="M 561.710938 113.488281 C 568.46875 118.914062 578.347656 117.839844 583.773438 111.082031 C 586.453125 107.75 587.546875 103.65625 587.15625 99.710938 C 582.210938 106.167969 569.050781 115.128906 555.957031 99.351562 C 555.328125 104.558594 557.320312 109.960938 561.710938 113.488281 Z M 561.710938 113.488281 " fill-opacity="1" fill-rule="nonzero"/><path fill="#dae8f5" d="M 574.347656 94.96875 C 574.015625 97.945312 571.472656 100.105469 568.664062 99.792969 C 565.855469 99.480469 563.847656 96.816406 564.179688 93.839844 C 564.511719 90.863281 567.054688 88.703125 569.863281 89.015625 C 572.671875 89.328125 574.679688 91.992188 574.347656 94.96875 Z M 574.347656 94.96875 " fill-opacity="1" fill-rule="nonzero"/><path fill="#293764" d="M 424.566406 176.425781 C 421.308594 180.480469 415.382812 181.125 411.328125 177.867188 C 408.695312 175.753906 407.5 172.511719 407.878906 169.386719 C 408.082031 167.703125 408.746094 166.054688 409.886719 164.636719 C 413.140625 160.582031 419.070312 159.933594 423.125 163.191406 C 425.179688 164.839844 426.355469 167.175781 426.597656 169.601562 C 426.832031 171.96875 426.175781 174.425781 424.566406 176.425781 Z M 424.566406 176.425781 " fill-opacity="1" fill-rule="nonzero"/><path fill="#677cb5" d="M 411.328125 177.867188 C 415.382812 181.125 421.3125 180.476562 424.566406 176.425781 C 426.175781 174.425781 426.832031 171.96875 426.597656 169.601562 C 423.628906 173.472656 415.730469 178.851562 407.878906 169.386719 C 407.5 172.507812 408.695312 175.75 411.328125 177.867188 Z M 411.328125 177.867188 " fill-opacity="1" fill-rule="nonzero"/><path fill="#ffffff" d="M 722.921875 341.464844 C 739.160156 323.554688 757.300781 298.820312 777.453125 295.945312 C 785.222656 294.835938 791.605469 295.335938 796.863281 297.117188 C 828.214844 307.765625 842.253906 362.378906 840.160156 373.550781 C 839.214844 378.59375 832.816406 382.699219 824.054688 386.046875 C 825.5 412.160156 837.171875 439.964844 837.171875 454.144531 L 800.59375 454.144531 C 798.949219 448.847656 797.566406 442.800781 796.421875 436.234375 L 772.390625 436.234375 C 773.160156 442.226562 774.09375 448.207031 775.214844 454.144531 L 734.160156 454.144531 C 735.214844 447.679688 748.199219 389.222656 750.792969 345.195312 C 726.695312 369.074219 701.972656 378.589844 696.835938 367.582031 C 691.609375 356.390625 706.539062 326.03125 729.679688 294.453125 C 730.675781 291.21875 733.222656 284.664062 734.160156 283.257812 C 735.652344 281.019531 741.625 275.050781 743.117188 277.289062 C 744.164062 278.859375 737.890625 281.765625 736.398438 288.480469 C 737.890625 288.980469 741.007812 288.746094 742.371094 291.46875 C 743.863281 294.453125 740.128906 298.929688 738.636719 301.167969 C 734.03125 310.949219 727.65625 328.710938 722.921875 341.464844 Z M 722.921875 341.464844 " fill-opacity="1" fill-rule="nonzero"/><path fill="#fe5743" d="M 796.863281 297.117188 C 791.609375 295.332031 785.226562 294.832031 777.453125 295.941406 C 774.613281 311 770.390625 339.816406 769.519531 373.550781 C 769.003906 393.34375 769.644531 414.835938 772.390625 436.230469 L 796.421875 436.230469 C 794.222656 423.628906 792.890625 409.101562 792.199219 394.261719 L 791.675781 376.621094 C 791.660156 375.597656 791.648438 374.570312 791.640625 373.550781 C 791.324219 338.683594 794.027344 306.203125 796.863281 297.117188 Z M 796.863281 297.117188 " fill-opacity="1" fill-rule="nonzero"/><path fill="#ffffff" d="M 782.679688 395.9375 C 785.695312 395.433594 788.902344 394.878906 792.199219 394.261719 L 791.675781 376.625 C 787.199219 378.394531 783.269531 379.925781 780.441406 381.011719 Z M 782.679688 395.9375 " fill-opacity="1" fill-rule="nonzero"/><path fill="#f58d53" d="M 734.160156 283.257812 C 733.222656 284.664062 730.675781 291.21875 729.679688 294.453125 C 729.679688 296.691406 731.472656 301.167969 738.636719 301.167969 C 740.128906 298.929688 743.863281 294.453125 742.371094 291.46875 C 741.007812 288.746094 737.890625 288.980469 736.398438 288.480469 C 737.890625 281.765625 744.164062 278.859375 743.117188 277.289062 C 741.625 275.050781 735.652344 281.019531 734.160156 283.257812 Z M 734.160156 283.257812 " fill-opacity="1" fill-rule="nonzero"/><path fill="#586383" d="M 803.582031 667.566406 L 834.1875 667.566406 L 825.921875 454.144531 L 800.59375 454.144531 C 798.949219 448.84375 797.566406 442.800781 796.421875 436.234375 L 772.390625 436.234375 C 773.160156 442.226562 774.09375 448.207031 775.214844 454.144531 L 742.816406 454.144531 L 721.46875 667.566406 L 752.820312 667.566406 C 761.742188 617.070312 781.601562 506.082031 782.878906 498.917969 C 788.386719 542.542969 798.109375 622.347656 803.582031 667.566406 Z M 803.582031 667.566406 " fill-opacity="1" fill-rule="nonzero"/><path fill="#251f4a" d="M 807.207031 667.566406 L 832.304688 667.566406 C 832.046875 669.65625 831.949219 674.28125 835.746094 675.40625 C 842.199219 677.316406 843.890625 684.453125 843.890625 687.710938 L 807.207031 687.710938 Z M 807.207031 667.566406 " fill-opacity="1" fill-rule="nonzero"/><path fill="#251f4a" d="M 749.835938 667.566406 L 724.734375 667.566406 C 724.996094 669.65625 723.480469 674.152344 715.324219 675.40625 C 705.128906 676.972656 701.992188 678.304688 701.207031 687.710938 L 749.835938 687.710938 Z M 749.835938 667.566406 " fill-opacity="1" fill-rule="nonzero"/><path fill="#251f4a" d="M 777.519531 295.636719 L 778.882812 296.25 L 765.738281 325.445312 L 770.914062 328.03125 L 765.5625 330.707031 L 770.257812 373.46875 L 768.773438 373.632812 L 763.964844 329.835938 L 767.574219 328.03125 L 763.789062 326.140625 Z M 799.769531 325.332031 L 795.378906 296.800781 L 796.855469 296.574219 L 801.421875 326.25 L 797.265625 328.03125 L 801.449219 329.824219 L 792.386719 373.625 C 792.394531 374.257812 792.398438 374.894531 792.40625 375.53125 C 803.140625 371.273438 816.660156 365.769531 825.667969 361.679688 L 826.285156 363.035156 C 816.957031 367.273438 802.835938 373.011719 791.949219 377.316406 C 789.074219 378.453125 786.425781 379.492188 784.144531 380.378906 L 783.605469 378.988281 C 785.753906 378.152344 788.234375 377.183594 790.921875 376.121094 C 790.910156 375.265625 790.898438 374.410156 790.894531 373.558594 L 790.894531 373.476562 L 799.742188 330.714844 L 793.476562 328.03125 Z M 703.984375 372.828125 C 700.367188 372.53125 697.582031 370.949219 696.15625 367.898438 L 697.511719 367.265625 C 698.65625 369.71875 700.886719 371.074219 704.105469 371.34375 C 707.359375 371.609375 711.558594 370.753906 716.421875 368.78125 C 726.140625 364.839844 738.261719 356.558594 750.265625 344.664062 L 751.316406 345.722656 C 739.222656 357.710938 726.9375 366.125 716.984375 370.160156 C 712.011719 372.175781 707.5625 373.125 703.984375 372.828125 Z M 834.59375 379.832031 C 837.339844 377.808594 839.003906 375.664062 839.425781 373.414062 L 840.894531 373.6875 C 840.371094 376.476562 838.363281 378.910156 835.480469 381.035156 C 832.589844 383.167969 828.730469 385.058594 824.320312 386.742188 C 815.050781 390.28125 803.1875 392.964844 792.335938 394.996094 C 789.035156 395.613281 785.824219 396.171875 782.800781 396.671875 L 782.558594 395.203125 C 785.570312 394.699219 788.773438 394.144531 792.0625 393.527344 C 802.894531 391.503906 814.648438 388.839844 823.785156 385.347656 C 828.136719 383.6875 831.859375 381.851562 834.59375 379.832031 Z M 734.160156 453.398438 L 775.214844 453.398438 L 775.214844 454.890625 L 734.160156 454.890625 Z M 779.683594 468.945312 C 780.921875 476.367188 788.601562 538.5 795.699219 596.582031 L 794.21875 596.765625 C 790.144531 563.410156 785.878906 528.75 782.75 503.875 C 782.578125 504.847656 782.382812 505.945312 782.164062 507.15625 C 780.621094 515.78125 778.023438 530.308594 774.945312 547.554688 L 773.476562 547.289062 C 776.554688 530.058594 779.148438 515.535156 780.691406 506.910156 C 781.4375 502.746094 781.933594 499.957031 782.125 498.898438 C 780.125 483.078125 778.6875 472.042969 778.210938 469.191406 Z M 803.582031 666.820312 L 834.1875 666.820312 L 834.1875 668.3125 L 803.582031 668.3125 Z M 803.582031 666.820312 " fill-opacity="1" fill-rule="evenodd"/><path fill="#f58d53" d="M 764 246.625 C 758.835938 263.460938 761.882812 289 777.289062 287.359375 C 777.449219 288.886719 777.664062 293.53125 776.480469 296.515625 C 774.828125 304.757812 789.644531 303.285156 796.996094 297.519531 C 796.15625 292.058594 796.996094 285.625 799.269531 282.222656 C 813.027344 276.691406 815.253906 255.78125 806.316406 242.179688 C 796.8125 227.710938 769.855469 227.539062 764 246.625 Z M 764 246.625 " fill-opacity="1" fill-rule="nonzero"/><path fill="#251f4a" d="M 812.039062 265.339844 C 813.226562 257.546875 811.515625 248.730469 806.941406 241.769531 L 805.691406 242.585938 C 810.054688 249.230469 811.695312 257.671875 810.566406 265.117188 C 809.433594 272.5625 805.550781 278.894531 798.988281 281.53125 L 798.777344 281.617188 L 798.648438 281.808594 C 797.453125 283.59375 796.664062 286.089844 796.253906 288.785156 L 797.730469 289.007812 C 798.105469 286.53125 798.804688 284.351562 799.765625 282.824219 C 806.828125 279.878906 810.867188 273.050781 812.039062 265.339844 Z M 812.039062 265.339844 " fill-opacity="1" fill-rule="evenodd"/><path fill="#251f4a" d="M 791.445312 257.65625 C 788.382812 256.230469 768.542969 257.449219 761.082031 258.046875 C 749.128906 259.003906 742.664062 249.976562 746.871094 239.710938 C 752.988281 224.78125 787.539062 218.148438 799.851562 233.617188 C 817.582031 234.3125 826.328125 260.511719 802.992188 279.328125 C 797.058594 278.308594 799.851562 275.792969 801.332031 273.910156 C 802.367188 272.601562 807.089844 265.191406 802.667969 262.308594 C 799.542969 260.269531 796.292969 270.980469 793.933594 271.046875 C 791.574219 271.109375 795.269531 259.441406 791.445312 257.65625 Z M 791.445312 257.65625 " fill-opacity="1" fill-rule="nonzero"/><path fill="#251f4a" d="M 755.625 229.640625 C 751.25 232.167969 747.792969 235.488281 746.179688 239.429688 C 743.996094 244.761719 744.550781 249.871094 747.320312 253.539062 C 750.089844 257.203125 754.96875 259.285156 761.144531 258.792969 C 764.867188 258.492188 771.679688 258.039062 777.9375 257.839844 C 781.070312 257.738281 784.050781 257.703125 786.433594 257.777344 C 787.625 257.816406 788.65625 257.882812 789.476562 257.980469 C 790.324219 258.082031 790.863281 258.210938 791.128906 258.332031 C 791.734375 258.617188 792.160156 259.347656 792.378906 260.636719 C 792.59375 261.890625 792.570312 263.441406 792.496094 265.007812 C 792.476562 265.386719 792.453125 265.769531 792.433594 266.144531 C 792.371094 267.289062 792.308594 268.390625 792.34375 269.261719 C 792.367188 269.832031 792.433594 270.402344 792.617188 270.847656 C 792.714844 271.082031 792.863281 271.324219 793.097656 271.507812 C 793.34375 271.707031 793.640625 271.800781 793.957031 271.789062 C 794.523438 271.777344 795 271.453125 795.367188 271.117188 C 795.746094 270.765625 796.113281 270.300781 796.46875 269.792969 C 796.957031 269.09375 797.46875 268.238281 797.980469 267.386719 C 798.207031 267.011719 798.429688 266.636719 798.652344 266.277344 C 799.402344 265.058594 800.128906 263.992188 800.824219 263.355469 C 801.167969 263.035156 801.453125 262.875 801.675781 262.820312 C 801.863281 262.773438 802.042969 262.789062 802.261719 262.933594 C 803.167969 263.523438 803.597656 264.328125 803.730469 265.261719 C 803.871094 266.226562 803.695312 267.339844 803.335938 268.472656 C 802.613281 270.742188 801.222656 272.84375 800.746094 273.449219 C 800.628906 273.597656 800.488281 273.773438 800.335938 273.957031 C 800.070312 274.277344 799.773438 274.636719 799.53125 274.96875 C 799.144531 275.5 798.742188 276.148438 798.644531 276.839844 C 798.59375 277.203125 798.621094 277.585938 798.785156 277.960938 C 798.949219 278.332031 799.21875 278.648438 799.574219 278.914062 C 800.269531 279.429688 801.347656 279.804688 802.863281 280.0625 L 803.199219 280.121094 L 803.460938 279.910156 C 815.300781 270.363281 819.09375 258.855469 817.558594 249.558594 C 816.042969 240.390625 809.324219 233.410156 800.222656 232.886719 C 793.769531 225.066406 781.859375 222.9375 770.933594 224.527344 C 765.378906 225.332031 760.011719 227.105469 755.625 229.640625 Z M 771.148438 226.003906 C 781.976562 224.429688 793.355469 226.652344 799.269531 234.082031 L 799.480469 234.347656 L 799.824219 234.363281 C 808.277344 234.695312 814.648438 241.101562 816.085938 249.800781 C 817.507812 258.414062 814.070312 269.308594 802.789062 278.535156 C 801.546875 278.292969 800.839844 277.996094 800.46875 277.71875 C 800.273438 277.574219 800.191406 277.453125 800.15625 277.367188 C 800.117188 277.28125 800.101562 277.183594 800.121094 277.050781 C 800.164062 276.75 800.371094 276.351562 800.738281 275.851562 C 800.960938 275.542969 801.195312 275.261719 801.433594 274.972656 C 801.59375 274.78125 801.753906 274.585938 801.921875 274.375 C 802.476562 273.667969 803.964844 271.410156 804.757812 268.925781 C 805.152344 267.683594 805.394531 266.324219 805.210938 265.046875 C 805.019531 263.738281 804.382812 262.535156 803.078125 261.683594 C 802.515625 261.316406 801.910156 261.222656 801.3125 261.371094 C 800.75 261.511719 800.25 261.855469 799.8125 262.253906 C 798.945312 263.050781 798.125 264.285156 797.378906 265.496094 C 797.136719 265.894531 796.898438 266.289062 796.667969 266.675781 C 796.167969 267.503906 795.703125 268.285156 795.246094 268.9375 C 794.910156 269.414062 794.617188 269.777344 794.355469 270.019531 C 794.1875 270.171875 794.066406 270.242188 793.996094 270.273438 C 793.917969 270.085938 793.855469 269.742188 793.835938 269.199219 C 793.800781 268.410156 793.859375 267.414062 793.921875 266.296875 C 793.941406 265.90625 793.964844 265.5 793.984375 265.082031 C 794.0625 263.515625 794.09375 261.816406 793.851562 260.386719 C 793.613281 258.988281 793.066406 257.589844 791.761719 256.980469 C 791.261719 256.75 790.511719 256.601562 789.65625 256.5 C 788.777344 256.394531 787.695312 256.324219 786.484375 256.285156 C 784.050781 256.210938 781.03125 256.246094 777.890625 256.347656 C 771.601562 256.546875 764.761719 257.003906 761.023438 257.304688 C 755.246094 257.765625 750.914062 255.8125 748.511719 252.636719 C 746.113281 249.464844 745.539062 244.929688 747.5625 239.992188 C 749.007812 236.46875 752.164062 233.359375 756.371094 230.929688 C 760.570312 228.503906 765.753906 226.785156 771.148438 226.003906 Z M 771.148438 226.003906 " fill-opacity="1" fill-rule="evenodd"/><path fill="#ffffff" d="M 765.882812 361.820312 L 773.585938 360.324219 C 775.183594 360.015625 776.734375 361.09375 777.054688 362.738281 C 777.375 364.378906 776.339844 365.960938 774.742188 366.269531 L 780.058594 393.609375 C 787.648438 394.175781 794.277344 399.902344 795.839844 407.941406 C 796.71875 412.476562 795.832031 416.933594 793.660156 420.566406 C 791.25 424.597656 787.253906 427.605469 782.355469 428.558594 C 779.746094 429.066406 777.160156 428.9375 774.742188 428.273438 C 768.539062 426.578125 763.472656 421.382812 762.128906 414.492188 C 760.5 406.101562 764.929688 397.976562 772.308594 394.875 L 767.039062 367.765625 C 765.441406 368.078125 763.890625 367 763.570312 365.355469 C 763.25 363.714844 764.285156 362.132812 765.882812 361.820312 Z M 765.882812 361.820312 " fill-opacity="1" fill-rule="nonzero"/><path fill="#586383" d="M 773.585938 360.320312 L 765.882812 361.820312 C 764.285156 362.128906 763.25 363.710938 763.570312 365.355469 C 763.890625 366.996094 765.441406 368.074219 767.039062 367.765625 L 774.742188 366.269531 C 776.335938 365.957031 777.375 364.375 777.054688 362.734375 C 776.734375 361.089844 775.183594 360.011719 773.585938 360.320312 Z M 773.585938 360.320312 " fill-opacity="1" fill-rule="nonzero"/><path fill="#251f4a" d="M 771.460938 394.429688 L 766.304688 367.90625 L 767.769531 367.621094 L 773.15625 395.324219 L 772.597656 395.558594 C 765.550781 398.519531 761.296875 406.292969 762.863281 414.34375 C 764.128906 420.859375 768.863281 425.785156 774.675781 427.480469 L 774.257812 428.910156 C 767.914062 427.0625 762.773438 421.699219 761.398438 414.628906 C 759.742188 406.113281 764.085938 397.835938 771.460938 394.429688 Z M 795.105469 408.082031 C 793.605469 400.367188 787.253906 394.890625 780 394.347656 L 780.113281 392.863281 C 788.042969 393.453125 794.945312 399.433594 796.570312 407.796875 C 797.6875 413.542969 796.074219 419.175781 792.644531 423.28125 L 791.496094 422.324219 C 794.644531 418.554688 796.132812 413.375 795.105469 408.082031 Z M 795.105469 408.082031 " fill-opacity="1" fill-rule="evenodd"/><path fill="#f58d53" d="M 784.667969 393.578125 C 786.453125 390.574219 785.800781 383.761719 781.191406 380.792969 C 781.148438 376.636719 778.097656 374.324219 776.414062 374.816406 L 777.359375 379.789062 C 774.757812 380.910156 772.890625 387.355469 774.46875 392.207031 C 776.105469 397.242188 781.933594 398.179688 784.667969 393.578125 Z M 784.667969 393.578125 " fill-opacity="1" fill-rule="nonzero"/><path fill="#251f4a" d="M 774.796875 386.144531 C 775.089844 384.210938 775.738281 382.515625 776.527344 381.460938 L 775.335938 380.566406 C 774.351562 381.878906 773.636719 383.828125 773.320312 385.925781 C 773.003906 388.027344 773.082031 390.355469 773.757812 392.4375 L 775.175781 391.976562 C 774.585938 390.160156 774.507812 388.074219 774.796875 386.144531 Z M 774.796875 386.144531 " fill-opacity="1" fill-rule="evenodd"/></svg>