<svg xmlns="http://www.w3.org/2000/svg" xmlns:xlink="http://www.w3.org/1999/xlink" width="1920" zoomAndPan="magnify" viewBox="0 0 1440 809.999993" height="1080" preserveAspectRatio="xMidYMid meet" version="1.0"><defs><clipPath id="43d62f0f5f"><path d="M 348.421875 112 L 805 112 L 805 523 L 348.421875 523 Z M 348.421875 112 " clip-rule="nonzero"/></clipPath><clipPath id="15d9348461"><path d="M 348.421875 316 L 451 316 L 451 507 L 348.421875 507 Z M 348.421875 316 " clip-rule="nonzero"/></clipPath><clipPath id="0106f073b5"><path d="M 802 517 L 899 517 L 899 658.726562 L 802 658.726562 Z M 802 517 " clip-rule="nonzero"/></clipPath><clipPath id="856cbca1fc"><path d="M 802 517 L 898 517 L 898 658.726562 L 802 658.726562 Z M 802 517 " clip-rule="nonzero"/></clipPath><clipPath id="94bb188269"><path d="M 810 522 L 899 522 L 899 658.726562 L 810 658.726562 Z M 810 522 " clip-rule="nonzero"/></clipPath></defs><path fill="#c7d8ef" d="M 767.625 166.046875 L 786.210938 176.851562 C 778.828125 172.558594 769.625 171.394531 759.328125 173.753906 L 740.746094 162.949219 C 751.042969 160.589844 760.246094 161.753906 767.625 166.046875 Z M 767.625 166.046875 " fill-opacity="1" fill-rule="nonzero"/><g clip-path="url(#43d62f0f5f)"><path fill="#dde9fe" d="M 804.722656 217.605469 C 804.839844 258.144531 776.207031 307.804688 740.917969 328.179688 C 737.863281 329.933594 732.34375 333.128906 724.882812 337.441406 L 724.953125 371.277344 C 724.976562 382.054688 717.421875 395.183594 708.042969 400.582031 L 500.332031 520.5625 C 495.242188 523.5 490.671875 523.523438 487.542969 521.226562 C 487.78125 521.417969 488.019531 521.582031 488.277344 521.75 L 481.101562 517.554688 C 478.046875 515.777344 476.175781 512.035156 476.152344 506.679688 L 476.082031 481.113281 C 459.929688 490.449219 447.613281 497.582031 441.21875 501.253906 C 420.089844 513.457031 401.074219 514.214844 387.621094 505.683594 C 388 505.921875 388.378906 506.183594 388.757812 506.417969 L 370.1875 495.613281 C 356.925781 487.890625 348.730469 471.519531 348.660156 448.277344 C 348.519531 401.578125 381.320312 344.761719 422.152344 321.164062 C 425.324219 319.339844 428.5 317.730469 431.460938 316.476562 C 431.269531 313.394531 431.058594 310.550781 431.058594 307.375 C 430.867188 245.160156 474.730469 169.390625 529.039062 138.019531 C 556.464844 122.195312 581.261719 120.679688 599.074219 131.054688 L 617.6875 141.859375 C 617.546875 141.789062 617.382812 141.71875 617.238281 141.644531 C 622.332031 144.535156 626.878906 148.375 630.738281 153.113281 C 641.136719 141.03125 652.929688 130.960938 665.460938 123.710938 C 687.488281 110.988281 707.429688 109.730469 721.804688 118.070312 L 736.535156 126.648438 C 736.300781 126.507812 736.0625 126.386719 735.824219 126.269531 C 747.3125 132.621094 755.339844 145.011719 758.207031 162.496094 C 761.59375 163.207031 764.742188 164.367188 767.632812 166.050781 L 786.203125 176.855469 C 786.011719 176.734375 785.800781 176.640625 785.585938 176.523438 C 797.332031 183.011719 804.675781 197.207031 804.722656 217.605469 Z M 804.722656 217.605469 " fill-opacity="1" fill-rule="nonzero"/></g><path fill="#b3c9e2" d="M 721.796875 118.074219 L 736.53125 126.636719 C 722.167969 118.289062 702.226562 119.5625 680.195312 132.285156 C 665.328125 140.871094 651.476562 153.425781 639.804688 168.625 L 625.074219 160.0625 C 636.742188 144.863281 650.597656 132.304688 665.464844 123.71875 C 687.496094 110.996094 707.433594 109.722656 721.796875 118.074219 Z M 721.796875 118.074219 " fill-opacity="1" fill-rule="nonzero"/><path fill="#c7d8ef" d="M 617.683594 141.871094 C 599.835938 131.488281 575.066406 133.003906 547.628906 148.835938 C 493.320312 180.203125 449.449219 255.976562 449.632812 318.160156 C 449.632812 321.351562 449.855469 324.199219 450.054688 327.289062 L 431.457031 316.480469 C 431.273438 313.390625 431.050781 310.542969 431.050781 307.375 C 430.871094 245.167969 474.742188 169.394531 529.050781 138.03125 C 556.464844 122.195312 581.257812 120.679688 599.082031 131.0625 Z M 617.683594 141.871094 " fill-opacity="1" fill-rule="nonzero"/><g clip-path="url(#15d9348461)"><path fill="#b3c9e2" d="M 388.761719 506.410156 L 370.179688 495.605469 C 356.925781 487.902344 348.726562 471.511719 348.660156 448.277344 C 348.527344 401.574219 381.328125 344.757812 422.160156 321.175781 C 425.320312 319.351562 428.492188 317.734375 431.464844 316.484375 L 450.046875 327.289062 C 447.078125 328.539062 443.902344 330.15625 440.746094 331.980469 C 399.910156 355.5625 367.109375 412.378906 367.242188 459.082031 C 367.308594 482.3125 375.511719 498.703125 388.761719 506.410156 Z M 388.761719 506.410156 " fill-opacity="1" fill-rule="nonzero"/></g><path fill="#dde9fe" d="M 547.628906 148.839844 C 589.855469 124.453125 625.804688 134.035156 639.804688 168.625 C 651.476562 153.425781 665.328125 140.871094 680.195312 132.285156 C 722.8125 107.671875 757.613281 125.914062 759.328125 173.753906 C 785.523438 167.75 804.628906 184.5625 804.722656 217.609375 C 804.839844 258.148438 776.199219 307.792969 740.914062 328.171875 C 712.960938 344.316406 478.085938 479.96875 441.222656 501.257812 C 400.390625 524.84375 367.375 505.785156 367.242188 459.082031 C 367.109375 412.378906 399.910156 355.5625 440.746094 331.980469 C 443.902344 330.15625 447.078125 328.539062 450.046875 327.289062 C 449.851562 324.199219 449.640625 321.351562 449.632812 318.171875 C 449.457031 255.976562 493.320312 180.207031 547.628906 148.839844 Z M 547.628906 148.839844 " fill-opacity="1" fill-rule="nonzero"/><path fill="#b0c4ff" d="M 724.953125 371.277344 C 724.976562 382.054688 717.421875 395.183594 708.042969 400.582031 L 500.332031 520.5625 C 495.242188 523.5 490.671875 523.523438 487.542969 521.226562 C 487.78125 521.417969 488.019531 521.582031 488.277344 521.75 L 481.101562 517.554688 C 478.046875 515.777344 476.175781 512.035156 476.152344 506.679688 L 475.703125 320.8125 C 475.679688 310.03125 483.257812 296.929688 492.613281 291.527344 L 700.347656 171.546875 C 705.058594 168.84375 709.324219 168.585938 712.402344 170.386719 L 719.53125 174.507812 C 722.585938 176.261719 724.503906 180.050781 724.527344 185.429688 Z M 724.953125 371.277344 " fill-opacity="1" fill-rule="nonzero"/><path fill="#92b2f9" d="M 719.578125 174.539062 C 716.488281 172.75 712.214844 173.003906 707.511719 175.722656 L 499.789062 295.703125 C 490.414062 301.101562 482.859375 314.222656 482.886719 324.976562 L 483.316406 510.851562 C 483.332031 516.191406 485.222656 519.964844 488.269531 521.738281 L 481.09375 517.558594 C 478.046875 515.78125 476.167969 512.023438 476.152344 506.671875 L 475.710938 320.808594 C 475.679688 310.039062 483.25 296.933594 492.609375 291.519531 L 700.347656 171.558594 C 705.050781 168.835938 709.324219 168.585938 712.398438 170.375 Z M 719.578125 174.539062 " fill-opacity="1" fill-rule="nonzero"/><path fill="#b0c4ff" d="M 707.507812 175.726562 C 716.875 170.316406 724.488281 174.65625 724.519531 185.421875 L 724.953125 371.285156 C 724.984375 382.050781 717.417969 395.171875 708.050781 400.582031 L 500.328125 520.554688 C 490.960938 525.960938 483.347656 521.609375 483.316406 510.84375 L 482.882812 324.980469 C 482.851562 314.214844 490.417969 301.105469 499.785156 295.699219 Z M 707.507812 175.726562 " fill-opacity="1" fill-rule="nonzero"/><path fill="#ffffff" d="M 603.734375 259.316406 C 633.84375 241.925781 658.335938 255.867188 658.433594 290.476562 C 658.535156 325.082031 634.199219 367.238281 604.089844 384.625 C 573.992188 402.011719 549.5 388.058594 549.398438 353.449219 C 549.300781 318.839844 573.636719 276.699219 603.734375 259.316406 Z M 603.734375 259.316406 " fill-opacity="1" fill-rule="nonzero"/><path fill="#285294" d="M 632.683594 299.429688 C 632.671875 304.808594 631.695312 310.480469 629.449219 316.464844 C 627.789062 320.875 627.6875 324.414062 628.769531 327.433594 C 630.585938 332.535156 626.910156 340.40625 621.523438 343.519531 C 621.152344 343.734375 620.769531 343.925781 620.382812 344.09375 C 620.207031 344.171875 620.035156 344.257812 619.871094 344.351562 C 618.238281 345.296875 617.058594 347.125 616.886719 349.203125 C 616.804688 350.261719 616.269531 351.222656 615.5625 351.890625 C 613.726562 353.632812 611.863281 355.457031 609.96875 356.875 C 607.925781 358.40625 605.882812 359.773438 603.84375 360.953125 C 600.753906 362.738281 597.671875 364.082031 594.617188 364.863281 C 593.828125 365.0625 593.007812 365.210938 592.355469 365.066406 C 591.902344 364.96875 591.503906 364.484375 591.386719 363.929688 C 591.027344 362.152344 589.984375 361.605469 588.339844 362.554688 C 588.15625 362.660156 587.960938 362.789062 587.761719 362.933594 C 587.367188 363.214844 586.980469 363.464844 586.605469 363.683594 C 583.210938 365.644531 580.496094 365.007812 579.265625 361.851562 C 578.667969 360.246094 578.6875 358.246094 579.332031 355.957031 C 580.566406 351.664062 580.132812 348.59375 578.683594 346.015625 C 573.21875 336.378906 574.003906 323.558594 581.6875 308.023438 C 587.351562 296.558594 594.695312 288.234375 603.25 283.292969 C 605.027344 282.265625 606.855469 281.382812 608.734375 280.652344 C 618.886719 276.675781 626 279.238281 630.300781 287.433594 C 632.007812 290.675781 632.671875 294.785156 632.683594 299.429688 Z M 616.546875 329.546875 C 621.464844 326.707031 624.644531 320.347656 624.035156 314.808594 C 623.394531 308.832031 620.046875 306.566406 614.925781 307.277344 C 614.0625 307.394531 613.214844 307.699219 612.417969 308.160156 C 609.691406 309.738281 607.519531 313.128906 607.027344 317.015625 C 606.222656 323.207031 607.566406 327.574219 610.96875 329.9375 C 612.445312 330.972656 614.339844 330.789062 616.546875 329.546875 M 591.40625 344.113281 C 593.734375 342.769531 596.039062 340.207031 597.683594 336.929688 C 600.046875 332.179688 601.167969 327.625 601.15625 323.273438 C 601.152344 322.785156 601.179688 322.28125 601.152344 321.808594 C 600.796875 317.503906 598.71875 316.15625 595.519531 318.003906 C 594.75 318.449219 593.914062 319.078125 593.019531 319.898438 C 589.121094 323.417969 583.683594 332.257812 583.929688 339.4375 C 584.082031 343.578125 585.902344 345.585938 588.957031 345.058594 C 589.757812 344.914062 590.582031 344.589844 591.40625 344.113281 M 608.691406 344.726562 C 609.332031 341.363281 607.59375 338.003906 605.21875 337.945312 C 604.796875 337.933594 604.394531 338.042969 604.003906 338.269531 C 603.449219 338.589844 602.921875 339.140625 602.390625 339.902344 C 600.417969 342.769531 599.546875 345.679688 599.359375 348.523438 C 599.25 350.082031 599.421875 351.480469 600.667969 351.636719 C 601.050781 351.675781 601.414062 351.574219 601.765625 351.371094 C 602.554688 350.917969 603.269531 349.960938 603.972656 349.015625 L 604.171875 348.835938 L 604.625 348.929688 C 605.300781 349.027344 605.925781 348.90625 606.472656 348.589844 C 607.535156 347.976562 608.320312 346.632812 608.691406 344.726562 " fill-opacity="1" fill-rule="nonzero"/><path fill="#ffffff" d="M 673.101562 364.105469 C 676.621094 362.074219 679.460938 363.714844 679.472656 367.738281 L 679.53125 384.871094 C 679.542969 388.894531 676.71875 393.804688 673.203125 395.839844 L 534.734375 475.8125 C 531.230469 477.832031 528.375 476.203125 528.363281 472.179688 L 528.304688 455.046875 C 528.292969 451.023438 531.132812 446.101562 534.632812 444.078125 Z M 673.101562 364.105469 " fill-opacity="1" fill-rule="nonzero"/><path fill="#5789dc" d="M 545.917969 445.824219 L 545.933594 451.261719 L 550.550781 446.738281 L 551.40625 448.953125 L 546.785156 453.355469 L 549.667969 456.28125 L 547.570312 459.234375 L 544.773438 456.082031 L 541.992188 462.457031 L 539.820312 461.964844 L 542.710938 455.707031 L 538.039062 456.671875 L 538.886719 453.476562 L 543.472656 452.722656 L 543.457031 447.242188 Z M 545.917969 445.824219 " fill-opacity="1" fill-rule="nonzero"/><path fill="#5789dc" d="M 562.824219 436.058594 L 562.839844 441.496094 L 567.460938 436.972656 L 568.320312 439.183594 L 563.703125 443.585938 L 566.574219 446.515625 L 564.480469 449.46875 L 561.691406 446.3125 L 558.902344 452.691406 L 556.730469 452.199219 L 559.628906 445.9375 L 554.957031 446.902344 L 555.792969 443.710938 L 560.382812 442.957031 L 560.367188 437.476562 Z M 562.824219 436.058594 " fill-opacity="1" fill-rule="nonzero"/><path fill="#5789dc" d="M 579.742188 426.285156 L 579.757812 431.726562 L 584.375 427.199219 L 585.230469 429.417969 L 580.609375 433.820312 L 583.484375 436.75 L 581.386719 439.703125 L 578.601562 436.546875 L 575.808594 442.921875 L 573.644531 442.429688 L 576.539062 436.171875 L 571.863281 437.136719 L 572.703125 433.945312 L 577.289062 433.191406 L 577.273438 427.710938 Z M 579.742188 426.285156 " fill-opacity="1" fill-rule="nonzero"/><path fill="#5789dc" d="M 596.648438 416.519531 L 596.664062 421.960938 L 601.285156 417.433594 L 602.144531 419.644531 L 597.519531 424.050781 L 600.402344 426.980469 L 598.304688 429.933594 L 595.507812 426.78125 L 592.726562 433.152344 L 590.554688 432.664062 L 593.445312 426.40625 L 588.773438 427.371094 L 589.617188 424.171875 L 594.207031 423.421875 L 594.191406 417.941406 Z M 596.648438 416.519531 " fill-opacity="1" fill-rule="nonzero"/><path fill="#5789dc" d="M 613.5625 406.753906 L 613.578125 412.195312 L 618.199219 407.667969 L 619.058594 409.878906 L 614.429688 414.285156 L 617.3125 417.214844 L 615.214844 420.164062 L 612.421875 417.015625 L 609.636719 423.386719 L 607.46875 422.898438 L 610.359375 416.640625 L 605.683594 417.605469 L 606.53125 414.40625 L 611.117188 413.65625 L 611.101562 408.175781 Z M 613.5625 406.753906 " fill-opacity="1" fill-rule="nonzero"/><path fill="#5789dc" d="M 630.476562 396.988281 L 630.492188 402.429688 L 635.109375 397.902344 L 635.972656 400.113281 L 631.34375 404.519531 L 634.226562 407.445312 L 632.128906 410.398438 L 629.332031 407.25 L 626.550781 413.621094 L 624.378906 413.132812 L 627.269531 406.875 L 622.597656 407.839844 L 623.445312 404.640625 L 628.03125 403.890625 L 628.015625 398.410156 Z M 630.476562 396.988281 " fill-opacity="1" fill-rule="nonzero"/><path fill="#5789dc" d="M 647.386719 387.222656 L 647.402344 392.664062 L 652.023438 388.136719 L 652.882812 390.347656 L 648.257812 394.753906 L 651.136719 397.679688 L 649.042969 400.632812 L 646.246094 397.484375 L 643.460938 403.855469 L 641.292969 403.367188 L 644.183594 397.109375 L 639.511719 398.074219 L 640.355469 394.875 L 644.941406 394.125 L 644.929688 388.644531 Z M 647.386719 387.222656 " fill-opacity="1" fill-rule="nonzero"/><path fill="#5789dc" d="M 664.300781 377.457031 L 664.316406 382.898438 L 668.933594 378.371094 L 669.796875 380.582031 L 665.167969 384.988281 L 668.050781 387.914062 L 665.953125 390.867188 L 663.15625 387.71875 L 660.375 394.089844 L 658.203125 393.601562 L 661.09375 387.339844 L 656.421875 388.308594 L 657.269531 385.109375 L 661.855469 384.359375 L 661.839844 378.878906 Z M 664.300781 377.457031 " fill-opacity="1" fill-rule="nonzero"/><path fill="#b0c4ff" d="M 841.648438 195.808594 C 841.648438 202.417969 837.003906 210.472656 831.25 213.8125 L 759.886719 255.039062 C 757 256.699219 754.371094 256.863281 752.476562 255.75 L 752.238281 255.609375 L 748.070312 253.191406 C 746.199219 252.101562 745.039062 249.804688 745.039062 246.511719 L 744.753906 213.199219 C 744.753906 206.5625 749.398438 198.53125 755.152344 195.191406 L 826.535156 153.988281 C 829.425781 152.308594 832.03125 152.140625 833.925781 153.253906 L 837.953125 155.601562 C 838.070312 155.648438 838.164062 155.71875 838.285156 155.789062 C 840.179688 156.855469 841.363281 159.179688 841.363281 162.496094 Z M 841.648438 195.808594 " fill-opacity="1" fill-rule="nonzero"/><path fill="#92b2f9" d="M 838.339844 155.8125 C 836.441406 154.710938 833.816406 154.867188 830.925781 156.539062 L 759.554688 197.765625 C 753.796875 201.082031 749.15625 209.140625 749.171875 215.746094 L 749.4375 249.074219 C 749.445312 252.355469 750.609375 254.671875 752.480469 255.761719 L 748.070312 253.195312 C 746.199219 252.101562 745.046875 249.796875 745.039062 246.507812 L 744.765625 213.1875 C 744.746094 206.574219 749.398438 198.523438 755.144531 195.199219 L 826.527344 153.980469 C 829.414062 152.308594 832.039062 152.152344 833.929688 153.253906 Z M 838.339844 155.8125 " fill-opacity="1" fill-rule="nonzero"/><path fill="#b0c4ff" d="M 830.925781 156.539062 C 836.675781 153.214844 841.355469 155.882812 841.371094 162.496094 L 841.636719 195.816406 C 841.65625 202.425781 837.011719 210.484375 831.257812 213.808594 L 759.882812 255.03125 C 754.132812 258.355469 749.457031 255.683594 749.4375 249.070312 L 749.171875 215.75 C 749.152344 209.136719 753.800781 201.085938 759.550781 197.765625 Z M 830.925781 156.539062 " fill-opacity="1" fill-rule="nonzero"/><path fill="#ffffff" d="M 755.214844 251.558594 C 754.355469 251.558594 754.335938 249.160156 754.335938 249.054688 L 754.070312 215.710938 C 754.058594 210.871094 757.765625 204.457031 762 202.011719 L 833.375 160.78125 C 834.582031 160.085938 835.332031 160.011719 835.597656 160.011719 C 836.453125 160.011719 836.472656 162.40625 836.472656 162.507812 L 836.738281 195.851562 C 836.75 200.695312 833.046875 207.113281 828.808594 209.5625 L 757.433594 250.789062 C 756.226562 251.484375 755.480469 251.558594 755.214844 251.558594 Z M 755.214844 251.558594 " fill-opacity="1" fill-rule="nonzero"/><path fill="#285294" d="M 770.675781 213.488281 L 770.714844 227.535156 L 769.039062 228.503906 L 769.019531 221.933594 L 762.664062 225.605469 L 762.683594 232.175781 L 761.007812 233.140625 L 760.96875 219.09375 L 762.644531 218.125 L 762.660156 223.929688 L 769.015625 220.261719 L 769 214.453125 Z M 770.675781 213.488281 " fill-opacity="1" fill-rule="nonzero"/><path fill="#285294" d="M 778.660156 208.875 L 783.136719 220.363281 L 781.320312 221.410156 L 780.070312 217.921875 L 775.234375 220.714844 L 773.921875 225.683594 L 772.226562 226.664062 L 776.789062 209.957031 Z M 775.707031 218.882812 L 779.535156 216.675781 L 777.660156 211.542969 L 775.707031 218.882812 " fill-opacity="1" fill-rule="nonzero"/><path fill="#285294" d="M 789.75 202.085938 C 791.296875 201.195312 792.5 200.964844 793.359375 201.414062 C 794.21875 201.855469 794.691406 202.644531 794.792969 203.78125 L 793.175781 204.714844 C 792.992188 203.914062 792.625 203.40625 792.074219 203.199219 C 791.527344 202.984375 790.761719 203.160156 789.773438 203.730469 C 788.570312 204.425781 787.601562 205.472656 786.863281 206.875 C 786.121094 208.273438 785.757812 209.976562 785.765625 211.984375 C 785.769531 213.632812 786.105469 214.773438 786.777344 215.410156 C 787.449219 216.046875 788.445312 215.984375 789.773438 215.21875 C 790.996094 214.511719 791.921875 213.4375 792.554688 211.992188 C 792.890625 211.230469 793.140625 210.339844 793.308594 209.316406 L 794.917969 208.386719 C 794.78125 209.945312 794.308594 211.460938 793.5 212.929688 C 792.53125 214.699219 791.226562 216.054688 789.578125 217.007812 C 788.15625 217.828125 786.960938 218.027344 785.996094 217.59375 C 784.722656 217.019531 784.078125 215.371094 784.070312 212.640625 C 784.066406 210.566406 784.539062 208.59375 785.488281 206.710938 C 786.519531 204.675781 787.9375 203.136719 789.75 202.085938 Z M 789.75 202.085938 " fill-opacity="1" fill-rule="nonzero"/><path fill="#285294" d="M 806.769531 192.640625 L 801.703125 201.242188 L 806.949219 206.609375 L 804.796875 207.851562 L 800.5 203.277344 L 798.550781 206.554688 L 798.566406 211.449219 L 796.949219 212.382812 L 796.910156 198.335938 L 798.523438 197.402344 L 798.542969 204.25 L 804.480469 193.960938 Z M 806.769531 192.640625 " fill-opacity="1" fill-rule="nonzero"/><path fill="#285294" d="M 817.347656 186.53125 L 817.351562 188.25 L 810.054688 192.46875 L 810.066406 196.734375 L 816.8125 192.835938 L 816.820312 194.464844 L 810.070312 198.359375 L 810.085938 203.121094 L 817.503906 198.835938 L 817.511719 200.507812 L 808.472656 205.726562 L 808.433594 191.679688 Z M 817.347656 186.53125 " fill-opacity="1" fill-rule="nonzero"/><path fill="#285294" d="M 828.585938 182.097656 C 829.414062 182.863281 829.832031 184.207031 829.839844 186.136719 C 829.84375 187.628906 829.601562 189.121094 829.117188 190.609375 C 828.261719 193.234375 826.789062 195.148438 824.691406 196.363281 L 819.757812 199.210938 L 819.71875 185.160156 L 824.667969 182.304688 C 826.347656 181.332031 827.65625 181.265625 828.585938 182.097656 Z M 828.027344 188.984375 C 828.113281 188.40625 828.152344 187.890625 828.152344 187.4375 C 828.144531 185.695312 827.84375 184.519531 827.234375 183.90625 C 826.632812 183.292969 825.660156 183.371094 824.324219 184.140625 L 821.386719 185.835938 L 821.417969 196.628906 L 824.371094 194.921875 C 824.929688 194.597656 825.390625 194.265625 825.75 193.921875 C 826.394531 193.300781 826.921875 192.515625 827.328125 191.574219 C 827.65625 190.8125 827.890625 189.949219 828.027344 188.984375 " fill-opacity="1" fill-rule="nonzero"/><path fill="#b0c4ff" d="M 507.179688 235.660156 C 507.203125 243.832031 501.46875 253.808594 494.367188 257.90625 L 406.164062 308.84375 C 402.589844 310.90625 399.34375 311.097656 397 309.746094 L 396.855469 309.652344 L 391.550781 306.570312 C 389.253906 305.21875 387.808594 302.378906 387.808594 298.300781 L 387.476562 216.066406 C 387.453125 207.890625 393.1875 197.941406 400.292969 193.839844 L 488.515625 142.902344 C 492.089844 140.839844 495.3125 140.652344 497.65625 142 L 503.105469 145.152344 C 502.9375 145.058594 502.773438 144.964844 502.605469 144.914062 C 505.1875 146.125 506.824219 149.085938 506.847656 153.421875 Z M 507.179688 235.660156 " fill-opacity="1" fill-rule="nonzero"/><path fill="#92b2f9" d="M 503.105469 145.160156 C 500.761719 143.804688 497.519531 143.996094 493.949219 146.058594 L 405.746094 197.011719 C 398.632812 201.109375 392.894531 211.066406 392.917969 219.226562 L 393.246094 301.488281 C 393.253906 305.539062 394.691406 308.402344 397.003906 309.75 L 391.554688 306.578125 C 389.242188 305.230469 387.820312 302.378906 387.808594 298.3125 L 387.472656 216.066406 C 387.449219 207.894531 393.195312 197.945312 400.296875 193.835938 L 488.511719 142.898438 C 492.082031 140.832031 495.324219 140.640625 497.660156 142 Z M 503.105469 145.160156 " fill-opacity="1" fill-rule="nonzero"/><path fill="#b0c4ff" d="M 493.945312 146.0625 C 501.054688 141.957031 506.832031 145.25 506.855469 153.421875 L 507.183594 235.671875 C 507.207031 243.839844 501.464844 253.796875 494.359375 257.902344 L 406.15625 308.851562 C 399.046875 312.957031 393.265625 309.652344 393.242188 301.480469 L 392.914062 219.234375 C 392.890625 211.0625 398.632812 201.113281 405.742188 197.007812 Z M 493.945312 146.0625 " fill-opacity="1" fill-rule="nonzero"/><path fill="#ffffff" d="M 400.382812 304.554688 C 399.320312 304.554688 399.300781 301.589844 399.300781 301.464844 L 398.972656 219.183594 C 398.957031 213.203125 403.535156 205.277344 408.769531 202.257812 L 496.972656 151.304688 C 498.464844 150.445312 499.390625 150.355469 499.71875 150.355469 C 500.777344 150.355469 500.800781 153.3125 500.800781 153.4375 L 501.128906 235.714844 C 501.144531 241.703125 496.566406 249.632812 491.328125 252.660156 L 403.125 303.605469 C 401.636719 304.464844 400.710938 304.554688 400.382812 304.554688 Z M 400.382812 304.554688 " fill-opacity="1" fill-rule="nonzero"/><path fill="#285294" d="M 449.910156 193.167969 C 451.957031 191.984375 454.007812 191.824219 455.417969 193.054688 L 485.328125 224.851562 C 488.980469 228.03125 485.734375 237.703125 479.867188 241.089844 L 420.277344 275.507812 C 414.410156 278.894531 411.117188 273.003906 414.742188 265.621094 L 444.417969 199.40625 C 445.816406 196.554688 447.863281 194.351562 449.910156 193.167969 Z M 449.910156 193.167969 " fill-opacity="1" fill-rule="nonzero"/><path fill="#ffffff" d="M 450.035156 209.703125 C 452.78125 208.113281 454.972656 209.527344 454.796875 212.78125 L 454.0625 229.824219 C 453.933594 232.308594 452.210938 235.179688 450.109375 236.394531 C 448.015625 237.601562 446.273438 236.730469 446.132812 234.402344 L 445.304688 218.265625 C 445.121094 215.214844 447.292969 211.285156 450.035156 209.703125 Z M 450.035156 209.703125 " fill-opacity="1" fill-rule="nonzero"/><path fill="#ffffff" d="M 450.125 239.398438 C 452.101562 238.257812 453.71875 239.179688 453.726562 241.460938 C 453.730469 243.746094 452.125 246.519531 450.148438 247.660156 C 448.152344 248.8125 446.546875 247.898438 446.539062 245.613281 C 446.53125 243.328125 448.128906 240.550781 450.125 239.398438 Z M 450.125 239.398438 " fill-opacity="1" fill-rule="nonzero"/><path fill="#5789dc" d="M 767.65625 449.082031 C 767.65625 451.949219 765.644531 455.457031 763.132812 456.902344 L 688.765625 499.855469 L 688.929688 559.679688 L 728.71875 536.699219 C 729.976562 535.964844 731.113281 535.917969 731.941406 536.390625 L 739.78125 540.964844 C 739.78125 540.964844 739.78125 540.964844 739.804688 540.964844 C 740.609375 541.4375 741.132812 542.433594 741.132812 543.878906 C 741.132812 546.742188 739.117188 550.25 736.609375 551.695312 L 684.476562 581.808594 C 683.269531 582.496094 682.109375 582.613281 681.257812 582.140625 L 673.394531 577.566406 C 672.542969 577.070312 672.042969 576.027344 672.042969 574.652344 L 671.832031 495.332031 C 671.832031 493.957031 672.304688 492.320312 673.132812 490.851562 C 673.988281 489.40625 675.144531 488.175781 676.332031 487.488281 L 755.222656 441.925781 C 756.5 441.191406 757.640625 441.121094 758.46875 441.597656 L 766.332031 446.167969 C 766.285156 446.144531 766.261719 446.121094 766.210938 446.121094 C 767.113281 446.546875 767.65625 447.589844 767.65625 449.082031 Z M 767.65625 449.082031 " fill-opacity="1" fill-rule="nonzero"/><g clip-path="url(#0106f073b5)"><path fill="#5789dc" d="M 898.726562 525.277344 C 898.726562 528.167969 896.714844 531.652344 894.203125 533.121094 L 819.832031 576.050781 L 820.023438 635.875 L 859.789062 612.917969 C 861.042969 612.183594 862.179688 612.113281 863.011719 612.585938 L 870.847656 617.160156 L 870.875 617.160156 C 871.703125 617.632812 872.199219 618.652344 872.199219 620.074219 C 872.199219 622.941406 870.1875 626.445312 867.675781 627.890625 L 815.546875 658.003906 C 814.339844 658.691406 813.179688 658.808594 812.324219 658.335938 C 812.253906 658.289062 812.183594 658.242188 812.136719 658.195312 C 812.207031 658.265625 812.253906 658.3125 812.324219 658.359375 L 804.460938 653.765625 C 803.609375 653.265625 803.113281 652.222656 803.113281 650.851562 L 802.898438 571.527344 C 802.898438 570.152344 803.375 568.519531 804.203125 567.074219 C 805.054688 565.601562 806.214844 564.371094 807.421875 563.683594 L 886.316406 518.125 C 887.570312 517.390625 888.707031 517.316406 889.535156 517.816406 L 897.398438 522.363281 C 897.351562 522.339844 897.304688 522.316406 897.257812 522.316406 C 898.15625 522.742188 898.726562 523.761719 898.726562 525.277344 Z M 898.726562 525.277344 " fill-opacity="1" fill-rule="nonzero"/></g><path fill="#5789dc" d="M 812.167969 640.402344 L 820.039062 644.984375 L 867.652344 617.488281 C 868.914062 616.753906 870.0625 616.691406 870.875 617.171875 L 863.007812 612.589844 C 862.175781 612.109375 861.042969 612.171875 859.78125 612.90625 Z M 812.167969 640.402344 " fill-opacity="1" fill-rule="nonzero"/><g clip-path="url(#856cbca1fc)"><path fill="#5789dc" d="M 802.894531 571.519531 L 803.117188 650.847656 C 803.117188 652.21875 803.613281 653.273438 804.460938 653.769531 L 812.328125 658.351562 C 811.484375 657.855469 811.003906 656.785156 810.988281 655.429688 L 810.765625 576.085938 C 810.765625 574.714844 811.242188 573.085938 812.089844 571.632812 C 812.917969 570.179688 814.101562 568.949219 815.28125 568.261719 L 894.175781 522.691406 C 895.4375 521.972656 896.585938 521.894531 897.402344 522.371094 L 889.53125 517.804688 C 888.703125 517.324219 887.566406 517.390625 886.308594 518.125 L 807.414062 563.679688 C 806.214844 564.367188 805.050781 565.613281 804.203125 567.066406 C 803.375 568.519531 802.894531 570.144531 802.894531 571.519531 Z M 802.894531 571.519531 " fill-opacity="1" fill-rule="nonzero"/></g><g clip-path="url(#94bb188269)"><path fill="#4075c1" d="M 815.289062 568.257812 C 814.097656 568.945312 812.925781 570.1875 812.082031 571.636719 C 811.25 573.089844 810.765625 574.71875 810.769531 576.089844 L 810.992188 655.421875 C 810.996094 656.792969 811.488281 657.855469 812.328125 658.347656 C 813.175781 658.816406 814.351562 658.703125 815.542969 658.015625 L 867.679688 627.902344 C 870.1875 626.453125 872.207031 622.953125 872.199219 620.070312 C 872.191406 617.199219 870.15625 616.039062 867.652344 617.488281 L 820.039062 644.988281 L 819.84375 576.058594 L 894.207031 533.109375 C 896.714844 531.664062 898.738281 528.160156 898.726562 525.289062 C 898.71875 522.410156 896.683594 521.25 894.179688 522.695312 Z M 815.289062 568.257812 " fill-opacity="1" fill-rule="nonzero"/></g><path fill="#5789dc" d="M 681.09375 564.203125 L 688.964844 568.785156 L 736.578125 541.289062 C 737.839844 540.554688 738.988281 540.492188 739.800781 540.972656 L 731.933594 536.386719 C 731.101562 535.910156 729.96875 535.972656 728.707031 536.707031 Z M 681.09375 564.203125 " fill-opacity="1" fill-rule="nonzero"/><path fill="#5789dc" d="M 671.820312 495.320312 L 672.042969 574.644531 C 672.042969 576.019531 672.539062 577.074219 673.386719 577.570312 L 681.253906 582.152344 C 680.410156 581.65625 679.929688 580.585938 679.914062 579.230469 L 679.691406 499.886719 C 679.691406 498.511719 680.167969 496.882812 681.015625 495.429688 C 681.84375 493.980469 683.027344 492.75 684.207031 492.0625 L 763.101562 446.492188 C 764.363281 445.773438 765.511719 445.691406 766.324219 446.171875 L 758.457031 441.605469 C 757.625 441.125 756.492188 441.191406 755.234375 441.925781 L 676.339844 487.480469 C 675.140625 488.167969 673.976562 489.410156 673.128906 490.863281 C 672.300781 492.316406 671.820312 493.945312 671.820312 495.320312 Z M 671.820312 495.320312 " fill-opacity="1" fill-rule="nonzero"/><path fill="#4075c1" d="M 684.214844 492.058594 C 683.023438 492.746094 681.851562 493.984375 681.007812 495.433594 C 680.175781 496.890625 679.691406 498.519531 679.695312 499.890625 L 679.917969 579.222656 C 679.921875 580.59375 680.414062 581.65625 681.253906 582.144531 C 682.101562 582.617188 683.277344 582.503906 684.46875 581.816406 L 736.605469 551.703125 C 739.113281 550.253906 741.132812 546.753906 741.125 543.871094 C 741.117188 541 739.082031 539.839844 736.574219 541.289062 L 688.964844 568.789062 L 688.769531 499.859375 L 763.132812 456.910156 C 765.640625 455.464844 767.660156 451.960938 767.652344 449.089844 C 767.644531 446.210938 765.609375 445.050781 763.105469 446.496094 Z M 684.214844 492.058594 " fill-opacity="1" fill-rule="nonzero"/><path fill="#dde9fe" d="M 954.242188 347.773438 L 901.1875 509.546875 C 899.910156 513.503906 897.117188 517.152344 894.035156 518.953125 L 806 569.796875 C 803.492188 571.242188 801.289062 571.148438 799.820312 569.890625 C 799.988281 570.035156 800.152344 570.222656 800.363281 570.34375 L 663.46875 490.757812 C 662.050781 489.929688 661.171875 488.175781 661.148438 485.664062 C 661.148438 480.617188 664.679688 474.503906 669.058594 471.96875 L 752.050781 424.039062 L 752.074219 424.039062 L 802.96875 268.757812 C 804.296875 264.683594 807.136719 261.058594 810.144531 259.351562 C 811.261719 258.6875 812.421875 258.308594 813.511719 258.285156 C 814.363281 258.238281 815.121094 258.425781 815.785156 258.78125 L 952.652344 338.367188 C 952.488281 338.296875 952.300781 338.25 952.132812 338.175781 C 954.808594 339.242188 955.78125 343.058594 954.242188 347.773438 Z M 954.242188 347.773438 " fill-opacity="1" fill-rule="nonzero"/><path fill="#dde9fe" d="M 952.652344 338.375 C 952.023438 338.007812 951.246094 337.820312 950.378906 337.839844 C 949.289062 337.894531 948.140625 338.265625 947.015625 338.929688 C 944.039062 340.652344 941.191406 344.238281 939.84375 348.324219 L 888.9375 503.609375 L 752.0625 424.042969 L 802.96875 268.757812 C 804.296875 264.671875 807.144531 261.066406 810.140625 259.347656 C 811.265625 258.699219 812.414062 258.3125 813.503906 258.273438 C 814.371094 258.238281 815.128906 258.421875 815.777344 258.792969 Z M 952.652344 338.375 " fill-opacity="1" fill-rule="nonzero"/><path fill="#b3c9e2" d="M 805.949219 551.550781 L 669.058594 471.972656 L 752.054688 424.039062 L 888.941406 503.617188 Z M 805.949219 551.550781 " fill-opacity="1" fill-rule="nonzero"/><path fill="#dde9fe" d="M 800.359375 570.339844 L 663.472656 490.761719 C 662.046875 489.929688 661.164062 488.167969 661.15625 485.664062 C 661.144531 480.628906 664.679688 474.5 669.058594 471.972656 L 805.949219 551.550781 C 801.566406 554.082031 798.03125 560.207031 798.046875 565.242188 C 798.050781 567.746094 798.933594 569.511719 800.359375 570.339844 Z M 800.359375 570.339844 " fill-opacity="1" fill-rule="nonzero"/><path fill="#c7d8ef" d="M 947.019531 338.925781 C 948.148438 338.273438 949.296875 337.890625 950.386719 337.847656 C 954.355469 337.695312 956.082031 342.136719 954.230469 347.777344 L 901.199219 509.542969 C 899.898438 513.511719 897.117188 517.160156 894.035156 518.941406 L 806 569.785156 C 801.617188 572.316406 798.058594 570.28125 798.046875 565.242188 C 798.03125 560.207031 801.566406 554.082031 805.949219 551.550781 L 888.941406 503.617188 L 939.847656 348.332031 C 941.183594 344.242188 944.039062 340.648438 947.019531 338.925781 Z M 947.019531 338.925781 " fill-opacity="1" fill-rule="nonzero"/><path fill="#f7b2b2" d="M 784.140625 366.5625 L 769.324219 400.160156 C 768.613281 401.769531 767.40625 403.121094 765.859375 403.960938 C 756.054688 409.257812 745.320312 413.246094 733.929688 416.304688 L 745.546875 435.460938 L 799.542969 421.328125 L 815.867188 376.105469 L 796.40625 366.5625 Z M 784.140625 366.5625 " fill-opacity="1" fill-rule="nonzero"/><path fill="#eaa7a7" d="M 815.867188 376.113281 L 799.542969 421.324219 L 745.550781 435.46875 L 739.894531 426.128906 C 747.660156 424.707031 755.183594 421.914062 762.023438 417.957031 C 763.445312 417.144531 764.921875 416.460938 766.496094 415.980469 C 767.695312 415.609375 768.824219 415.128906 769.765625 414.316406 C 770.542969 413.648438 771.117188 412.707031 771.335938 411.707031 C 771.726562 410.023438 772.890625 408.675781 774.515625 408.101562 C 774.535156 408.101562 774.535156 408.101562 774.554688 408.101562 C 778.15625 406.832031 781.324219 404.398438 783.527344 401.289062 C 784.628906 399.730469 786.097656 398.523438 787.613281 397.367188 C 788.90625 396.375 789.753906 394.511719 790.023438 392.808594 C 790.449219 390.257812 790.359375 387.410156 792.078125 385.46875 C 793.832031 383.472656 797.4375 382.382812 797.121094 379.738281 C 796.992188 378.777344 796.328125 378 795.828125 377.183594 C 793.886719 373.988281 794.453125 369.6875 796.550781 366.632812 C 796.558594 366.628906 796.5625 366.628906 796.570312 366.628906 Z M 815.867188 376.113281 " fill-opacity="1" fill-rule="nonzero"/><path fill="#eaa7a7" d="M 819.542969 364.777344 C 819.527344 364.960938 819.453125 365.128906 819.304688 365.257812 C 819.191406 365.167969 819.082031 365.09375 818.988281 365 C 819.15625 364.90625 819.339844 364.832031 819.542969 364.777344 Z M 819.542969 364.777344 " fill-opacity="1" fill-rule="nonzero"/><path fill="#54d391" d="M 709.691406 624.386719 C 710.960938 623.53125 711.496094 621.925781 711.03125 620.464844 L 708.613281 615.042969 L 688.566406 625.148438 L 684.957031 634.492188 L 684.707031 641.289062 Z M 709.691406 624.386719 " fill-opacity="1" fill-rule="nonzero"/><path fill="#f7b2b2" d="M 682.867188 604.589844 C 680.273438 611.550781 673.898438 619.667969 666.902344 627.976562 L 679.148438 643.519531 L 692.316406 632.363281 C 693.785156 631.121094 695.425781 630.09375 697.1875 629.316406 L 705.082031 625.839844 C 707.515625 624.765625 709.027344 622.292969 708.875 619.636719 L 707.953125 603.480469 Z M 682.867188 604.589844 " fill-opacity="1" fill-rule="nonzero"/><path fill="#54d391" d="M 686.199219 637.207031 C 684.078125 627.804688 678.242188 623.363281 669.75 622.457031 C 668.019531 622.269531 666.292969 622.980469 665.164062 624.300781 C 660.25 630.035156 655.574219 633.925781 651.871094 639.351562 C 647.988281 645.050781 650.320312 652.878906 656.652344 655.605469 C 660.542969 657.28125 665.046875 656.574219 668.238281 653.785156 L 684.949219 641.074219 C 686.046875 640.117188 686.519531 638.625 686.199219 637.207031 Z M 686.199219 637.207031 " fill-opacity="1" fill-rule="nonzero"/><path fill="#46c17e" d="M 684.941406 641.066406 L 668.234375 653.789062 C 666.199219 655.582031 663.628906 656.507812 661.003906 656.507812 C 659.546875 656.507812 658.046875 656.210938 656.644531 655.601562 C 651.652344 653.457031 649.15625 648.113281 650.246094 643.15625 C 650.949219 646.503906 653.203125 649.5 656.644531 650.980469 C 658.046875 651.589844 659.546875 651.886719 661.003906 651.886719 C 663.628906 651.886719 666.199219 650.960938 668.234375 649.167969 L 684.941406 636.445312 C 685.273438 636.167969 685.535156 635.851562 685.753906 635.5 C 685.921875 636.058594 686.070312 636.613281 686.199219 637.203125 C 686.511719 638.628906 686.050781 640.125 684.941406 641.066406 Z M 684.941406 641.066406 " fill-opacity="1" fill-rule="nonzero"/><path fill="#54d391" d="M 623.894531 561.238281 L 649.667969 563.105469 C 652.027344 563.277344 654.207031 561.828125 654.957031 559.582031 L 657.25 552.738281 L 633.902344 538.9375 L 622.128906 556.214844 Z M 623.894531 561.238281 " fill-opacity="1" fill-rule="nonzero"/><path fill="#f7b2b2" d="M 641.242188 526.507812 C 634.800781 531.152344 628.308594 532.488281 618.722656 532.089844 L 615.105469 553.230469 L 646.277344 559.625 C 650.058594 560.398438 653.90625 558.648438 655.808594 555.289062 L 662.195312 543.992188 Z M 641.242188 526.507812 " fill-opacity="1" fill-rule="nonzero"/><path fill="#54d391" d="M 618.722656 532.089844 C 606.386719 531.820312 596.996094 533.628906 591.027344 537.855469 C 587.261719 540.523438 586.488281 545.78125 589.144531 549.554688 C 595.105469 558.027344 607.046875 561.628906 623.894531 561.238281 C 629.324219 548.1875 628.949219 537.839844 618.722656 532.089844 Z M 618.722656 532.089844 " fill-opacity="1" fill-rule="nonzero"/><path fill="#46c17e" d="M 625.40625 557.210938 C 624.960938 558.523438 624.460938 559.875 623.890625 561.242188 C 607.050781 561.632812 595.109375 558.027344 589.136719 549.558594 C 586.496094 545.785156 587.273438 540.53125 591.023438 537.851562 C 592.261719 536.984375 593.628906 536.226562 595.144531 535.558594 C 592.984375 538.386719 592.871094 542.4375 595.035156 545.507812 C 600.449219 553.21875 610.859375 556.914062 625.40625 557.210938 Z M 625.40625 557.210938 " fill-opacity="1" fill-rule="nonzero"/><path fill="#353437" d="M 768.148438 467.492188 C 768.148438 467.492188 716.800781 467.25 708.34375 481.15625 C 693.355469 505.808594 682.757812 603.480469 682.757812 603.480469 C 682.757812 613.789062 706.421875 611.507812 707.953125 603.480469 L 733.640625 519.351562 C 734.601562 516.203125 737.121094 513.773438 740.300781 512.929688 L 800.800781 496.839844 Z M 768.148438 467.492188 " fill-opacity="1" fill-rule="nonzero"/><path fill="#353437" d="M 833.136719 496.839844 C 823.304688 512.519531 807.738281 512.757812 789.5 505.808594 L 736.324219 475.953125 C 733.707031 474.484375 730.429688 474.957031 728.335938 477.109375 L 665.140625 542.085938 C 658.957031 549.890625 636.078125 531.75 642.261719 523.945312 C 642.261719 523.945312 697.828125 451.632812 723.960938 439.386719 C 739.988281 431.875 796.71875 444.253906 796.71875 444.253906 L 835.976562 479.429688 Z M 833.136719 496.839844 " fill-opacity="1" fill-rule="nonzero"/><path fill="#29282b" d="M 834.5 488.5 L 833.128906 496.839844 C 823.316406 512.519531 807.734375 512.761719 789.488281 505.808594 L 736.328125 475.945312 C 733.703125 474.484375 730.433594 474.964844 728.34375 477.109375 L 665.144531 542.085938 C 662.429688 545.527344 656.476562 543.933594 651.191406 540.402344 C 651.449219 538.941406 652.113281 537.539062 652.871094 536.242188 C 655.902344 531.085938 660.488281 526.832031 665.867188 524.222656 C 668.453125 522.984375 671.375 521.949219 672.910156 519.527344 C 673.722656 518.214844 674.035156 516.644531 674.574219 515.183594 C 676.089844 511.167969 679.65625 508.007812 683.832031 506.992188 C 685.070312 506.695312 686.421875 506.546875 687.476562 505.824219 C 688.675781 504.976562 689.265625 503.550781 689.878906 502.21875 C 691.78125 498.152344 694.480469 494.527344 697.160156 490.921875 C 699.324219 488.019531 701.652344 484.988281 705.015625 483.65625 C 706.402344 483.101562 707.9375 482.859375 709.121094 481.9375 C 710.171875 481.121094 710.800781 479.863281 711.429688 478.664062 C 713.816406 474.132812 716.847656 469.824219 721.042969 466.902344 C 725.238281 463.960938 730.746094 462.59375 735.589844 464.203125 C 741.632812 466.21875 746.234375 472.503906 752.59375 472.300781 C 755.332031 472.210938 757.972656 470.859375 760.710938 471.117188 C 765.441406 471.582031 768.289062 476.445312 772.207031 479.164062 C 776.089844 481.863281 781.003906 482.398438 785.625 483.46875 C 787.214844 483.839844 788.84375 484.300781 790.082031 485.355469 C 792.613281 487.519531 793.074219 491.679688 796.011719 493.195312 C 799.5625 495.046875 803.90625 491.734375 807.769531 492.753906 C 810.191406 493.398438 811.875 495.582031 814.128906 496.671875 C 817.328125 498.1875 821.171875 497.246094 824.238281 495.488281 C 827.289062 493.734375 829.859375 491.238281 832.816406 489.3125 C 833.351562 488.960938 833.90625 488.628906 834.5 488.5 Z M 834.5 488.5 " fill-opacity="1" fill-rule="nonzero"/><path fill="#fc6c85" d="M 894.707031 361.738281 C 872.539062 332.96875 843.679688 323.46875 809.488281 329.3125 C 805.917969 329.925781 802.539062 331.484375 799.875 333.941406 C 792.042969 341.167969 786.988281 351.871094 784.214844 365.429688 C 783.949219 366.726562 784.265625 368.089844 785.03125 369.167969 C 788.558594 374.113281 793.625 376.609375 799.871094 377.222656 C 800.921875 377.328125 801.554688 378.441406 801.109375 379.402344 L 774.261719 437.265625 C 772.652344 440.734375 773.363281 444.84375 776.039062 447.574219 C 789.117188 460.917969 801.859375 472.453125 813.597656 478.523438 C 815.640625 479.578125 817.320312 481.207031 818.429688 483.222656 C 820.652344 487.257812 823.253906 490.804688 826.207031 493.894531 C 831.265625 499.171875 840.171875 497.03125 842.511719 490.105469 L 866.515625 419.101562 C 867.011719 417.636719 868.429688 416.695312 869.972656 416.785156 C 877.945312 417.238281 885.445312 417.144531 892.011719 415.960938 C 895.019531 415.417969 897.242188 412.859375 897.34375 409.804688 L 898.535156 373.839844 C 898.675781 369.488281 897.359375 365.1875 894.707031 361.738281 Z M 894.707031 361.738281 " fill-opacity="1" fill-rule="nonzero"/><path fill="#ea2856" d="M 866.863281 337.226562 C 866.570312 338.1875 866.085938 339.09375 865.460938 339.90625 C 859.488281 347.785156 853.742188 354.21875 847.878906 359.582031 C 845.605469 361.652344 843.054688 363.167969 840.285156 364.074219 C 837.953125 364.832031 835.867188 365.203125 833.925781 365.203125 C 829.914062 365.203125 826.640625 363.558594 824.425781 360.449219 C 822.984375 358.417969 822.222656 355.847656 822.222656 353 L 822.222656 347.488281 L 838.898438 328.3125 C 848.824219 329.515625 858.175781 332.4375 866.863281 337.226562 Z M 866.863281 337.226562 " fill-opacity="1" fill-rule="nonzero"/><path fill="#fc6c85" d="M 859.664062 439.390625 L 852.378906 460.929688 C 829.996094 461.019531 806.140625 457.511719 806.140625 457.511719 L 807.792969 444.796875 Z M 859.664062 439.390625 " fill-opacity="1" fill-rule="nonzero"/><path fill="#ea2856" d="M 871.046875 416.851562 C 870.6875 416.832031 870.332031 416.8125 869.972656 416.792969 C 868.429688 416.699219 867.015625 417.640625 866.507812 419.09375 L 842.511719 490.113281 C 840.175781 497.027344 831.265625 499.175781 826.214844 493.898438 C 823.257812 490.808594 820.660156 487.265625 818.4375 483.214844 C 817.324219 481.199219 815.648438 479.578125 813.597656 478.523438 C 812.503906 477.957031 811.390625 477.335938 810.28125 476.675781 C 811.882812 474.171875 813.785156 471.796875 814.859375 469.027344 C 815.402344 467.558594 815.742188 465.992188 816.535156 464.65625 C 818.945312 460.527344 824.726562 459.660156 827.683594 455.910156 C 829.777344 453.253906 830.191406 449.410156 832.734375 447.167969 C 834.109375 445.960938 835.898438 445.398438 837.441406 444.4375 C 838.988281 443.492188 840.398438 441.835938 840.097656 440.046875 C 839.929688 438.914062 839.121094 437.992188 838.574219 436.972656 C 837.160156 434.335938 837.648438 430.945312 839.234375 428.402344 C 840.796875 425.839844 843.300781 423.992188 845.917969 422.503906 C 846.464844 422.183594 847.085938 421.804688 847.179688 421.183594 C 847.40625 419.527344 844.09375 419.640625 843.695312 418 C 843.601562 417.621094 843.695312 417.226562 843.808594 416.851562 C 846.277344 409.292969 855.976562 407.109375 861.234375 401.132812 C 863.042969 399.101562 863.476562 391.601562 864.699219 389.320312 C 866.207031 386.53125 866.074219 386.570312 866.847656 389.921875 C 868.183594 395.652344 868.671875 406.917969 870.046875 412.703125 C 870.367188 414.082031 870.707031 415.457031 871.046875 416.851562 Z M 871.046875 416.851562 " fill-opacity="1" fill-rule="nonzero"/><path fill="#ea2856" d="M 866.863281 337.226562 C 866.570312 338.1875 866.085938 339.09375 865.460938 339.90625 C 859.488281 347.785156 853.742188 354.21875 847.878906 359.582031 C 845.605469 361.652344 843.054688 363.167969 840.285156 364.074219 C 837.953125 364.832031 835.867188 365.203125 833.925781 365.203125 C 829.914062 365.203125 826.640625 363.558594 824.425781 360.449219 C 822.984375 358.417969 822.222656 355.847656 822.222656 353 L 822.222656 347.488281 L 838.898438 328.3125 C 848.824219 329.515625 858.175781 332.4375 866.863281 337.226562 Z M 866.863281 337.226562 " fill-opacity="1" fill-rule="nonzero"/><path fill="#f7b2b2" d="M 860.445312 319.667969 L 863.992188 335.71875 C 857.992188 343.816406 851.789062 350.996094 845.308594 356.910156 C 843.476562 358.582031 841.300781 359.867188 838.9375 360.621094 C 833.742188 362.265625 829.6875 361.730469 827.265625 358.054688 C 826.308594 356.601562 825.914062 354.84375 825.914062 353.101562 L 825.914062 348.871094 L 851.34375 319.667969 Z M 860.445312 319.667969 " fill-opacity="1" fill-rule="nonzero"/><path fill="#f7b2b2" d="M 863.992188 313.101562 C 863.992188 313.101562 845.691406 350.941406 826.855469 349.058594 C 814.558594 347.828125 807.960938 303.707031 807.960938 303.707031 L 856.996094 301.046875 Z M 863.992188 313.101562 " fill-opacity="1" fill-rule="nonzero"/><path fill="#eaa7a7" d="M 864 313.097656 C 864 313.097656 845.699219 350.945312 826.863281 349.0625 C 814.554688 347.820312 807.953125 303.703125 807.953125 303.703125 L 810.265625 304.628906 C 812.519531 316.128906 818.75 342.679688 828.378906 343.644531 C 843.296875 345.140625 857.878906 321.695312 863.296875 311.894531 Z M 864 313.097656 " fill-opacity="1" fill-rule="nonzero"/><path fill="#dde9fe" d="M 821.300781 450.789062 L 821.277344 455.457031 C 821.277344 456.902344 820.332031 458.347656 818.4375 459.4375 L 772.109375 486.375 C 768.273438 488.601562 762.066406 488.601562 758.230469 486.375 L 691.300781 447.707031 C 689.355469 446.59375 688.386719 445.125 688.386719 443.65625 L 688.410156 439.011719 C 688.410156 437.566406 689.355469 436.121094 691.25 435.007812 L 737.601562 408.070312 C 741.414062 405.84375 747.621094 405.84375 751.457031 408.070312 L 818.414062 446.738281 C 820.355469 447.851562 821.300781 449.320312 821.300781 450.789062 Z M 821.300781 450.789062 " fill-opacity="1" fill-rule="nonzero"/><path fill="#9db6ce" d="M 821.296875 450.777344 L 821.285156 455.449219 C 821.277344 456.898438 820.328125 458.34375 818.429688 459.441406 L 772.101562 486.378906 C 768.28125 488.59375 762.074219 488.59375 758.234375 486.378906 L 691.296875 447.71875 C 689.359375 446.601562 688.390625 445.132812 688.394531 443.667969 L 688.414062 439.007812 C 688.414062 440.472656 689.382812 441.9375 691.304688 443.046875 L 758.246094 481.707031 C 762.082031 483.925781 768.292969 483.925781 772.113281 481.707031 L 818.441406 454.773438 C 820.34375 453.667969 821.289062 452.222656 821.296875 450.777344 Z M 821.296875 450.777344 " fill-opacity="1" fill-rule="nonzero"/><path fill="#dde9fe" d="M 818.402344 446.734375 C 822.242188 448.953125 822.261719 452.550781 818.445312 454.773438 L 772.113281 481.707031 C 768.292969 483.925781 762.085938 483.925781 758.246094 481.707031 L 691.308594 443.046875 C 687.464844 440.824219 687.441406 437.230469 691.261719 435.007812 L 737.589844 408.074219 C 741.410156 405.855469 747.621094 405.855469 751.464844 408.074219 Z M 818.402344 446.734375 " fill-opacity="1" fill-rule="nonzero"/><path fill="#92b2f9" d="M 763.820312 482.867188 C 763.914062 482.773438 764.007812 482.679688 764.082031 482.558594 C 764.035156 482.632812 763.988281 482.703125 763.9375 482.773438 C 763.890625 482.796875 763.867188 482.84375 763.820312 482.867188 Z M 763.820312 482.867188 " fill-opacity="1" fill-rule="nonzero"/><path fill="#92b2f9" d="M 767.703125 479.410156 L 763.9375 482.773438 C 763.988281 482.703125 764.035156 482.632812 764.082031 482.558594 C 764.007812 482.679688 763.914062 482.773438 763.820312 482.867188 C 762.96875 483.675781 761.261719 483.53125 759.058594 482.253906 L 692.105469 443.585938 C 688.269531 441.382812 684.359375 436.574219 683.386719 432.875 L 671.546875 388.074219 C 671.121094 386.488281 671.308594 385.375 671.972656 384.78125 L 675.878906 381.296875 C 676.757812 380.515625 678.4375 380.683594 680.640625 381.9375 L 747.574219 420.605469 C 751.410156 422.808594 755.316406 427.617188 756.289062 431.289062 L 768.132812 476.117188 C 768.558594 477.703125 768.367188 478.839844 767.703125 479.410156 Z M 767.703125 479.410156 " fill-opacity="1" fill-rule="nonzero"/><path fill="#92b2f9" d="M 763.820312 482.867188 C 763.914062 482.773438 764.007812 482.679688 764.082031 482.558594 C 764.035156 482.632812 763.988281 482.703125 763.9375 482.773438 C 763.890625 482.796875 763.867188 482.84375 763.820312 482.867188 Z M 763.820312 482.867188 " fill-opacity="1" fill-rule="nonzero"/><path fill="#92b2f9" d="M 767.707031 479.421875 L 763.804688 482.894531 C 764.464844 482.300781 764.660156 481.179688 764.242188 479.585938 L 752.394531 434.777344 C 751.414062 431.085938 747.511719 426.296875 743.667969 424.078125 L 676.734375 385.417969 C 674.546875 384.152344 672.847656 383.992188 671.976562 384.773438 L 675.878906 381.300781 C 676.753906 380.519531 678.449219 380.675781 680.636719 381.941406 L 747.570312 420.601562 C 751.414062 422.816406 755.320312 427.609375 756.296875 431.300781 L 768.140625 476.109375 C 768.5625 477.699219 768.371094 478.828125 767.707031 479.421875 Z M 767.707031 479.421875 " fill-opacity="1" fill-rule="nonzero"/><path fill="#285294" d="M 743.671875 424.078125 C 747.511719 426.292969 751.417969 431.085938 752.394531 434.777344 L 764.238281 479.585938 C 765.214844 483.277344 762.890625 484.472656 759.050781 482.253906 L 692.113281 443.59375 C 688.269531 441.375 684.359375 436.582031 683.386719 432.886719 L 671.539062 388.082031 C 670.5625 384.386719 672.890625 383.195312 676.734375 385.417969 Z M 743.671875 424.078125 " fill-opacity="1" fill-rule="nonzero"/><path fill="#b0c4ff" d="M 715.957031 440.875 C 719.152344 442.722656 721.753906 441.242188 721.765625 437.566406 C 721.777344 433.890625 719.191406 429.414062 715.992188 427.566406 C 712.796875 425.71875 710.195312 427.203125 710.183594 430.878906 C 710.171875 434.554688 712.757812 439.027344 715.957031 440.875 Z M 715.957031 440.875 " fill-opacity="1" fill-rule="nonzero"/><path fill="#f7b2b2" d="M 887.601562 453.976562 C 881.429688 459.246094 867.214844 460.894531 852.371094 460.929688 C 835.460938 461.003906 817.714844 459.007812 810.042969 458.046875 C 810.042969 458.046875 780.246094 461.023438 780.507812 453.886719 C 780.695312 448.960938 791.171875 446.703125 794.402344 446.121094 C 794.632812 446.082031 794.65625 445.757812 794.433594 445.679688 C 793.136719 445.222656 790.824219 444.207031 790.082031 442.585938 C 788.796875 439.816406 791.941406 440.542969 795.277344 441.738281 C 798.328125 442.832031 803.464844 443.964844 806.699219 444.234375 L 807.085938 444.265625 C 809.214844 444.441406 811.351562 444.417969 813.476562 444.195312 L 859.65625 439.386719 L 864.238281 438.925781 C 866.457031 438.703125 868.121094 436.835938 868.15625 434.597656 L 868.285156 417.105469 C 868.804688 416.867188 869.378906 416.753906 869.988281 416.773438 C 877.9375 417.234375 885.441406 417.125 892.003906 415.960938 C 893.277344 415.71875 894.40625 415.148438 895.273438 414.316406 C 895.273438 414.316406 895.605469 447.191406 887.601562 453.976562 Z M 887.601562 453.976562 " fill-opacity="1" fill-rule="nonzero"/><path fill="#eaa7a7" d="M 887.601562 453.976562 C 881.429688 459.246094 867.214844 460.894531 852.371094 460.929688 C 835.460938 461.003906 817.714844 459.007812 810.042969 458.046875 C 810.042969 458.046875 781.394531 460.910156 780.523438 454.292969 C 781.597656 454.050781 782.6875 453.8125 783.757812 453.570312 C 786.234375 452.996094 788.710938 452.441406 791.226562 452.203125 C 799.320312 451.445312 807.363281 453.996094 815.496094 454.105469 C 819.691406 454.179688 823.886719 453.589844 827.898438 452.386719 C 829.304688 451.960938 830.691406 451.460938 832.152344 451.390625 C 833.128906 451.351562 834.128906 451.5 835.089844 451.667969 C 837.011719 451.960938 838.914062 452.277344 840.835938 452.574219 C 844.792969 453.21875 848.839844 453.847656 852.816406 453.238281 C 858.046875 452.425781 863.019531 449.484375 868.285156 450.019531 C 870.320312 450.222656 872.429688 450.964844 874.386719 450.355469 C 875.664062 449.964844 876.699219 449.078125 877.695312 448.191406 C 879.5625 446.542969 881.449219 444.898438 883.316406 443.253906 C 884.089844 442.570312 884.886719 441.847656 885.21875 440.867188 C 886.199219 437.964844 882.5 435.152344 883.148438 432.140625 C 884.015625 428.164062 891.449219 427.8125 891.207031 423.746094 C 891.058594 421.527344 888.472656 420.214844 887.9375 418.050781 C 887.824219 417.550781 887.824219 417.03125 887.898438 416.535156 C 889.304688 416.386719 890.671875 416.199219 892.003906 415.960938 C 893.277344 415.71875 894.40625 415.148438 895.273438 414.316406 C 895.273438 414.316406 895.605469 447.191406 887.601562 453.976562 Z M 887.601562 453.976562 " fill-opacity="1" fill-rule="nonzero"/><path fill="#353437" d="M 864.238281 312.371094 C 868.410156 293.308594 862.234375 281.410156 846.917969 275.847656 C 841.367188 273.828125 835.273438 273.699219 829.589844 275.292969 C 814.910156 279.410156 807.582031 288.78125 807.800781 302.261719 C 807.820312 303.457031 808.148438 304.65625 808.792969 305.660156 C 812.292969 311.121094 819.84375 311.886719 828.585938 309.820312 C 831.691406 309.085938 834.957031 310.066406 837.113281 312.417969 L 841.660156 317.367188 C 843.785156 319.679688 847.601562 320.054688 850.167969 318.238281 C 853.421875 315.933594 856.765625 314.714844 860.238281 315.140625 C 862.050781 315.363281 863.847656 314.15625 864.238281 312.371094 Z M 864.238281 312.371094 " fill-opacity="1" fill-rule="nonzero"/><path fill="#29282b" d="M 864.238281 312.375 C 864 313.464844 863.242188 314.351562 862.242188 314.796875 C 865.035156 297.636719 858.710938 286.785156 844.292969 281.550781 C 838.75 279.535156 832.648438 279.40625 826.972656 280.996094 C 818.582031 283.363281 812.59375 287.429688 809.046875 292.996094 C 811.671875 284.453125 818.546875 278.390625 829.582031 275.300781 C 835.273438 273.691406 841.375 273.820312 846.917969 275.835938 C 862.222656 281.402344 868.417969 293.3125 864.238281 312.375 Z M 864.238281 312.375 " fill-opacity="1" fill-rule="nonzero"/></svg>